<?xml version="1.0" encoding="UTF-8"?>
<svg width="107px" height="111px" viewBox="0 0 107 111" version="1.1" xmlns="http://www.w3.org/2000/svg" xmlns:xlink="http://www.w3.org/1999/xlink">
    <title>Group 2</title>
    <defs>
        <path d="M18.8535166,80 C18.8421563,79.9976229 18.8307961,79.995642 18.8194359,79.9932649 C12.7997319,78.8506795 7.43080668,75.3793431 4.00366914,70.4175746 C1.73202914,67.1047106 0.430065798,63.4610356 0.0977791106,59.4857573 C0.0320520736,58.9239729 0.000405722451,58.326136 0,57.7053207 C0.000405722451,58.326136 0.0320520736,58.9239729 0.0977791106,59.4857573 C0.430065798,63.4610356 1.73202914,67.1047106 4.00366914,70.4175746 C7.43080668,75.3793431 12.7997319,78.8506795 18.8194359,79.9932649 C18.8307961,79.995642 18.8421563,79.9976229 18.8535166,80 M22.8579971,0.00911215879 C22.9054667,0.00594271225 22.9529362,0.00277326572 23,-1.34003919e-13 C22.9529362,0.00277326572 22.9054667,0.00594271225 22.8579971,0.00911215879" id="path-1"></path>
    </defs>
    <g id="Page-1" stroke="none" stroke-width="1" fill="none" fill-rule="evenodd">
        <g id="Map/Level" transform="translate(-18.000000, -455.000000)">
            <g id="Group-2" transform="translate(18.000000, 455.000000)">
                <ellipse id="Oval" fill="#60A625" cx="54" cy="89.5" rx="10" ry="5.5"></ellipse>
                <g id="bush-svgrepo-com" transform="translate(10.000000, 97.000000)" fill-rule="nonzero">
                    <g id="Group" transform="translate(1.000000, 0.000000)">
                        <path d="M21.5803744,7.2350812 C21.6002544,7.07559485 21.6116398,6.91342255 21.6116398,6.7485046 C21.6116398,5.07264456 20.5551646,3.64693694 19.0795562,3.11457965 C18.6047352,1.83683858 17.3863289,0.92743218 15.9576186,0.92743218 C15.5183694,0.92743218 15.0994132,1.01415885 14.7153208,1.17030266 C14.3312874,1.01415885 13.9123312,0.92743218 13.473082,0.92743218 C12.7935022,0.92743218 12.1617644,1.13353485 11.6346771,1.48670876 C11.0353255,0.589717463 10.0207342,8.48217529e-16 8.87004986,8.48217529e-16 C7.18048004,8.48217529e-16 5.78545377,1.27153351 5.56612412,2.92017582 C3.92905655,3.13511232 2.66428308,4.55019548 2.66428308,6.26521085 C2.66428308,6.36817265 2.66959229,6.4699407 2.67849998,6.57051498 C1.12974239,7.03685734 8.38316795e-16,8.4877533 8.38316795e-16,10.20635 C8.38316795e-16,12.3015779 1.67865643,14 3.74936905,14 L3.74942804,14 L19.250572,14 C21.3212846,14 23,12.3015779 23,10.20635 C23,9.00226388 22.4449509,7.9300883 21.5803744,7.2350812 Z" id="Path" fill="#00953A"></path>
                        <path d="M11.6347361,1.48670876 C11.0353845,0.589717463 10.0207932,0 8.87010885,0 C7.18053903,0 5.78551276,1.27153351 5.56618311,2.92017582 C3.92911554,3.13511232 2.66434207,4.55019548 2.66434207,6.26521085 C2.66434207,6.36817265 2.66965128,6.4699407 2.67855897,6.57051498 C1.12980138,7.03685734 5.89913001e-05,8.4877533 5.89913001e-05,10.20635 C5.89913001e-05,12.3015779 1.67871543,14 3.74942804,14 L11.6770329,14 L11.6770329,1.45949103 C11.662934,1.4686233 11.6486581,1.47739743 11.6347361,1.48670876 Z" id="Path" fill="#222222" opacity="0.2"></path>
                        <g transform="translate(15.494773, 3.579669)">
                            <path d="M3.75279054,1.89849629 C3.75279054,0.850016841 2.91251847,0 1.87651326,0 C0.840036113,0 0,0.850016841 0,1.89849629 C0,2.94703542 0.839977122,3.79705227 1.87651326,3.79705227 C2.91251847,3.79705227 3.75279054,2.94703542 3.75279054,1.89849629 Z" id="Path" fill="#FFFFFF"></path>
                            <ellipse id="Oval" fill="#FF9500" cx="1.87639527" cy="1.89849629" rx="1" ry="1"></ellipse>
                            <path d="M1.87651326,0 C0.840036113,0 0,0.850016841 0,1.89849629 C0,2.94703542 0.839977122,3.79705227 1.87651326,3.79705227 L1.87651326,0 Z" id="Path" fill="#222222" opacity="0.2"></path>
                        </g>
                        <path d="M15.757933,5.11926089 C15.541376,5.11926089 15.3287123,5.13573478 15.1205321,5.1664741 C14.3504596,3.88652458 12.9586189,3.03167301 11.3692753,3.03167301 C10.7764717,3.03167301 10.211394,3.15128777 9.69557411,3.36688083 C8.89641897,2.52074371 7.77104194,1.99280333 6.52308099,1.99280333 C6.27744121,1.99280333 6.03663873,2.01345538 5.80197134,2.05273009 C5.68717427,2.32538488 5.60653316,2.6163042 5.56612412,2.92017582 C3.92905655,3.13511232 2.66428308,4.55019548 2.66428308,6.26521085 C2.66428308,6.36817265 2.66959229,6.4699407 2.67849998,6.57051498 C1.12974239,7.03685734 4.19158397e-15,8.4877533 4.19158397e-15,10.20635 C4.19158397e-15,12.3015779 1.67865643,14 3.74936905,14 L15.7578741,14 C18.1815906,14 20.1464138,12.0119717 20.1464138,9.55963045 C20.1464138,7.10728918 18.1816496,5.11926089 15.757933,5.11926089 Z" id="Path" fill="#222222" opacity="0.2"></path>
                    </g>
                    <g id="Group" transform="translate(0.000000, 3.000000)">
                        <path d="M17.4893941,2.86421527 C17.2668305,2.86421527 17.04821,2.87934237 16.8342835,2.90745169 C16.0427307,1.73487546 14.6121524,0.951765684 12.9786005,0.951765684 C12.3693045,0.951765684 11.788486,1.06132429 11.2583015,1.25882329 C10.4369566,0.483672171 9.28020165,0 7.99745664,0 C5.94174746,0 4.20849265,1.24064819 3.66485161,2.93663345 C1.57816127,3.29381369 0,4.94633676 0,6.93210763 C0,9.17876459 2.01947062,11 4.51066844,11 L17.4893316,11 C19.9805294,11 22,9.17870814 22,6.93210763 C22,4.68550713 19.9805294,2.86421527 17.4893941,2.86421527 Z" id="Path" fill="#77BC1F"></path>
                        <path d="M7.99745664,0 C5.94174746,0 4.20849265,1.24064819 3.66485161,2.93663345 C1.57816127,3.29381369 0,4.94633676 0,6.93210763 C0,9.17876459 2.01947062,11 4.51066844,11 L10.7010162,11 L10.7010162,0.813984873 C9.94764213,0.303614495 9.01238677,0 7.99745664,0 Z" id="Path" fill="#218649" opacity="0.5"></path>
                        <g transform="translate(15.602485, 5.259716)">
                            <path d="M3.98161045,1.79532743 C3.98161045,0.803824879 3.09010424,0 1.9909304,0 C0.891255861,0 0,0.803824879 0,1.79532743 C0,2.78688642 0.891193272,3.5907113 1.9909304,3.5907113 C3.09010424,3.5907113 3.98161045,2.78688642 3.98161045,1.79532743 Z" id="Path" fill="#FFFFFF"></path>
                            <ellipse id="Oval" fill="#FF9500" cx="1.99086781" cy="1.79532743" rx="1" ry="1"></ellipse>
                            <path d="M1.99099299,0 C0.891318449,0 6.25881921e-05,0.803824879 6.25881921e-05,1.79532743 C6.25881921e-05,2.78688642 0.891255861,3.5907113 1.99099299,3.5907113 L1.99099299,0 Z" id="Path" fill="#222222" opacity="0.2"></path>
                        </g>
                        <g transform="translate(2.378351, 5.374581)">
                            <path d="M3.98161045,1.79532743 C3.98161045,0.803824879 3.09010424,0 1.9909304,0 C0.891255861,0 0,0.803824879 0,1.79532743 C0,2.78688642 0.891193272,3.5907113 1.9909304,3.5907113 C3.09010424,3.5907113 3.98161045,2.78688642 3.98161045,1.79532743 Z" id="Path" fill="#FFFFFF"></path>
                            <ellipse id="Oval" fill="#FF9500" cx="1.99086781" cy="1.79532743" rx="1" ry="1"></ellipse>
                            <path d="M1.99099299,0 C0.891318449,0 6.25881926e-05,0.803824879 6.25881926e-05,1.79532743 C6.25881926e-05,2.78688642 0.891255861,3.5907113 1.99099299,3.5907113 L1.99099299,0 Z" id="Path" fill="#222222" opacity="0.2"></path>
                        </g>
                        <g transform="translate(9.009257, 2.941318)">
                            <path d="M3.98161045,1.79532743 C3.98161045,0.803824879 3.09010424,0 1.9909304,0 C0.891255861,0 0,0.803824879 0,1.79532743 C0,2.78688642 0.891193272,3.5907113 1.9909304,3.5907113 C3.09004165,3.59076775 3.98161045,2.78694287 3.98161045,1.79532743 Z" id="Path" fill="#FFFFFF"></path>
                            <ellipse id="Oval" fill="#FF9500" cx="1.99080523" cy="1.79532743" rx="1" ry="1"></ellipse>
                            <path d="M1.9909304,0 C0.891255861,0 0,0.803824879 0,1.79532743 C0,2.78688642 0.891193272,3.5907113 1.9909304,3.5907113 L1.9909304,0 Z" id="Path" fill="#222222" opacity="0.2"></path>
                        </g>
                    </g>
                </g>
                <g id="bush-svgrepo-com" transform="translate(83.000000, 76.000000)" fill-rule="nonzero">
                    <g id="Group" transform="translate(1.000000, 0.000000)">
                        <path d="M21.5803744,7.2350812 C21.6002544,7.07559485 21.6116398,6.91342255 21.6116398,6.7485046 C21.6116398,5.07264456 20.5551646,3.64693694 19.0795562,3.11457965 C18.6047352,1.83683858 17.3863289,0.92743218 15.9576186,0.92743218 C15.5183694,0.92743218 15.0994132,1.01415885 14.7153208,1.17030266 C14.3312874,1.01415885 13.9123312,0.92743218 13.473082,0.92743218 C12.7935022,0.92743218 12.1617644,1.13353485 11.6346771,1.48670876 C11.0353255,0.589717463 10.0207342,8.48217529e-16 8.87004986,8.48217529e-16 C7.18048004,8.48217529e-16 5.78545377,1.27153351 5.56612412,2.92017582 C3.92905655,3.13511232 2.66428308,4.55019548 2.66428308,6.26521085 C2.66428308,6.36817265 2.66959229,6.4699407 2.67849998,6.57051498 C1.12974239,7.03685734 8.38316795e-16,8.4877533 8.38316795e-16,10.20635 C8.38316795e-16,12.3015779 1.67865643,14 3.74936905,14 L3.74942804,14 L19.250572,14 C21.3212846,14 23,12.3015779 23,10.20635 C23,9.00226388 22.4449509,7.9300883 21.5803744,7.2350812 Z" id="Path" fill="#00953A"></path>
                        <path d="M11.6347361,1.48670876 C11.0353845,0.589717463 10.0207932,0 8.87010885,0 C7.18053903,0 5.78551276,1.27153351 5.56618311,2.92017582 C3.92911554,3.13511232 2.66434207,4.55019548 2.66434207,6.26521085 C2.66434207,6.36817265 2.66965128,6.4699407 2.67855897,6.57051498 C1.12980138,7.03685734 5.89913001e-05,8.4877533 5.89913001e-05,10.20635 C5.89913001e-05,12.3015779 1.67871543,14 3.74942804,14 L11.6770329,14 L11.6770329,1.45949103 C11.662934,1.4686233 11.6486581,1.47739743 11.6347361,1.48670876 Z" id="Path" fill="#222222" opacity="0.2"></path>
                        <g transform="translate(15.494773, 3.579669)">
                            <path d="M3.75279054,1.89849629 C3.75279054,0.850016841 2.91251847,0 1.87651326,0 C0.840036113,0 0,0.850016841 0,1.89849629 C0,2.94703542 0.839977122,3.79705227 1.87651326,3.79705227 C2.91251847,3.79705227 3.75279054,2.94703542 3.75279054,1.89849629 Z" id="Path" fill="#FFFFFF"></path>
                            <ellipse id="Oval" fill="#FF9500" cx="1.87639527" cy="1.89849629" rx="1" ry="1"></ellipse>
                            <path d="M1.87651326,0 C0.840036113,0 0,0.850016841 0,1.89849629 C0,2.94703542 0.839977122,3.79705227 1.87651326,3.79705227 L1.87651326,0 Z" id="Path" fill="#222222" opacity="0.2"></path>
                        </g>
                        <path d="M15.757933,5.11926089 C15.541376,5.11926089 15.3287123,5.13573478 15.1205321,5.1664741 C14.3504596,3.88652458 12.9586189,3.03167301 11.3692753,3.03167301 C10.7764717,3.03167301 10.211394,3.15128777 9.69557411,3.36688083 C8.89641897,2.52074371 7.77104194,1.99280333 6.52308099,1.99280333 C6.27744121,1.99280333 6.03663873,2.01345538 5.80197134,2.05273009 C5.68717427,2.32538488 5.60653316,2.6163042 5.56612412,2.92017582 C3.92905655,3.13511232 2.66428308,4.55019548 2.66428308,6.26521085 C2.66428308,6.36817265 2.66959229,6.4699407 2.67849998,6.57051498 C1.12974239,7.03685734 4.19158397e-15,8.4877533 4.19158397e-15,10.20635 C4.19158397e-15,12.3015779 1.67865643,14 3.74936905,14 L15.7578741,14 C18.1815906,14 20.1464138,12.0119717 20.1464138,9.55963045 C20.1464138,7.10728918 18.1816496,5.11926089 15.757933,5.11926089 Z" id="Path" fill="#222222" opacity="0.2"></path>
                    </g>
                    <g id="Group" transform="translate(0.000000, 3.000000)">
                        <path d="M17.4893941,2.86421527 C17.2668305,2.86421527 17.04821,2.87934237 16.8342835,2.90745169 C16.0427307,1.73487546 14.6121524,0.951765684 12.9786005,0.951765684 C12.3693045,0.951765684 11.788486,1.06132429 11.2583015,1.25882329 C10.4369566,0.483672171 9.28020165,0 7.99745664,0 C5.94174746,0 4.20849265,1.24064819 3.66485161,2.93663345 C1.57816127,3.29381369 0,4.94633676 0,6.93210763 C0,9.17876459 2.01947062,11 4.51066844,11 L17.4893316,11 C19.9805294,11 22,9.17870814 22,6.93210763 C22,4.68550713 19.9805294,2.86421527 17.4893941,2.86421527 Z" id="Path" fill="#77BC1F"></path>
                        <path d="M7.99745664,0 C5.94174746,0 4.20849265,1.24064819 3.66485161,2.93663345 C1.57816127,3.29381369 0,4.94633676 0,6.93210763 C0,9.17876459 2.01947062,11 4.51066844,11 L10.7010162,11 L10.7010162,0.813984873 C9.94764213,0.303614495 9.01238677,0 7.99745664,0 Z" id="Path" fill="#218649" opacity="0.5"></path>
                        <g transform="translate(15.602485, 5.259716)">
                            <path d="M3.98161045,1.79532743 C3.98161045,0.803824879 3.09010424,0 1.9909304,0 C0.891255861,0 0,0.803824879 0,1.79532743 C0,2.78688642 0.891193272,3.5907113 1.9909304,3.5907113 C3.09010424,3.5907113 3.98161045,2.78688642 3.98161045,1.79532743 Z" id="Path" fill="#FFFFFF"></path>
                            <ellipse id="Oval" fill="#FF9500" cx="1.99086781" cy="1.79532743" rx="1" ry="1"></ellipse>
                            <path d="M1.99099299,0 C0.891318449,0 6.25881921e-05,0.803824879 6.25881921e-05,1.79532743 C6.25881921e-05,2.78688642 0.891255861,3.5907113 1.99099299,3.5907113 L1.99099299,0 Z" id="Path" fill="#222222" opacity="0.2"></path>
                        </g>
                        <g transform="translate(2.378351, 5.374581)">
                            <path d="M3.98161045,1.79532743 C3.98161045,0.803824879 3.09010424,0 1.9909304,0 C0.891255861,0 0,0.803824879 0,1.79532743 C0,2.78688642 0.891193272,3.5907113 1.9909304,3.5907113 C3.09010424,3.5907113 3.98161045,2.78688642 3.98161045,1.79532743 Z" id="Path" fill="#FFFFFF"></path>
                            <ellipse id="Oval" fill="#FF9500" cx="1.99086781" cy="1.79532743" rx="1" ry="1"></ellipse>
                            <path d="M1.99099299,0 C0.891318449,0 6.25881926e-05,0.803824879 6.25881926e-05,1.79532743 C6.25881926e-05,2.78688642 0.891255861,3.5907113 1.99099299,3.5907113 L1.99099299,0 Z" id="Path" fill="#222222" opacity="0.2"></path>
                        </g>
                        <g transform="translate(9.009257, 2.941318)">
                            <path d="M3.98161045,1.79532743 C3.98161045,0.803824879 3.09010424,0 1.9909304,0 C0.891255861,0 0,0.803824879 0,1.79532743 C0,2.78688642 0.891193272,3.5907113 1.9909304,3.5907113 C3.09004165,3.59076775 3.98161045,2.78694287 3.98161045,1.79532743 Z" id="Path" fill="#FFFFFF"></path>
                            <ellipse id="Oval" fill="#FF9500" cx="1.99080523" cy="1.79532743" rx="1" ry="1"></ellipse>
                            <path d="M1.9909304,0 C0.891255861,0 0,0.803824879 0,1.79532743 C0,2.78688642 0.891193272,3.5907113 1.9909304,3.5907113 L1.9909304,0 Z" id="Path" fill="#222222" opacity="0.2"></path>
                        </g>
                    </g>
                </g>
                <g id="bush-svgrepo-com" transform="translate(0.000000, 62.000000)" fill-rule="nonzero">
                    <g id="Group" transform="translate(1.000000, 0.000000)">
                        <path d="M21.5803744,7.2350812 C21.6002544,7.07559485 21.6116398,6.91342255 21.6116398,6.7485046 C21.6116398,5.07264456 20.5551646,3.64693694 19.0795562,3.11457965 C18.6047352,1.83683858 17.3863289,0.92743218 15.9576186,0.92743218 C15.5183694,0.92743218 15.0994132,1.01415885 14.7153208,1.17030266 C14.3312874,1.01415885 13.9123312,0.92743218 13.473082,0.92743218 C12.7935022,0.92743218 12.1617644,1.13353485 11.6346771,1.48670876 C11.0353255,0.589717463 10.0207342,8.48217529e-16 8.87004986,8.48217529e-16 C7.18048004,8.48217529e-16 5.78545377,1.27153351 5.56612412,2.92017582 C3.92905655,3.13511232 2.66428308,4.55019548 2.66428308,6.26521085 C2.66428308,6.36817265 2.66959229,6.4699407 2.67849998,6.57051498 C1.12974239,7.03685734 8.38316795e-16,8.4877533 8.38316795e-16,10.20635 C8.38316795e-16,12.3015779 1.67865643,14 3.74936905,14 L3.74942804,14 L19.250572,14 C21.3212846,14 23,12.3015779 23,10.20635 C23,9.00226388 22.4449509,7.9300883 21.5803744,7.2350812 Z" id="Path" fill="#00953A"></path>
                        <path d="M11.6347361,1.48670876 C11.0353845,0.589717463 10.0207932,0 8.87010885,0 C7.18053903,0 5.78551276,1.27153351 5.56618311,2.92017582 C3.92911554,3.13511232 2.66434207,4.55019548 2.66434207,6.26521085 C2.66434207,6.36817265 2.66965128,6.4699407 2.67855897,6.57051498 C1.12980138,7.03685734 5.89913001e-05,8.4877533 5.89913001e-05,10.20635 C5.89913001e-05,12.3015779 1.67871543,14 3.74942804,14 L11.6770329,14 L11.6770329,1.45949103 C11.662934,1.4686233 11.6486581,1.47739743 11.6347361,1.48670876 Z" id="Path" fill="#222222" opacity="0.2"></path>
                        <g transform="translate(15.494773, 3.579669)">
                            <path d="M3.75279054,1.89849629 C3.75279054,0.850016841 2.91251847,0 1.87651326,0 C0.840036113,0 0,0.850016841 0,1.89849629 C0,2.94703542 0.839977122,3.79705227 1.87651326,3.79705227 C2.91251847,3.79705227 3.75279054,2.94703542 3.75279054,1.89849629 Z" id="Path" fill="#FFFFFF"></path>
                            <ellipse id="Oval" fill="#FF9500" cx="1.87639527" cy="1.89849629" rx="1" ry="1"></ellipse>
                            <path d="M1.87651326,0 C0.840036113,0 0,0.850016841 0,1.89849629 C0,2.94703542 0.839977122,3.79705227 1.87651326,3.79705227 L1.87651326,0 Z" id="Path" fill="#222222" opacity="0.2"></path>
                        </g>
                        <path d="M15.757933,5.11926089 C15.541376,5.11926089 15.3287123,5.13573478 15.1205321,5.1664741 C14.3504596,3.88652458 12.9586189,3.03167301 11.3692753,3.03167301 C10.7764717,3.03167301 10.211394,3.15128777 9.69557411,3.36688083 C8.89641897,2.52074371 7.77104194,1.99280333 6.52308099,1.99280333 C6.27744121,1.99280333 6.03663873,2.01345538 5.80197134,2.05273009 C5.68717427,2.32538488 5.60653316,2.6163042 5.56612412,2.92017582 C3.92905655,3.13511232 2.66428308,4.55019548 2.66428308,6.26521085 C2.66428308,6.36817265 2.66959229,6.4699407 2.67849998,6.57051498 C1.12974239,7.03685734 4.19158397e-15,8.4877533 4.19158397e-15,10.20635 C4.19158397e-15,12.3015779 1.67865643,14 3.74936905,14 L15.7578741,14 C18.1815906,14 20.1464138,12.0119717 20.1464138,9.55963045 C20.1464138,7.10728918 18.1816496,5.11926089 15.757933,5.11926089 Z" id="Path" fill="#222222" opacity="0.2"></path>
                    </g>
                    <g id="Group" transform="translate(0.000000, 3.000000)">
                        <path d="M17.4893941,2.86421527 C17.2668305,2.86421527 17.04821,2.87934237 16.8342835,2.90745169 C16.0427307,1.73487546 14.6121524,0.951765684 12.9786005,0.951765684 C12.3693045,0.951765684 11.788486,1.06132429 11.2583015,1.25882329 C10.4369566,0.483672171 9.28020165,0 7.99745664,0 C5.94174746,0 4.20849265,1.24064819 3.66485161,2.93663345 C1.57816127,3.29381369 0,4.94633676 0,6.93210763 C0,9.17876459 2.01947062,11 4.51066844,11 L17.4893316,11 C19.9805294,11 22,9.17870814 22,6.93210763 C22,4.68550713 19.9805294,2.86421527 17.4893941,2.86421527 Z" id="Path" fill="#77BC1F"></path>
                        <path d="M7.99745664,0 C5.94174746,0 4.20849265,1.24064819 3.66485161,2.93663345 C1.57816127,3.29381369 0,4.94633676 0,6.93210763 C0,9.17876459 2.01947062,11 4.51066844,11 L10.7010162,11 L10.7010162,0.813984873 C9.94764213,0.303614495 9.01238677,0 7.99745664,0 Z" id="Path" fill="#218649" opacity="0.5"></path>
                        <g transform="translate(15.602485, 5.259716)">
                            <path d="M3.98161045,1.79532743 C3.98161045,0.803824879 3.09010424,0 1.9909304,0 C0.891255861,0 0,0.803824879 0,1.79532743 C0,2.78688642 0.891193272,3.5907113 1.9909304,3.5907113 C3.09010424,3.5907113 3.98161045,2.78688642 3.98161045,1.79532743 Z" id="Path" fill="#FFFFFF"></path>
                            <ellipse id="Oval" fill="#FF9500" cx="1.99086781" cy="1.79532743" rx="1" ry="1"></ellipse>
                            <path d="M1.99099299,0 C0.891318449,0 6.25881921e-05,0.803824879 6.25881921e-05,1.79532743 C6.25881921e-05,2.78688642 0.891255861,3.5907113 1.99099299,3.5907113 L1.99099299,0 Z" id="Path" fill="#222222" opacity="0.2"></path>
                        </g>
                        <g transform="translate(2.378351, 5.374581)">
                            <path d="M3.98161045,1.79532743 C3.98161045,0.803824879 3.09010424,0 1.9909304,0 C0.891255861,0 0,0.803824879 0,1.79532743 C0,2.78688642 0.891193272,3.5907113 1.9909304,3.5907113 C3.09010424,3.5907113 3.98161045,2.78688642 3.98161045,1.79532743 Z" id="Path" fill="#FFFFFF"></path>
                            <ellipse id="Oval" fill="#FF9500" cx="1.99086781" cy="1.79532743" rx="1" ry="1"></ellipse>
                            <path d="M1.99099299,0 C0.891318449,0 6.25881926e-05,0.803824879 6.25881926e-05,1.79532743 C6.25881926e-05,2.78688642 0.891255861,3.5907113 1.99099299,3.5907113 L1.99099299,0 Z" id="Path" fill="#222222" opacity="0.2"></path>
                        </g>
                        <g transform="translate(9.009257, 2.941318)">
                            <path d="M3.98161045,1.79532743 C3.98161045,0.803824879 3.09010424,0 1.9909304,0 C0.891255861,0 0,0.803824879 0,1.79532743 C0,2.78688642 0.891193272,3.5907113 1.9909304,3.5907113 C3.09004165,3.59076775 3.98161045,2.78694287 3.98161045,1.79532743 Z" id="Path" fill="#FFFFFF"></path>
                            <ellipse id="Oval" fill="#FF9500" cx="1.99080523" cy="1.79532743" rx="1" ry="1"></ellipse>
                            <path d="M1.9909304,0 C0.891255861,0 0,0.803824879 0,1.79532743 C0,2.78688642 0.891193272,3.5907113 1.9909304,3.5907113 L1.9909304,0 Z" id="Path" fill="#222222" opacity="0.2"></path>
                        </g>
                    </g>
                </g>
                <g id="Group-5" transform="translate(30.000000, 0.000000)">
                    <path d="M43.1525425,44.4161101 C43.1188068,44.365446 43.0814991,44.3175744 43.0473665,44.2673092 C44.0439588,41.5501964 44.4722038,38.6240442 44.2503419,35.7098599 C43.930845,31.5167058 42.2742236,27.5058627 39.6122784,24.2956723 C40.9438463,21.5945166 41.5554547,18.545494 41.3244644,15.5140243 C40.9934576,11.1692767 38.9391519,7.0575043 35.6878241,4.17962266 C34.4880238,3.36979459 33.2882235,2.56036544 32.0884232,1.75053737 C29.3308273,0.396169723 26.4216192,-0.17230565 23.360402,0.045111247 C21.9466777,0.344308812 20.5321596,0.643506377 19.1176415,0.942305011 C16.3675865,1.92726339 14.0231538,3.51699979 12.0843432,5.71111526 C9.12671442,9.08765951 7.62884929,13.6151171 7.97096899,18.1014848 C8.11662784,20.0155514 8.59765925,21.8841399 9.36762702,23.6222783 C9.27515151,23.7232076 9.1783102,23.817754 9.08702536,23.9210769 C5.5300918,27.9817863 3.72939914,33.4259851 4.1405778,38.8211156 C4.28306153,40.690901 4.69503397,42.5231868 5.33918742,44.2661124 C4.74186706,45.1429607 4.19733316,46.0672817 3.71074528,47.0418679 C3.51071242,47.4531648 3.3257614,47.8668553 3.15152643,48.2829394 C1.56674226,51.5800966 0.698742514,56.4446501 1.09563312,59.9344905 C1.42068652,63.9373549 2.69430845,67.6063149 4.91649893,70.9421683 C8.26903383,75.9383687 13.5210872,79.4337941 19.409753,80.5843085 C25.2984188,81.7352218 31.4712584,80.4714113 36.4415193,77.1016489 C38.23864,75.8833164 39.842078,74.4088708 41.2141288,72.7453323 L41.2427049,72.7182051 C43.8879808,70.1331381 45.9688782,65.1959794 46.6420047,61.6542781 C46.7610719,59.6029796 46.8805359,57.5512821 47,55.4995847 C46.6725653,51.469593 45.3902117,47.7751014 43.1525425,44.4161101" id="Fill-39" fill="#E89D0F"></path>
                    <g id="Group-42" transform="translate(0.000000, 1.000000)">
                        <mask id="mask-2" fill="white">
                            <use xlink:href="#path-1"></use>
                        </mask>
                        <g id="Clip-41"></g>
                        <path d="M18.8535166,80 C18.8421563,79.9976229 18.8307961,79.995642 18.8194359,79.9932649 C12.7997319,78.8506795 7.43080668,75.3793431 4.00366914,70.4175746 C1.73202914,67.1047106 0.430065798,63.4610356 0.0977791106,59.4857573 C0.0320520736,58.9239729 0.000405722451,58.326136 0,57.7053207 C0.000405722451,58.326136 0.0320520736,58.9239729 0.0977791106,59.4857573 C0.430065798,63.4610356 1.73202914,67.1047106 4.00366914,70.4175746 C7.43080668,75.3793431 12.7997319,78.8506795 18.8194359,79.9932649 C18.8307961,79.995642 18.8421563,79.9976229 18.8535166,80 M22.8579971,0.00911215879 C22.9054667,0.00594271225 22.9529362,0.00277326572 23,-1.62370117e-13 C22.9529362,0.00277326572 22.9054667,0.00594271225 22.8579971,0.00911215879" id="Fill-40" mask="url(#mask-2)"></path>
                    </g>
                    <path d="M23.6226063,81 C22.2166772,81 20.8060023,80.8683485 19.4107511,80.5994602 C19.4000732,80.5970665 19.3901862,80.5954708 19.3791128,80.5930771 C19.3787173,80.5930771 19.3783218,80.5930771 19.3775309,80.5930771 C19.3664574,80.5906834 19.355384,80.5886887 19.3443106,80.586295 C13.4765834,79.4357405 8.24320501,75.9401929 4.90259087,70.9438178 C2.68830195,67.6078479 1.41920869,63.9387596 1.0953111,59.9357552 C1.03124344,59.3700526 1.00039605,58.7680461 1,58.1429008 C0.999209612,54.9098584 1.82101572,51.0464844 3.14389417,48.283797 C3.31750961,47.8676983 3.50180299,47.4539934 3.70112459,47.0426821 C4.18598228,46.0680618 4.72857996,45.1437085 5.32377639,44.2668295 C4.68191339,42.5238431 4.27140582,40.6914931 4.12942873,38.8216425 C4.09106723,38.3157814 4.07208422,37.8095215 4.07168874,37.3040594 C4.07168874,32.4177929 5.84620462,27.6013416 9.05828797,23.921083 C9.14924822,23.8177565 9.24574518,23.7232067 9.33789187,23.6222739 C8.57066192,21.8840747 8.09134094,20.0154209 7.94620001,18.1012875 C7.91416619,17.6804015 7.89834701,17.2595156 7.89834701,16.8394275 C7.89795153,12.7761825 9.37427597,8.77038555 12.0449481,5.71048484 C13.9768647,3.51629268 16.3129613,1.92650072 19.0532378,0.94150791 C20.4627262,0.642698832 21.8722146,0.34349081 23.2809121,0.0442827873 C23.3271832,0.0410912351 23.3734543,0.0378996828 23.4193299,0.0351070746 C23.4201209,0.0351070746 23.4213073,0.0351070746 23.4220982,0.0351070746 C23.4272395,0.0347081306 23.4327762,0.0343091865 23.4379174,0.0339102425 C23.8025494,0.0111704328 24.1648085,0 24.5250902,0 C25.3619245,0 26.1868944,0.0610384365 27,0.181918478 C20.8178667,3.80113871 16.5842601,10.5604474 16.5842601,18.1711027 C16.5842601,21.0239514 17.1794566,23.756718 18.2480418,26.2505171 C13.6486169,30.0951408 10.6797533,35.8838186 10.6797533,42.2669231 C10.6797533,45.1441074 11.2848368,47.8996139 12.3688457,50.4117644 C10.5286802,53.5039796 9.46128143,57.0980664 9.46128143,60.9071839 C9.46128143,70.4567072 16.1508148,78.6657785 24.9881965,80.9589088 C24.5337907,80.986037 24.078594,81 23.6226063,81" id="Fill-43" fill="#8D600F"></path>
                    <line x1="24" y1="90" x2="24" y2="50" id="Fill-44" fill="#7DAD55"></line>
                    <polyline id="Fill-45" fill="#4A3428" points="19 90 23.1666667 50 24.8333333 50 29 90 19 90"></polyline>
                    <line x1="24" y1="64" x2="31" y2="57" id="Fill-46" fill="#7DAD55"></line>
                    <polyline id="Fill-47" fill="#4A3428" points="23 62.1491056 30.5250957 57 31 57.4752834 25.850635 65 23 62.1491056"></polyline>
                    <line x1="25" y1="73" x2="18" y2="66" id="Fill-48" fill="#7DAD55"></line>
                    <polyline id="Fill-49" fill="#4A3428" points="23.149365 74 18 66.4752834 18.4753074 66 26 71.1495087 23.149365 74"></polyline>
                </g>
            </g>
        </g>
    </g>
</svg>