<?xml version="1.0" encoding="UTF-8"?>
<svg width="183px" height="106px" viewBox="0 0 183 106" version="1.1" xmlns="http://www.w3.org/2000/svg" xmlns:xlink="http://www.w3.org/1999/xlink">
    <title>cloud4-svgrepo-com</title>
    <g id="Page-1" stroke="none" stroke-width="1" fill="none" fill-rule="evenodd">
        <g id="iPhone-14" transform="translate(-84.000000, -160.000000)" fill="#FFFFFF" fill-rule="nonzero">
            <g id="Clouds" transform="translate(-56.000000, 14.000000)">
                <g id="cloud4-svgrepo-com" transform="translate(140.000000, 146.000000)">
                    <path d="M24.6341389,49.7865527 C25.3860462,47.8125592 26.1021485,46.0778377 26.7227704,44.3072253 C29.1097778,37.4939569 34.4805445,34.5987664 41.0448149,33.4622247 C43.0379661,33.1152804 45.1325651,33.3306251 47.1853915,33.306698 C48.3430901,33.306698 49.5007887,33.306698 50.9926683,33.306698 C51.1418563,30.6507794 51.4163621,28.3059144 51.368622,25.9610495 C51.2970117,22.6650785 52.6218008,20.0869234 54.6328546,17.5865316 C63.6736452,6.30485973 75.6922275,0.891332123 89.7517012,0.0478985412 C96.8590158,-0.376809149 103.524734,2.06376462 109.665311,5.74257067 C115.429933,9.20005018 119.463976,14.1649429 122.31645,20.1826321 C122.746111,21.0918655 123.271253,21.9771717 123.891875,23.1017498 C130.318892,21.7797723 136.471404,21.9053901 141.79443,26.4515569 C146.777771,30.5851434 150.068311,36.413265 151.038117,42.8237393 C152.428548,42.8237393 153.58028,42.8237393 154.726043,42.8237393 C158.127529,42.8596301 161.517079,42.6921397 164.870825,43.6253003 C169.877573,45.0011139 173.857907,47.6091781 176.632804,52.0536543 C180.613138,58.4123061 183.197074,65.1777201 182.988211,72.8284404 C182.803218,79.8391081 180.004452,85.2945083 174.036933,89.2185681 C169.474847,92.2583803 164.344603,94.3381809 158.957014,95.3319661 C154.282048,96.1377922 149.566647,96.6869424 144.831897,96.9769607 C142.78242,97.0182631 140.736819,96.7808161 138.750996,96.2711085 C135.922392,95.6729287 133.380229,96.2711085 130.778391,97.3897048 C126.255012,99.3517347 121.749536,101.373583 117.124709,103.066432 C114.253646,104.124779 111.276241,104.8669 108.245041,105.279697 C101.649669,106.221719 94.9556526,106.239838 88.3553019,105.333533 C82.3340757,104.448227 77.0587893,101.600891 72.0580087,98.2391202 C71.0733682,97.5751406 70.0767926,96.9291063 68.9071589,96.1454907 C67.158676,97.1504329 65.4579332,98.2391202 63.6617101,99.13639 C61.9788699,99.9738417 60.2184519,100.643803 58.4640015,101.313765 C54.9400038,102.641547 51.2226559,103.381137 47.4598973,103.503103 C41.8205923,103.730411 36.2170924,103.951738 30.6493976,102.510124 C17.0494228,99.0047904 7.10753695,91.0968528 1.60548485,78.0744776 C-0.745717451,72.5173868 -0.345893709,66.6731697 1.71290019,61.0203702 C2.2136759,59.7509376 2.95542072,58.5909655 3.89701197,57.6047633 C8.52183884,52.6398706 14.1432413,49.7207529 21.0834654,49.7865527 L24.6341389,49.7865527 Z" id="Shape"></path>
                </g>
            </g>
        </g>
    </g>
</svg>