<?xml version="1.0" encoding="UTF-8"?>
<svg width="211px" height="196px" viewBox="0 0 211 196" version="1.1" xmlns="http://www.w3.org/2000/svg" xmlns:xlink="http://www.w3.org/1999/xlink">
    <title>kocheng</title>
    <g id="Page-1" stroke="none" stroke-width="1" fill="none" fill-rule="evenodd">
        <g id="Map/Level" transform="translate(-99.000000, -661.000000)">
            <g id="kocheng" transform="translate(99.000000, 661.000000)">
                <path d="M166.555717,163.835167 C163.838872,163.981018 156.458241,164.015492 150.082398,163.994277 C144.343357,163.975714 139.410756,163.909418 139.410756,163.835167 C139.436855,163.747656 136.965335,162.81686 134.728701,161.803856 C132.839176,160.949964 131.11668,160.040382 131.200195,159.53388 C131.382884,158.430715 130.333728,156.258857 131.769141,155.431482 C133.207163,154.604108 135.574289,153.538068 135.574289,153.538068 L136.837453,152.612575 L137.672602,152 C137.672602,152 140.188489,153.620275 145.452539,155.046965 C147.759639,155.670148 150.593927,156.258857 153.978891,156.653981 C165.081157,157.956035 173.002025,156.181953 173.855444,158.706506 C174.708862,161.231059 171.720593,163.556723 166.555717,163.835167" id="Fill-4" fill="#FFFFFF"></path>
                <path d="M145,164 C143.56334,163.99195 142.22153,163.980882 141.052923,163.968807 C140.628163,163.084837 139.387903,161.905541 135.611452,160.276461 C134.685639,159.877492 133.773745,159.522294 133,159.236023 C134.359852,158.213697 135.607328,157.13452 136.739851,156 C137.946089,156.499088 139.584819,157.089743 141.674084,157.655745 C141.709137,159.545437 142.403497,161.931702 145,164" id="Fill-5" fill="#CEC0DC"></path>
                <path d="M138.506852,163.779358 C138.677106,163.873935 138.848983,163.995738 138.97816,164.1505 L138.979241,164.150022 C138.837092,163.960869 138.660351,163.847186 138.506852,163.779358 M136.770186,164.450471 C136.65278,164.72417 136.702288,164.976374 136.834547,165.182724 C136.690972,164.953447 136.66551,164.694555 136.770186,164.450471 M152.378034,166 C151.411094,166 150.6036,165.998567 150.046893,165.997612 C146.896906,165.990924 143.906365,165.972773 141.62603,165.946502 C138.025273,165.904946 137.481538,165.898258 137.146974,165.614528 C136.879971,165.509921 136.338398,165.315035 135.849253,165.138779 C129.328219,162.790602 127.973746,162.002463 128.21967,160.701317 C128.247776,160.554197 128.180755,160.156784 128.13211,159.866844 C127.959153,158.837009 127.669449,157.112656 129.420643,156.234239 C130.94483,155.469505 133.368395,154.519439 133.471089,154.479794 C134.096979,154.233799 134.829885,154.48457 135.107158,155.038178 C135.38389,155.591786 135.101212,156.239016 134.474782,156.484055 C134.451001,156.493131 132.060946,157.4303 130.644857,158.140581 C130.392447,158.267161 130.464873,158.826501 130.585403,159.544901 C130.644317,159.895982 130.704852,160.255182 130.705392,160.605307 C131.720976,161.285017 135.486583,162.641094 136.785385,163.109201 C137.279395,163.286891 137.697195,163.437354 137.989601,163.548648 C138.078782,163.582085 138.200933,163.628418 138.333354,163.690991 C140.71422,163.801331 160.743767,163.904027 165.9887,163.660421 C169.587835,163.492762 171.609815,162.457195 172.248677,161.62129 C172.532975,161.248237 172.59351,160.889515 172.43947,160.492579 C172.438389,160.489713 172.27408,160.220313 170.895826,160.055042 C169.569459,159.895982 167.620445,159.89216 165.363891,159.887384 C161.964738,159.880219 157.733768,159.871621 152.886097,159.377243 C141.240119,158.18978 135.709266,155.150428 135.479557,155.02146 C134.90123,154.697607 134.729894,154.020285 135.096888,153.509188 C135.462801,152.99857 136.228138,152.846674 136.805924,153.169572 C136.877809,153.209218 142.17517,156.078522 153.170936,157.19959 C157.879701,157.680116 162.0323,157.688237 165.369296,157.695401 C170.739623,157.706388 173.980953,157.713075 174.784664,159.77991 C175.190033,160.821687 175.019238,161.91123 174.304708,162.847443 C172.985908,164.574662 170.002393,165.668504 166.119499,165.849059 C163.326237,165.978983 156.445776,166 152.378034,166" id="Fill-6" fill="#3B0372"></path>
                <path d="M127.199385,93.7352406 C134.194877,112.156657 145.210246,124.182817 145.356762,136.241238 C145.476639,146.103384 141.227664,154.352446 131.453689,160.571504 C131.453689,160.571504 140.947951,163.46761 141.360861,165.663885 C141.797746,167.971836 137.695287,168.009061 137.695287,168.009061 C137.695287,168.009061 136.408607,169.872793 133.278484,169.485653 C133.278484,169.485653 130.819672,170.607366 127.154098,169.537768 L122.470902,168.803194 L112.502459,170 L96.5002049,170 L86.5290984,168.803194 L81.8459016,169.537768 C81.5741803,169.617181 81.3077869,169.684186 81.0493852,169.741265 C77.8286885,170.446058 75.7241803,169.485653 75.7241803,169.485653 C72.5940574,169.872793 71.3047131,168.009061 71.3047131,168.009061 C71.3047131,168.009061 67.204918,167.971836 67.6391393,165.663885 C68.0547131,163.46761 77.5463115,160.571504 77.5463115,160.571504 C73.6063525,158.062538 70.5641393,155.225993 68.342418,152.084202 C65.0577869,147.438521 63.5713115,142.127753 63.6432377,136.241238 C63.7125,130.61778 66.1446721,125.004248 69.4293033,118.747965 C73.1881148,111.58091 78.0684426,103.570088 81.8032787,93.7352406 C79.7813525,92.7053487 77.8793033,91.524075 76.1157787,90.1715664 C73.4252049,88.1167459 71.0516393,85.6673402 69.0403689,82.7687528 L63.347541,84.840945 L64.2266393,77.1527398 L59,77.1527398 C63.0331967,66.5808371 66.8612705,56.1925779 66.6081967,49.5665262 C56.439959,26.2513117 63.7364754,22.8862205 80.3461066,34.4557534 C91.6411885,29.0705353 102.587295,27.2861669 113.181762,29.1077604 C118.427049,30.0085559 123.584426,31.7904427 128.656557,34.4557534 C145.266189,22.8862205 152.562705,26.2513117 142.394467,49.5665262 C142.192008,54.8326242 144.568238,62.4711961 147.57582,70.6929598 C148.353689,72.817267 149.171516,74.9812809 150,77.1527398 L144.773361,77.1527398 L145.655123,84.840945 L139.962295,82.7687528 C136.629713,87.570779 132.303484,91.1394166 127.199385,93.7352406" id="Fill-7" fill="#FFFFFF"></path>
                <path d="M111,168 L98,168 L98.7175902,156 C100.567378,157.294933 102.417166,157.942161 104.266498,157.942161 C106.115831,157.942161 107.964708,157.294933 109.813584,156 L111,168" id="Fill-8" fill="#CEC0DC"></path>
                <path d="M82,135.497546 C82,144.612673 77.0180571,152 70.8725527,152 C70.6441147,152 70.4166266,151.990183 70.1910381,151.968095 C67.2631375,147.373717 65.9381021,142.121598 66.0022167,136.300089 C66.0639567,130.738733 68.2319805,125.187193 71.1594062,119 C77.1724071,119.225792 82,126.524766 82,135.497546" id="Fill-9" fill="#FF6F03"></path>
                <path d="M130.325507,168 C129.562355,168 128.641238,167.898044 127.598769,167.591684 C127.545939,167.576489 127.492587,167.564725 127.438711,167.555902 L127.214839,167.520609 C126.138371,165.538343 125.050918,163.495294 125.084918,163.395789 C125.155531,163.197268 127.404712,155.51623 127.404712,155.51623 C143.26457,145.006394 131.540588,113.951375 125.391957,100.377456 C123.913252,97.1128927 120.497636,95.0247484 116.759813,95.0247484 C116.514495,95.0247484 116.268131,95.0335715 116.020198,95.051708 C112.34305,95.3227746 108.665379,95.4580628 104.989277,95.4580628 C101.295391,95.4580628 97.6025509,95.3217943 93.910234,95.0477866 C93.661255,95.0296501 93.4133221,95.0203368 93.1664353,95.0203368 C89.4291347,95.0203368 86.0135192,97.1075008 84.5342909,100.372555 C82.246927,105.422825 79.1864727,112.893087 77.0623051,120.827055 C75.5851691,119.500643 73.8820689,118.5948 72.0466333,118.235502 C72.7956626,116.815956 73.5839218,115.364548 74.3920575,113.875398 C77.4974953,108.158 81.0166777,101.67789 83.8480295,94.1782166 C84.044702,93.6576511 83.8087996,93.0807154 83.2920112,92.8160211 C78.2114793,90.2171147 74.2539683,86.7976559 71.1945601,82.3620648 C70.9675498,82.0336478 70.58362,81.8478716 70.1855674,81.8478716 C70.0401553,81.8478716 69.8921279,81.8728705 69.7498541,81.9253192 L66,83.2982985 L66.602048,78.0009803 C79.3888989,84.3413904 92.1841189,87.5108601 104.977247,87.5108601 C117.782405,87.5108601 130.584425,84.3399198 143.39586,78 L144,83.2978084 L140.251192,81.9253192 C140.108395,81.8728705 139.960891,81.8478716 139.814956,81.8478716 C139.416903,81.8478716 139.03245,82.0336478 138.806486,82.3620648 C135.746555,86.7976559 131.789567,90.2171147 126.709035,92.8160211 C126.191723,93.0807154 125.955821,93.6576511 126.152494,94.1782166 C128.983322,101.676419 132.501982,108.156039 135.606896,113.872457 C140.018428,121.996122 143.827912,129.011503 143.910033,135.794541 C144.028769,145.600486 139.734927,153.152118 130.784236,158.88128 C130.406583,159.122936 130.208341,159.544486 130.272678,159.968977 C130.337015,160.392979 130.652946,160.745904 131.087613,160.879232 C135.512745,162.237016 139.682097,164.187911 140.005351,165.034933 C140.04772,165.260413 139.98286,165.33394 139.940491,165.382467 C139.581669,165.789312 138.335204,166.020184 137.57676,166.030968 C137.172954,166.034399 136.8089,166.212333 136.590782,166.530946 C136.556783,166.576533 135.817169,167.540216 134.060193,167.540216 C133.857767,167.540216 133.641218,167.527472 133.410546,167.498551 C133.360855,167.492669 133.31064,167.489728 133.260426,167.489728 C133.079446,167.489728 132.896896,167.528452 132.734223,167.599037 C132.679301,167.623056 131.793751,168 130.325507,168" id="Fill-10" fill="#CEC0DC"></path>
                <path d="M80.4795901,168 C79.1982366,168 78.4269542,167.63288 78.3844101,167.612245 C78.2398519,167.537861 78.0815697,167.499949 77.9223726,167.499949 C77.8761689,167.499949 77.8299651,167.502829 77.7842188,167.509067 C77.5815628,167.537381 77.3912582,167.550338 77.2133052,167.550338 C75.6776023,167.550338 75.0307498,166.607345 75.010164,166.576632 C74.8198594,166.267099 74.4918585,166.077541 74.1405271,166.072262 C73.4749186,166.061704 72.3856995,165.835674 72.0714225,165.436881 C72.0339105,165.389372 71.9771851,165.317387 72.009665,165.116791 C72.2955793,164.269777 75.9429308,162.359315 79.8135241,161.028566 C80.1936758,160.898035 80.4695259,160.552031 80.5257938,160.136922 C80.5820618,159.721812 80.4086833,159.309583 80.0788526,159.072995 C76.9164118,156.805971 74.418207,154.248131 72.5709719,151.371641 C74.505125,151.286699 76.3116458,150.430087 77.8574129,149 C78.9635581,151.715246 80.6214036,154.035537 82.9704754,155.778036 C82.9704754,155.778036 84.9375658,163.297989 84.9993232,163.492347 C85.0290583,163.590246 84.0738759,165.598606 83.13013,167.54314 L83.0043277,167.565215 C82.9567515,167.573853 82.9105478,167.585371 82.8648015,167.600248 C81.9517056,167.900182 81.1465709,168 80.4795901,168" id="Fill-11" fill="#CEC0DC"></path>
                <path d="M70.9677363,152 C67.5613942,147.636286 65.9254123,142.559515 66.0026082,136.677408 C66.076945,131.100757 68.8685787,125.36817 72.5168014,119 C74.5233239,119.36171 76.3851754,120.273634 78,121.608951 C75.1391759,131.451117 73.8308477,141.999925 77.5757083,149.561294 C75.6435226,151.031821 73.3853986,151.912657 70.9677363,152" id="Fill-12" fill="#CE541F"></path>
                <path d="M129.772443,39 C124.675755,36.5310095 119.493408,34.8803874 114.222725,34.0458806 C111.533044,33.6196155 108.820878,33.4065059 106.086762,33.4065059 C97.9968394,33.4065059 89.7104377,35.271617 81.2280919,39 C75.137228,35.0882554 70.2921617,33.0191845 67.0922765,33.0191845 C65.7720629,33.0191845 64.7323813,33.3711486 64,34.0913992 C64.1568624,32.4788471 64.7677155,31.763976 65.2415148,31.449898 C65.5686237,31.233386 66.1478901,31.0001839 67.1260046,31.0001839 C69.2364191,31.0001839 73.202949,32.0859622 80.4924984,36.7667404 C80.7087865,36.9058249 80.9673684,36.9768614 81.2275565,36.9768614 C81.4186824,36.9768614 81.6108789,36.9385615 81.7875498,36.8608581 C90.043971,33.2316503 98.1601262,31.4172534 106.082479,31.4172534 C113.989841,31.4172534 121.704471,33.2251674 129.169085,36.8406736 C129.356999,36.9318026 129.564721,36.9768154 129.771908,36.9768154 C130.032096,36.9768154 130.291214,36.9060548 130.508037,36.7667404 C137.798122,32.0853645 141.764116,31 143.874531,31 C144.852645,31 145.431912,31.23334 145.758485,31.449898 C146.232285,31.764022 146.843138,32.4784793 147,34.0915831 C146.268154,33.3715164 145.227402,33.0191845 143.907723,33.0191845 C140.707838,33.0191845 135.863843,35.0878416 129.772443,39" id="Fill-13" fill="#FFFFFF"></path>
                <path d="M148,70.8995485 C143.872851,72.8772128 139.142053,74 134.11342,74 C118.032962,74 105,62.5139597 105,48.3488662 C105,41.2030197 108.316079,34.7390775 113.666481,30.0871825 C118.902536,30.9712374 124.050835,32.720009 129.114038,35.3357866 C145.694434,23.9812171 152.978108,27.2838678 142.827767,50.1657357 C142.625665,55.3339667 144.997712,62.8305808 148,70.8995485" id="Fill-14" fill="#FF6F03"></path>
                <path d="M76.8613302,167.25257 C77.0458569,167.25257 77.229323,167.291163 77.3968817,167.366884 C77.4716468,167.398638 79.5009096,168.246218 82.59014,167.354671 C82.6431649,167.339527 82.6967201,167.327802 82.751866,167.319009 L87.4127544,166.596001 C87.5309999,166.577926 87.6513664,166.575972 87.7701422,166.589651 L97.6163352,167.757699 L113.38647,167.757699 L123.230011,166.590139 C123.348257,166.575483 123.469154,166.577926 123.586869,166.596001 L128.247757,167.319009 C128.302373,167.327802 128.356458,167.339527 128.410014,167.354671 C131.500305,168.247195 133.531158,167.398638 133.615998,167.361999 C133.826507,167.271623 134.069891,167.234495 134.30161,167.261852 C136.558349,167.537377 137.486815,166.348322 137.525524,166.297516 C137.746637,165.979979 138.115691,165.802647 138.525043,165.799227 C139.293904,165.78848 140.557487,165.558387 140.921238,165.152917 C140.964188,165.104553 141.029939,165.031276 140.986989,164.806557 C140.659295,163.962397 136.43268,162.018092 131.946774,160.664895 C131.506137,160.532018 131.185867,160.180284 131.120646,159.757716 C131.055426,159.334658 131.25639,158.914532 131.63923,158.673693 C140.71285,152.963885 145.065664,145.437765 144.945297,135.664947 C144.862048,128.904825 141.000245,121.913144 136.528125,113.816923 C133.380567,108.119817 129.813583,101.662087 126.943875,94.1892159 C126.744502,93.670409 126.983644,93.0954224 127.50806,92.8316223 C132.658368,90.2414958 136.669702,86.8335889 139.771658,82.4129826 C140.085035,81.965988 140.698003,81.7837705 141.236206,81.9777124 L145.0365,83.3455649 L144.371568,77.6132858 C144.334981,77.2967256 144.445803,76.9811425 144.676461,76.7446994 C144.907119,76.5082563 145.236404,76.3734252 145.581596,76.3734252 L149.06162,76.3734252 C144.996731,65.7676828 141.75532,56.5214882 141.998174,50.3016674 C142.002946,50.1707443 142.03317,50.0417754 142.086725,49.9201342 C148.61356,35.1199209 146.560436,31.5610618 145.374799,30.7179761 C144.35407,29.9915487 140.836928,29.0876913 130.270127,36.3671093 C129.883575,36.6331567 129.363401,36.6639333 128.943974,36.4456631 C114.142605,28.7552054 98.3539115,28.762582 82.0153502,36.4671091 C81.601756,36.6621747 81.1043824,36.6233863 80.7326779,36.3671093 C70.1658765,29.0879355 66.6497957,29.9917929 65.6274757,30.7179761 C64.441839,31.5610618 62.3892452,35.1199209 68.9160797,49.9201342 C68.9696349,50.0417754 68.9998591,50.1712328 69.0046313,50.3021559 C69.2448341,56.5322356 66.0039524,65.7740336 61.9385336,76.3734252 L65.4185576,76.3734252 C65.7637496,76.3734252 66.092504,76.5082563 66.3231623,76.7446994 C66.5538206,76.9811425 66.6646426,77.2967256 66.6280554,77.6127973 L65.9652442,83.3460535 L69.7665991,81.9777124 C70.3042715,81.7837705 70.9167091,81.965988 71.2311467,82.4129826 C74.3325729,86.8335889 78.3444366,90.2414958 83.4947448,92.8316223 C84.0186308,93.0954224 84.257773,93.670409 84.0583994,94.1892159 C81.1881618,101.663553 77.6206467,108.121771 74.4725586,113.819854 C70.0009691,121.915098 66.1391659,128.905802 66.0543261,135.665436 C65.9344898,145.4363 70.2867733,152.96242 79.3609238,158.674181 C79.7432333,158.915021 79.9441977,159.334658 79.8789771,159.757227 C79.8137565,160.179796 79.4940163,160.532018 79.0533794,160.664895 C74.566943,162.019558 70.339268,163.964351 70.0078624,164.826586 C69.9702147,165.030787 70.0359655,165.104065 70.079446,165.152428 C70.443727,165.558387 71.7062498,165.78848 72.477762,165.799227 C72.8849932,165.804601 73.2651817,165.997566 73.4857653,166.31266 C73.5122778,166.347345 74.4428647,167.539331 76.701195,167.261852 C76.7542199,167.255502 76.8077751,167.25257 76.8613302,167.25257 M113.464416,170 L97.5383886,170 C97.4864242,170 97.4344598,169.99658 97.3830257,169.990718 L87.6386404,168.834394 L83.2359833,169.517343 C80.0035856,170.428431 77.5776966,169.819737 76.6900598,169.518809 C74.1157011,169.733269 72.5710858,168.671229 71.87699,168.013683 C70.9241326,167.937474 69.1695387,167.650713 68.2092579,166.587208 C67.6662829,165.984864 67.4605463,165.234988 67.6159093,164.418185 C67.7893007,163.513936 68.6037631,162.226201 73.4078187,160.269683 C74.3596156,159.882288 75.297626,159.537394 76.0935297,159.259426 C67.6959769,153.301452 63.5017076,145.364976 63.6210136,135.639544 C63.7122164,128.356218 67.6938559,121.148612 72.3043706,112.803246 C75.2917933,107.394367 78.662586,101.293256 81.4193503,94.3274667 C76.6884691,91.7944969 72.7667477,88.4588908 69.7400866,84.3944147 L64.9864047,86.1052074 C64.5908389,86.2483434 64.1427786,86.1897212 63.80501,85.9523011 C63.4672414,85.7143924 63.2885475,85.3318822 63.3336186,84.9425328 L64.0653622,78.6152378 L60.2168152,78.6152378 C59.8212495,78.6152378 59.4506055,78.4379055 59.2225984,78.1403975 C58.9945913,77.8428896 58.9378547,77.461845 59.070417,77.1189048 C63.270519,66.2303101 66.735696,56.710545 66.5792725,50.5767034 C61.3192028,38.5945106 60.5217084,31.5169485 64.1411878,28.9432851 C67.2903364,26.7033289 73.157011,28.4571601 81.5821368,34.1569039 C98.2001393,26.5209648 114.296907,26.5151026 129.447181,34.1389264 C137.857459,28.4538382 143.71512,26.7056738 146.861617,28.9432851 C150.481097,31.5169485 149.683602,38.5947549 144.423532,50.5771919 C144.264988,56.7002861 147.730165,66.2249364 151.929737,77.1189048 C152.062299,77.4623335 152.005032,77.8428896 151.777025,78.1408861 C151.549018,78.4379055 151.178904,78.6152378 150.783338,78.6152378 L146.935322,78.6152378 L147.668656,84.9420443 C147.713727,85.3313937 147.535033,85.7143924 147.197795,85.9523011 C146.860557,86.1897212 146.411966,86.2483434 146.0164,86.1052074 L141.262718,84.3944147 C138.235527,88.4588908 134.313806,91.7944969 129.583455,94.3274667 C132.339689,101.29179 135.709421,107.392412 138.696844,112.800315 C143.307358,121.147147 147.288998,128.355241 147.37861,135.639544 C147.498446,145.366441 143.304707,153.302429 134.907154,159.259426 C135.703058,159.537394 136.641068,159.882288 137.593395,160.269683 C142.398512,162.226689 143.211913,163.514913 143.383714,164.418185 C143.539607,165.233522 143.335461,165.983887 142.791956,166.586231 C141.832736,167.650225 140.077082,167.936985 139.123164,168.013683 C138.429598,168.671229 136.888164,169.733269 134.312215,169.518809 C133.424578,169.819737 130.996568,170.428431 127.76364,169.517343 L123.361513,168.834394 L113.619779,169.990718 C113.567815,169.99658 113.516381,170 113.464416,170" id="Fill-15" fill="#3B0372"></path>
                <path d="M72.4900323,165.861033 L75.2477988,164.076018 C75.7828954,163.732451 76.2714841,164.636474 75.8258258,165.131032 L73.5019629,167.708107 C72.4573235,168.757363 71.3309118,166.704276 72.4900323,165.861033" id="Fill-16" fill="#3B0372"></path>
                <path d="M75.3779046,166.253415 L78.045552,164.130966 C78.5699662,163.716721 79.2807235,164.371495 78.8849609,164.89487 L76.8473029,167.590247 C75.8953959,168.727751 74.2569619,167.238918 75.3779046,166.253415" id="Fill-17" fill="#3B0372"></path>
                <path d="M136.498167,167.708582 L134.174488,165.131297 C133.725798,164.6303 134.223547,163.733241 134.752469,164.076196 L137.509506,165.861357 C138.667002,166.709788 137.548345,168.755364 136.498167,167.708582" id="Fill-18" fill="#3B0372"></path>
                <path d="M132.153005,167.590167 L130.11501,164.894752 C129.717564,164.364688 130.43689,163.718813 130.954897,164.130837 L133.622229,166.253317 C134.742463,167.23772 133.105953,168.728244 132.153005,167.590167" id="Fill-19" fill="#3B0372"></path>
                <path d="M80,142 C80.4655,149.800595 82.1185,157.298016 84.6845556,164.562935 C84.6845556,164.562935 80.4903056,168.24507 80.8634444,170.225946 C81.2365833,172.206822 84.0823611,171.368483 84.0823611,171.368483 C84.0823611,171.368483 84.1214167,173.882475 86.2805556,173.920884 C87.8496389,173.948538 88.6724444,173.212111 89.0049444,172.807025 C89.1004722,172.690774 89.2793889,172.688726 89.3786111,172.802416 C89.8076944,173.290977 90.9872778,174.286024 93.2683333,173.921396 C96.2518611,173.444613 97.0371944,167.407243 97.0371944,167.407243 C97.0371944,167.407243 98.6463889,150.91343 99,143.828265" id="Fill-20" fill="#FFFFFF"></path>
                <path d="M81.2350859,142.540983 C82.1819049,149.938233 83.748424,157.203765 86.0491102,164.276978 C86.196141,164.716706 86.0619384,165.184982 85.7437006,165.477967 C84.6493575,166.528206 83.410944,167.848392 82.742398,169.180098 C82.5820456,169.546204 82.4799135,169.806635 82.5317197,170.010473 C82.5386272,170.029504 82.5435611,170.049036 82.5475082,170.06957 C82.5494818,170.083594 82.550962,170.106131 82.5637901,170.115647 C82.5815523,170.130672 82.5766183,170.169736 82.596354,170.171239 C82.6392791,170.237348 82.6930588,170.246363 82.8114729,170.293942 C83.2190145,170.392105 83.7089526,170.325995 84.1140273,170.219819 C84.8368464,170.018486 85.5552249,170.605959 85.552758,171.358204 C85.5818681,171.768384 85.7713306,172.377392 86.0969692,172.566706 C86.2662026,172.72647 87.124211,172.695419 87.5697439,172.467542 C87.8164398,172.351349 88.0300785,172.185074 88.1963515,171.970719 C88.6497786,171.395266 89.5827826,171.330659 90.1107119,171.842506 C90.285866,172.022805 90.4427646,172.211618 90.6638042,172.344838 C91.1912401,172.703432 91.9782001,172.814616 92.7005257,172.701429 C93.8540759,172.560195 94.4185162,171.032165 94.8073089,169.964396 C95.0870621,169.121 95.2942867,168.213497 95.4171413,167.318515 C95.4689474,166.750574 95.5562778,165.672289 95.6066037,165.094832 C95.9026388,161.627591 96.244066,158.163855 96.6111495,154.703124 C96.9732992,151.241391 97.3783739,147.78066 97.7661799,144.329946 C97.8051578,143.985876 98.1110608,143.738466 98.450021,143.778032 C98.7638182,143.814091 98.995219,144.083037 98.9976859,144.395554 C99.0297564,149.653762 98.7243468,154.867896 98.3385144,160.097557 C98.1845762,162.254128 97.9763648,164.454772 97.7666733,166.609841 C97.6601006,168.005653 97.3719598,169.367909 96.9229732,170.700616 C96.3590263,172.346341 95.3342514,174.39924 93.4184109,174.859002 C91.7566671,175.245141 89.7322804,174.860003 88.5436994,173.43264 C88.8856199,173.87387 89.6168267,173.811267 89.8941129,173.422122 C88.7583248,174.834461 86.5819734,175.370349 84.9878243,174.519439 C83.8278601,173.80125 83.3976224,172.574719 83.3260806,171.315133 L84.7583971,172.376391 C83.2338163,172.849674 81.1304868,172.64784 80.4811831,170.912967 C79.6557386,168.700804 81.9490239,166.251748 83.276248,164.780812 C83.5934989,164.447761 83.9003887,164.136746 84.2541506,163.8072 L83.9487411,165.007688 C82.7280896,161.406224 81.6386804,157.742156 80.985923,153.984433 C80.3247779,150.229716 79.9567076,146.417402 80.0040732,142.613103 C80.0247957,141.859354 81.1201256,141.760691 81.2350859,142.540983" id="Fill-21" fill="#3B0372"></path>
                <path d="M129,142 C128.5345,149.800595 126.880972,157.298016 124.315444,164.562935 C124.315444,164.562935 128.509167,168.24507 128.136556,170.225946 C127.763417,172.206822 124.917639,171.368483 124.917639,171.368483 C124.917639,171.368483 124.878056,173.882475 122.718917,173.920884 C121.150361,173.948538 120.327556,173.212111 119.995056,172.807025 C119.899528,172.690774 119.720611,172.688726 119.621389,172.802416 C119.192306,173.290977 118.012722,174.286024 115.731667,173.921396 C112.748139,173.444613 111.962806,167.407243 111.962806,167.407243 C111.962806,167.407243 110.353611,150.91343 110,143.828265" id="Fill-22" fill="#FFFFFF"></path>
                <path d="M128.995312,142.612445 C129.095952,150.241275 127.569584,157.837049 125.051126,165.007608 L124.745753,163.807089 C125.098979,164.136643 125.406324,164.447666 125.723043,164.780726 C127.316505,166.510134 130.215321,169.767613 127.742743,171.976828 C126.71168,172.774169 125.409284,172.684518 124.241075,172.3765 L125.673217,171.315215 L125.667297,171.452947 C125.575044,172.812233 124.926806,174.235626 123.534131,174.741978 C121.994936,175.224289 120.139516,174.718438 119.106479,173.422259 C119.394092,173.824435 120.132116,173.856489 120.449328,173.441291 C119.258919,174.862681 117.241192,175.243822 115.582611,174.859175 C113.666511,174.399402 112.642848,172.34695 112.078476,170.700682 C111.629545,169.368441 111.340946,168.005649 111.234386,166.609802 C110.844161,162.709743 110.538295,158.789651 110.314816,154.87657 C110.12143,151.39171 109.97343,147.904345 110.004017,144.394943 C110.006977,144.04836 110.285709,143.770393 110.627095,143.773398 C110.942334,143.775902 111.200839,144.01881 111.235373,144.329333 C111.821944,149.50704 112.420849,154.703279 112.917634,159.896011 C113.155913,162.260488 113.358179,164.675048 113.559951,167.045034 C113.569325,167.186772 113.601885,167.470249 113.626058,167.609984 C113.891964,169.14757 114.679814,172.781681 116.557435,172.730095 C117.524858,172.811231 118.313202,172.536769 118.889907,171.842602 C119.417771,171.33024 120.350662,171.395851 120.804033,171.970818 C120.970286,172.185178 121.183405,172.351458 121.430565,172.467653 C121.876043,172.695536 122.733947,172.726589 122.90316,172.56682 C123.260332,172.350957 123.436944,171.692349 123.456184,171.249605 C123.506998,170.537407 124.208022,170.034561 124.88586,170.219873 C125.336271,170.324549 125.958363,170.44976 126.367828,170.207352 C126.373254,170.199839 126.387561,170.199839 126.391508,170.192327 C126.393481,170.182811 126.397428,170.1763 126.403348,170.171291 C126.423081,170.169789 126.418148,170.130723 126.435414,170.115698 C126.438868,170.110189 126.444294,170.107184 126.447748,170.100172 L126.452188,170.06962 C126.462054,170.016531 126.487214,169.975963 126.482281,169.928383 C126.491654,169.800167 126.405321,169.484136 126.256828,169.180125 C125.588364,167.847884 124.350595,166.528666 123.256385,165.477898 C122.918453,165.166375 122.813373,164.689573 122.951013,164.276879 C124.134022,160.758963 125.027939,157.154902 125.856736,153.537318 C126.678133,149.918232 127.287891,146.250063 127.763956,142.540324 C127.864596,141.797575 128.968179,141.819612 128.995312,142.612445" id="Fill-23" fill="#3B0372"></path>
                <path d="M110.700102,68.8756661 C109.991267,70.0512846 108.441915,71.4920561 105.046228,71.9936108 C105.03222,71.9936108 105.018211,71.9968054 105.001401,72 C104.984591,71.9968054 104.96778,71.9968054 104.953772,71.9936108 C101.558085,71.4920561 100.008733,70.0512846 99.2998976,68.8756661 C98.7227429,67.9108923 99.0057168,66.617073 99.9162763,66.0803776 C101.720585,65.0197653 104.421445,64.9942084 104.953772,65.0005976 C104.953772,65.0005976 104.987392,65.0005976 105.046228,65.0005976 C105.578555,64.9942084 108.282217,65.0197653 110.083724,66.0803776 C110.994283,66.617073 111.277257,67.9108923 110.700102,68.8756661" id="Fill-24" fill="#3B0372"></path>
                <path d="M106,67 C104.89548,67 104,66.7761862 104,66.5 C104,66.2238138 104.89548,66 106,66 C107.10452,66 108,66.2238138 108,66.5 C108,66.7761862 107.10452,67 106,67" id="Fill-25" fill="#B19AC7"></path>
                <path d="M104.478389,73.5229229 C104.067902,71.7500114 103.912069,69.8852203 104.047948,68.0488393 C104.207106,66.6428412 105.794892,66.657953 105.948349,68.0488393 C106.037668,68.9609851 105.996809,69.8737353 105.933621,70.7858811 C105.852379,71.7119297 105.747382,72.6240755 105.517908,73.5229229 C105.422413,73.888023 105.112648,74.0856849 104.825212,73.9641863 C104.656076,73.8928588 104.5316,73.7223982 104.478389,73.5229229" id="Fill-26" fill="#3B0372"></path>
                <path d="M97,61 C97,65.9704426 92.7465783,70 87.5,70 C82.2534217,70 78,65.9704426 78,61 C78,56.0295574 82.2534217,52 87.5,52 C92.7465783,52 97,56.0295574 97,61" id="Fill-27" fill="#FFFFFF"></path>
                <path d="M87,53.7903249 C81.9686267,53.7903249 77.8755785,57.6973255 77.8755785,62.5 C77.8755785,67.3026745 81.9686267,71.2096751 87,71.2096751 C92.0313733,71.2096751 96.1244215,67.3026745 96.1244215,62.5 C96.1244215,57.6973255 92.0313733,53.7903249 87,53.7903249 Z M87,73 C80.934915,73 76,68.2899108 76,62.5 C76,56.7100892 80.934915,52 87,52 C93.065085,52 98,56.7100892 98,62.5 C98,68.2899108 93.065085,73 87,73 L87,73 Z" id="Fill-28" fill="#3B0372"></path>
                <path d="M86,60 C86,61.1046381 85.1046512,62 84,62 C82.8953488,62 82,61.1046381 82,60 C82,58.8953619 82.8953488,58 84,58 C85.1046512,58 86,58.8953619 86,60" id="Fill-29" fill="#3B0372"></path>
                <path d="M114,61 C114,65.9704426 118.253422,70 123.5,70 C128.747084,70 133,65.9704426 133,61 C133,56.0295574 128.747084,52 123.5,52 C118.253422,52 114,56.0295574 114,61" id="Fill-30" fill="#FFFFFF"></path>
                <path d="M122.999732,53.7903249 C117.968772,53.7903249 113.875624,57.6973255 113.875624,62.5 C113.875624,67.3026745 117.968772,71.2096751 122.999732,71.2096751 C128.031228,71.2096751 132.124376,67.3026745 132.124376,62.5 C132.124376,57.6973255 128.031228,53.7903249 122.999732,53.7903249 Z M122.999732,73 C116.934499,73 112,68.2899108 112,62.5 C112,56.7100892 116.934499,52 122.999732,52 C129.065501,52 134,56.7100892 134,62.5 C134,68.2899108 129.065501,73 122.999732,73 L122.999732,73 Z" id="Fill-31" fill="#3B0372"></path>
                <path d="M118,60 C118,61.1046381 118.895349,62 120,62 C121.104651,62 122,61.1046381 122,60 C122,58.8953619 121.104651,58 120,58 C118.895349,58 118,58.8953619 118,60" id="Fill-32" fill="#3B0372"></path>
                <path d="M72.4614365,72.9737495 C69.0738455,71.7813531 65.6586841,70.7783851 62.1092444,70.1704967 C58.5557202,69.5206192 54.9833051,69.293019 51.3590678,69.0964334 C50.9118139,69.0730531 50.8658121,68.4541903 51.314853,68.3816636 C58.64609,67.2775399 66.5302165,68.5634575 72.821384,72.3119433 C73.2104336,72.5529037 72.9061376,73.1293002 72.4614365,72.9737495" id="Fill-33" fill="#3B0372"></path>
                <path d="M71.6051259,79.8912881 C67.4826728,80.4336386 63.5010407,81.8101041 59.7412281,83.4758232 C58.7406584,83.927782 57.6458551,84.4485389 56.6558735,84.9341435 C55.9644745,85.2731126 55.2884282,85.6437188 54.5705592,85.9620986 C54.1645079,86.1438864 53.7949853,85.6281513 54.1311556,85.3393999 C58.1011408,81.8954741 63.2294575,79.5568386 68.607652,79.0551644 C69.6230449,78.9888771 70.6172618,78.9562356 71.6522426,79.1114081 C71.8772385,79.1455561 72.030765,79.3464267 71.9947657,79.5603538 C71.9630016,79.7491722 71.79624,79.8792358 71.6051259,79.8912881" id="Fill-34" fill="#3B0372"></path>
                <path d="M140.180322,72.3125226 C146.47103,68.5634658 154.35407,67.277516 161.68523,68.3816673 C162.127346,68.4551502 162.095694,69.0721198 161.640815,69.096455 C158.017097,69.2930455 154.444433,69.5206515 150.891679,70.1705453 C147.341988,70.7784488 143.927586,71.781442 140.539732,72.9743454 C140.104764,73.1275141 139.783132,72.5549205 140.180322,72.3125226" id="Fill-35" fill="#3B0372"></path>
                <path d="M139.342568,79.0964986 C145.43312,78.4121867 152.464793,81.4588841 156.870645,85.3368192 C157.203242,85.6201042 156.835691,86.14793 156.431596,85.9607506 C155.712911,85.6417405 155.036595,85.2704007 154.34439,84.9307606 C150.975521,83.258725 147.484841,81.7602832 143.820977,80.7755785 C142.384137,80.3906531 140.858851,80.0610764 139.389174,79.8779223 C138.90246,79.8517575 138.855854,79.1724773 139.342568,79.0964986" id="Fill-36" fill="#3B0372"></path>
            </g>
        </g>
    </g>
</svg>