<?xml version="1.0" encoding="UTF-8"?>
<svg width="57px" height="78px" viewBox="0 0 57 78" version="1.1" xmlns="http://www.w3.org/2000/svg" xmlns:xlink="http://www.w3.org/1999/xlink">
    <title>Shape</title>
    <defs>
        <filter x="-13.8%" y="-8.6%" width="127.6%" height="117.1%" filterUnits="objectBoundingBox" id="filter-1">
            <feOffset dx="0" dy="2" in="SourceAlpha" result="shadowOffsetOuter1"></feOffset>
            <feGaussianBlur stdDeviation="2" in="shadowOffsetOuter1" result="shadowBlurOuter1"></feGaussianBlur>
            <feColorMatrix values="0 0 0 0 1   0 0 0 0 1   0 0 0 0 1  0 0 0 0.5 0" type="matrix" in="shadowBlurOuter1" result="shadowMatrixOuter1"></feColorMatrix>
            <feMerge>
                <feMergeNode in="shadowMatrixOuter1"></feMergeNode>
                <feMergeNode in="SourceGraphic"></feMergeNode>
            </feMerge>
        </filter>
    </defs>
    <g id="Page-1" stroke="none" stroke-width="1" fill="none" fill-rule="evenodd">
        <g id="Map/Level" transform="translate(-143.000000, -35.000000)" fill="#0D0A0A" fill-rule="nonzero">
            <g id="Level-Lock" filter="url(#filter-1)" transform="translate(147.000000, 37.000000)">
                <g id="finish-line-flag-svgrepo-com">
                    <path d="M23.6679123,13.5152861 L26.6737547,18.4300888 L21.234452,22.458671 L18.1382336,17.39842 L13.7667079,20.1314967 L11.058772,15.7105421 L15.4369922,12.9740828 L18.1449281,17.3916549 L23.6679123,13.5152861 Z M23.9423879,26.8762431 L21.2411466,22.458671 L16.8629263,25.1917477 L19.5641677,29.6093198 L23.9423879,26.8762431 Z M49,17.3003269 L48.5179941,18.3556733 C47.6477057,23.192678 44.6820305,26.4331329 42.4761841,27.8098188 C37.7029868,30.7898196 32.7590791,29.0038486 32.5548961,28.9294332 C29.3482179,28.2427815 26.4829607,28.6351539 24.1197929,30.1133154 C19.7415727,32.8497747 18.4930435,38.4579941 18.4830017,38.522262 L18.1917898,39.8989479 L35.5373075,68.2377067 L32.7289537,70 L1.83706197,19.5327905 C1.24459639,19.769567 0.55171291,19.5733808 0.203597541,19.0051173 C-0.191379513,18.3590559 0.00610901407,17.5201907 0.642089016,17.1210533 L2.96508965,15.6733344 C3.59437513,15.2741969 4.43119092,15.4737657 4.82616798,16.1198271 C5.15419977,16.6576479 5.05043461,17.3172395 4.63872124,17.7603497 L5.47218977,19.1268881 L5.49227335,19.0829153 C7.30648998,14.6349005 9.61610157,11.5128339 12.3541628,9.80804342 C17.3215014,6.7062719 21.8603902,9.28713522 22.0511842,9.39875841 C25.9340095,11.6853424 28.6988489,10.9479529 30.3323133,9.92643164 C31.0318913,9.48670395 31.4000903,9.06050633 31.4000903,9.06050633 C35.2360539,5.66107299 36.7791422,1.81176439 37.4586366,0.404635759 C38.1347838,-0.999110349 39.3431458,1.7001412 39.3431458,1.7001412 L49,17.3003269 Z M36.8896019,4.08820085 L37.5891799,5.23149286 L39.3063259,3.87848456 L37.933948,1.63925583 C37.6527779,2.20413679 37.3983859,3.2324231 36.8896019,4.08820085 Z M18.1214973,35.8534531 L17.3348904,36.3473012 L17.7064366,36.9460073 C17.8135491,36.6314329 17.9574814,36.249208 18.1214973,35.8534531 Z M32.3440185,27.6948131 L31.7415111,26.7104996 L31.1523928,27.5155395 C31.5440226,27.5595123 31.9456942,27.6136326 32.3440185,27.6948131 Z M36.5850009,24.7317249 L34.2184859,20.8688862 L39.015114,17.4525403 L36.3071781,13.0349682 L31.5172445,16.4580792 L28.7088907,11.8747636 C28.1465505,12.0100644 27.517265,12.0912449 26.8243815,12.0844799 L23.6712596,13.5186687 L21.9373773,10.6976464 C21.7767087,10.6063183 21.6193873,10.5251378 21.4553714,10.4304272 C21.4018152,10.3999845 20.9834073,10.1632081 20.2972183,9.93319669 L15.433645,12.9740828 L13.8236114,10.3526293 C13.5457885,10.4845476 13.2612712,10.643526 12.9734065,10.8227996 C11.8520734,11.5229814 10.8144218,12.5039124 9.84706273,13.7317675 L11.0554247,15.7139246 L7.21611388,18.1087493 C7.04205619,18.4842091 6.87134577,18.8562864 6.70398261,19.2554238 L9.07049767,23.0641422 L13.7633606,20.1314967 L16.8629263,25.1883652 L12.2068833,28.1007156 L14.9415973,32.4979925 L19.5641677,29.6093198 L20.7390571,31.5204441 C21.4988858,30.6274586 22.4026469,29.7818284 23.5005492,29.0917942 C23.9423879,28.8211925 24.400963,28.5945636 24.8662326,28.3814648 L23.9423879,26.8728606 L29.4051214,22.8950162 L26.6737547,18.4300888 L31.5105499,16.4580792 L34.2117913,20.8722688 L29.4084687,22.8950162 L31.6477877,26.5515211 L36.5850009,24.7317249 Z M47.2594232,16.7455935 L47.1891306,16.6305878 L45.5088045,18.1730172 L43.1724148,14.3642989 L44.9330753,12.9808479 L42.017609,8.26561396 L40.4644789,9.94334425 L37.5925271,5.24164042 L35.0586489,6.82466012 C34.6134629,7.41998377 34.118068,8.00515986 33.5925476,8.58018839 L36.3105253,13.0282032 L40.4711734,9.93996173 L43.1724148,14.3642989 L39.0184612,17.4491578 L41.3849763,21.3119965 L36.7121969,24.9380587 L38.6402205,28.083803 C39.6845666,27.8639391 40.7791217,27.4681842 41.8569404,26.7950626 C42.5431293,26.3654824 43.1858039,25.8411917 43.784964,25.2357205 L41.3849763,21.315379 L45.5088045,18.1730172 L46.8811824,20.4156285 L47.2594232,16.7455935 Z" id="Shape"></path>
                </g>
            </g>
        </g>
    </g>
</svg>