<?xml version="1.0" encoding="UTF-8"?>
<svg width="97px" height="100px" viewBox="0 0 97 100" version="1.1" xmlns="http://www.w3.org/2000/svg" xmlns:xlink="http://www.w3.org/1999/xlink">
    <title>Group 2</title>
    <defs>
        <path d="M22,22 L2.4111574,22 C0.877604289,22 -0.00811474436,21.1739173 5.60385479e-05,20.0194226 C0.00798273404,21.1620079 0.891913159,21.9805118 2.4111574,21.9805118 L17.9391428,21.9805118 C19.0523728,21.9805118 20.5326254,21.9805118 22,21.9805118 L22,22 M8.43554926,3.78431759 C8.4198095,2.66266404 7.53730996,1.87230971 6.02486244,1.87230971 L5.60811661,1.87230971 C4.06740906,1.87230971 3.18061687,1.11768373 3.19707207,0 C3.21352727,1.06860236 4.0960268,1.77053806 5.60811661,1.77053806 L6.02486244,1.77053806 C7.56449682,1.77053806 8.45128901,2.61538714 8.43554926,3.78431759" id="path-1"></path>
    </defs>
    <g id="Page-1" stroke="none" stroke-width="1" fill="none" fill-rule="evenodd">
        <g id="Map/Level" transform="translate(-283.000000, -672.000000)">
            <g id="Group-2" transform="translate(283.000000, 672.000000)">
                <ellipse id="Oval" fill="#60A625" cx="44" cy="71.5" rx="10" ry="5.5"></ellipse>
                <g id="Group-3" transform="translate(22.000000, 0.000000)">
                    <path d="M35.9732955,46.527665 C34.8859453,44.6735696 35.7683593,43.0443318 37.9347757,43.0443318 L38.3540124,43.0443318 C40.5204287,43.0443318 41.4032029,41.6406644 40.3154926,39.7862127 L35.0530638,30.8710179 C33.9657136,29.0176352 34.4821959,27.5284435 36.2005621,27.5284435 C37.9189283,27.5284435 38.4354106,26.0260668 37.3484206,24.1719714 L32.6399316,16.1526436 C31.5525815,14.2985482 29.7733468,11.2688502 28.6856365,9.41511112 L23.9771476,1.38972536 C22.8901576,-0.464013671 21.1105627,-0.462944618 20.0232126,1.39115077 L15.3147237,9.41831828 C14.2273735,11.271701 12.4481388,14.3053189 11.3607887,16.1594143 L6.65229974,24.1869381 C5.56458944,26.0403208 6.08107175,27.5569516 7.79979808,27.5569516 C9.5185244,27.5569516 10.0350067,29.0735824 8.94765659,30.9273214 L3.68450742,39.7869254 C2.5971573,41.6406644 3.47993144,43.0443318 5.6463478,43.0443318 L6.06594465,43.0443318 C8.23236101,43.0443318 9.11477499,44.6735696 8.02742487,46.527665 L0.465677327,59.5245066 C-0.621672796,61.378602 0.261101351,63 2.42751771,63 L18.0617324,63 C20.2277886,63 23.7725716,63 25.9386278,63 L41.5724823,63 C43.7388986,63 44.6216728,61.378602 43.5343227,59.5245066 L35.9732955,46.527665" id="Fill-73" fill="#E89D0F"></path>
                    <g id="Group-76" transform="translate(0.000000, 41.000000)">
                        <mask id="mask-2" fill="white">
                            <use xlink:href="#path-1"></use>
                        </mask>
                        <g id="Clip-75"></g>
                        <path d="M22,22 L2.4111574,22 C0.877604289,22 -0.00811474436,21.1739173 5.6038548e-05,20.0194226 C0.00798273404,21.1620079 0.891913159,21.9805118 2.4111574,21.9805118 L17.9391428,21.9805118 C19.0523728,21.9805118 20.5326254,21.9805118 22,21.9805118 L22,22 M8.43554926,3.78431759 C8.4198095,2.66266404 7.53730996,1.87230971 6.02486244,1.87230971 L5.60811661,1.87230971 C4.06740906,1.87230971 3.18061687,1.11768373 3.19707207,0 C3.21352727,1.06860236 4.0960268,1.77053806 5.60811661,1.77053806 L6.02486244,1.77053806 C7.56449682,1.77053806 8.45128901,2.61538714 8.43554926,3.78431759" id="Fill-74" mask="url(#mask-2)"></path>
                    </g>
                    <path d="M22,63 C20.5326179,63 19.0523577,63 17.939122,63 L2.41105691,63 C0.891804878,63 0.0078699187,62.1917183 0,61.0634026 C0.0032195122,60.6040221 0.15203252,60.0915401 0.462536585,59.5587442 L7.97294309,46.5763428 C8.29382114,46.0257276 8.4419187,45.4989902 8.43547967,45.0310564 C8.45121951,43.8767246 7.56442276,43.0424268 6.02478049,43.0424268 L5.60803252,43.0424268 C4.09593496,43.0424268 3.21343089,42.3492575 3.19697561,41.2940008 C3.20377236,40.8560034 3.35258537,40.3616971 3.6595122,39.8349597 L8.88692683,30.9242597 C9.27076423,30.2653034 9.45356098,29.6487569 9.45284553,29.1280781 C9.45141463,28.1836572 8.84721951,27.5535681 7.74686179,27.5535681 C6.64686179,27.5535681 6.04266667,26.923479 6.04123577,25.9794145 C6.04052033,25.4583793 6.22295935,24.8421892 6.60715447,24.1832329 L11.2836748,16.1549427 C12.3636423,14.3006703 14.1307967,11.2671192 15.2107642,9.41355961 L19.8872846,1.3856258 C20.4270894,0.459024183 21.1382439,0 21.8497561,0 C21.8998374,0 21.9499187,0.00213831141 22,0.00677131947 L22,63" id="Fill-77" fill="#8D600F"></path>
                    <line x1="20.5" y1="72" x2="20.5" y2="24" id="Fill-78" fill="#7DAD55"></line>
                    <polyline id="Fill-79" fill="#4A3428" points="17 72 20.7498438 24 22.2497813 24 26 72 17 72"></polyline>
                    <line x1="22" y1="48" x2="27" y2="43" id="Fill-80" fill="#7DAD55"></line>
                    <polyline id="Fill-81" fill="#4A3428" points="20 47.5060472 26.5847906 43 27 43.4155412 22.4944313 50 20 47.5060472"></polyline>
                    <line x1="22" y1="56" x2="17" y2="51" id="Fill-82" fill="#7DAD55"></line>
                    <polyline id="Fill-83" fill="#4A3428" points="20.5056944 58 16 51.4155412 16.415894 51 23 55.5060472 20.5056944 58"></polyline>
                    <line x1="22" y1="40" x2="17" y2="35" id="Fill-84" fill="#7DAD55"></line>
                    <polyline id="Fill-85" fill="#4A3428" points="20.5056944 41 16 34.4155412 16.415894 34 23 38.5060472 20.5056944 41"></polyline>
                </g>
                <g id="bush-svgrepo-com" transform="translate(0.000000, 79.000000)" fill-rule="nonzero">
                    <g id="Group" transform="translate(1.000000, 0.000000)">
                        <path d="M21.5803744,7.2350812 C21.6002544,7.07559485 21.6116398,6.91342255 21.6116398,6.7485046 C21.6116398,5.07264456 20.5551646,3.64693694 19.0795562,3.11457965 C18.6047352,1.83683858 17.3863289,0.92743218 15.9576186,0.92743218 C15.5183694,0.92743218 15.0994132,1.01415885 14.7153208,1.17030266 C14.3312874,1.01415885 13.9123312,0.92743218 13.473082,0.92743218 C12.7935022,0.92743218 12.1617644,1.13353485 11.6346771,1.48670876 C11.0353255,0.589717463 10.0207342,8.48217529e-16 8.87004986,8.48217529e-16 C7.18048004,8.48217529e-16 5.78545377,1.27153351 5.56612412,2.92017582 C3.92905655,3.13511232 2.66428308,4.55019548 2.66428308,6.26521085 C2.66428308,6.36817265 2.66959229,6.4699407 2.67849998,6.57051498 C1.12974239,7.03685734 8.38316795e-16,8.4877533 8.38316795e-16,10.20635 C8.38316795e-16,12.3015779 1.67865643,14 3.74936905,14 L3.74942804,14 L19.250572,14 C21.3212846,14 23,12.3015779 23,10.20635 C23,9.00226388 22.4449509,7.9300883 21.5803744,7.2350812 Z" id="Path" fill="#00953A"></path>
                        <path d="M11.6347361,1.48670876 C11.0353845,0.589717463 10.0207932,0 8.87010885,0 C7.18053903,0 5.78551276,1.27153351 5.56618311,2.92017582 C3.92911554,3.13511232 2.66434207,4.55019548 2.66434207,6.26521085 C2.66434207,6.36817265 2.66965128,6.4699407 2.67855897,6.57051498 C1.12980138,7.03685734 5.89913001e-05,8.4877533 5.89913001e-05,10.20635 C5.89913001e-05,12.3015779 1.67871543,14 3.74942804,14 L11.6770329,14 L11.6770329,1.45949103 C11.662934,1.4686233 11.6486581,1.47739743 11.6347361,1.48670876 Z" id="Path" fill="#222222" opacity="0.2"></path>
                        <g transform="translate(15.494773, 3.579669)">
                            <path d="M3.75279054,1.89849629 C3.75279054,0.850016841 2.91251847,0 1.87651326,0 C0.840036113,0 0,0.850016841 0,1.89849629 C0,2.94703542 0.839977122,3.79705227 1.87651326,3.79705227 C2.91251847,3.79705227 3.75279054,2.94703542 3.75279054,1.89849629 Z" id="Path" fill="#FFFFFF"></path>
                            <ellipse id="Oval" fill="#FF9500" cx="1.87639527" cy="1.89849629" rx="1" ry="1"></ellipse>
                            <path d="M1.87651326,0 C0.840036113,0 0,0.850016841 0,1.89849629 C0,2.94703542 0.839977122,3.79705227 1.87651326,3.79705227 L1.87651326,0 Z" id="Path" fill="#222222" opacity="0.2"></path>
                        </g>
                        <path d="M15.757933,5.11926089 C15.541376,5.11926089 15.3287123,5.13573478 15.1205321,5.1664741 C14.3504596,3.88652458 12.9586189,3.03167301 11.3692753,3.03167301 C10.7764717,3.03167301 10.211394,3.15128777 9.69557411,3.36688083 C8.89641897,2.52074371 7.77104194,1.99280333 6.52308099,1.99280333 C6.27744121,1.99280333 6.03663873,2.01345538 5.80197134,2.05273009 C5.68717427,2.32538488 5.60653316,2.6163042 5.56612412,2.92017582 C3.92905655,3.13511232 2.66428308,4.55019548 2.66428308,6.26521085 C2.66428308,6.36817265 2.66959229,6.4699407 2.67849998,6.57051498 C1.12974239,7.03685734 4.19158397e-15,8.4877533 4.19158397e-15,10.20635 C4.19158397e-15,12.3015779 1.67865643,14 3.74936905,14 L15.7578741,14 C18.1815906,14 20.1464138,12.0119717 20.1464138,9.55963045 C20.1464138,7.10728918 18.1816496,5.11926089 15.757933,5.11926089 Z" id="Path" fill="#222222" opacity="0.2"></path>
                    </g>
                    <g id="Group" transform="translate(0.000000, 3.000000)">
                        <path d="M17.4893941,2.86421527 C17.2668305,2.86421527 17.04821,2.87934237 16.8342835,2.90745169 C16.0427307,1.73487546 14.6121524,0.951765684 12.9786005,0.951765684 C12.3693045,0.951765684 11.788486,1.06132429 11.2583015,1.25882329 C10.4369566,0.483672171 9.28020165,0 7.99745664,0 C5.94174746,0 4.20849265,1.24064819 3.66485161,2.93663345 C1.57816127,3.29381369 0,4.94633676 0,6.93210763 C0,9.17876459 2.01947062,11 4.51066844,11 L17.4893316,11 C19.9805294,11 22,9.17870814 22,6.93210763 C22,4.68550713 19.9805294,2.86421527 17.4893941,2.86421527 Z" id="Path" fill="#77BC1F"></path>
                        <path d="M7.99745664,0 C5.94174746,0 4.20849265,1.24064819 3.66485161,2.93663345 C1.57816127,3.29381369 0,4.94633676 0,6.93210763 C0,9.17876459 2.01947062,11 4.51066844,11 L10.7010162,11 L10.7010162,0.813984873 C9.94764213,0.303614495 9.01238677,0 7.99745664,0 Z" id="Path" fill="#218649" opacity="0.5"></path>
                        <g transform="translate(15.602485, 5.259716)">
                            <path d="M3.98161045,1.79532743 C3.98161045,0.803824879 3.09010424,0 1.9909304,0 C0.891255861,0 0,0.803824879 0,1.79532743 C0,2.78688642 0.891193272,3.5907113 1.9909304,3.5907113 C3.09010424,3.5907113 3.98161045,2.78688642 3.98161045,1.79532743 Z" id="Path" fill="#FFFFFF"></path>
                            <ellipse id="Oval" fill="#FF9500" cx="1.99086781" cy="1.79532743" rx="1" ry="1"></ellipse>
                            <path d="M1.99099299,0 C0.891318449,0 6.25881921e-05,0.803824879 6.25881921e-05,1.79532743 C6.25881921e-05,2.78688642 0.891255861,3.5907113 1.99099299,3.5907113 L1.99099299,0 Z" id="Path" fill="#222222" opacity="0.2"></path>
                        </g>
                        <g transform="translate(2.378351, 5.374581)">
                            <path d="M3.98161045,1.79532743 C3.98161045,0.803824879 3.09010424,0 1.9909304,0 C0.891255861,0 0,0.803824879 0,1.79532743 C0,2.78688642 0.891193272,3.5907113 1.9909304,3.5907113 C3.09010424,3.5907113 3.98161045,2.78688642 3.98161045,1.79532743 Z" id="Path" fill="#FFFFFF"></path>
                            <ellipse id="Oval" fill="#FF9500" cx="1.99086781" cy="1.79532743" rx="1" ry="1"></ellipse>
                            <path d="M1.99099299,0 C0.891318449,0 6.25881926e-05,0.803824879 6.25881926e-05,1.79532743 C6.25881926e-05,2.78688642 0.891255861,3.5907113 1.99099299,3.5907113 L1.99099299,0 Z" id="Path" fill="#222222" opacity="0.2"></path>
                        </g>
                        <g transform="translate(9.009257, 2.941318)">
                            <path d="M3.98161045,1.79532743 C3.98161045,0.803824879 3.09010424,0 1.9909304,0 C0.891255861,0 0,0.803824879 0,1.79532743 C0,2.78688642 0.891193272,3.5907113 1.9909304,3.5907113 C3.09004165,3.59076775 3.98161045,2.78694287 3.98161045,1.79532743 Z" id="Path" fill="#FFFFFF"></path>
                            <ellipse id="Oval" fill="#FF9500" cx="1.99080523" cy="1.79532743" rx="1" ry="1"></ellipse>
                            <path d="M1.9909304,0 C0.891255861,0 0,0.803824879 0,1.79532743 C0,2.78688642 0.891193272,3.5907113 1.9909304,3.5907113 L1.9909304,0 Z" id="Path" fill="#222222" opacity="0.2"></path>
                        </g>
                    </g>
                </g>
                <g id="bush-svgrepo-com" transform="translate(73.000000, 58.000000)" fill-rule="nonzero">
                    <g id="Group" transform="translate(1.000000, 0.000000)">
                        <path d="M21.5803744,7.2350812 C21.6002544,7.07559485 21.6116398,6.91342255 21.6116398,6.7485046 C21.6116398,5.07264456 20.5551646,3.64693694 19.0795562,3.11457965 C18.6047352,1.83683858 17.3863289,0.92743218 15.9576186,0.92743218 C15.5183694,0.92743218 15.0994132,1.01415885 14.7153208,1.17030266 C14.3312874,1.01415885 13.9123312,0.92743218 13.473082,0.92743218 C12.7935022,0.92743218 12.1617644,1.13353485 11.6346771,1.48670876 C11.0353255,0.589717463 10.0207342,8.48217529e-16 8.87004986,8.48217529e-16 C7.18048004,8.48217529e-16 5.78545377,1.27153351 5.56612412,2.92017582 C3.92905655,3.13511232 2.66428308,4.55019548 2.66428308,6.26521085 C2.66428308,6.36817265 2.66959229,6.4699407 2.67849998,6.57051498 C1.12974239,7.03685734 8.38316795e-16,8.4877533 8.38316795e-16,10.20635 C8.38316795e-16,12.3015779 1.67865643,14 3.74936905,14 L3.74942804,14 L19.250572,14 C21.3212846,14 23,12.3015779 23,10.20635 C23,9.00226388 22.4449509,7.9300883 21.5803744,7.2350812 Z" id="Path" fill="#00953A"></path>
                        <path d="M11.6347361,1.48670876 C11.0353845,0.589717463 10.0207932,0 8.87010885,0 C7.18053903,0 5.78551276,1.27153351 5.56618311,2.92017582 C3.92911554,3.13511232 2.66434207,4.55019548 2.66434207,6.26521085 C2.66434207,6.36817265 2.66965128,6.4699407 2.67855897,6.57051498 C1.12980138,7.03685734 5.89913001e-05,8.4877533 5.89913001e-05,10.20635 C5.89913001e-05,12.3015779 1.67871543,14 3.74942804,14 L11.6770329,14 L11.6770329,1.45949103 C11.662934,1.4686233 11.6486581,1.47739743 11.6347361,1.48670876 Z" id="Path" fill="#222222" opacity="0.2"></path>
                        <g transform="translate(15.494773, 3.579669)">
                            <path d="M3.75279054,1.89849629 C3.75279054,0.850016841 2.91251847,0 1.87651326,0 C0.840036113,0 0,0.850016841 0,1.89849629 C0,2.94703542 0.839977122,3.79705227 1.87651326,3.79705227 C2.91251847,3.79705227 3.75279054,2.94703542 3.75279054,1.89849629 Z" id="Path" fill="#FFFFFF"></path>
                            <ellipse id="Oval" fill="#FF9500" cx="1.87639527" cy="1.89849629" rx="1" ry="1"></ellipse>
                            <path d="M1.87651326,0 C0.840036113,0 0,0.850016841 0,1.89849629 C0,2.94703542 0.839977122,3.79705227 1.87651326,3.79705227 L1.87651326,0 Z" id="Path" fill="#222222" opacity="0.2"></path>
                        </g>
                        <path d="M15.757933,5.11926089 C15.541376,5.11926089 15.3287123,5.13573478 15.1205321,5.1664741 C14.3504596,3.88652458 12.9586189,3.03167301 11.3692753,3.03167301 C10.7764717,3.03167301 10.211394,3.15128777 9.69557411,3.36688083 C8.89641897,2.52074371 7.77104194,1.99280333 6.52308099,1.99280333 C6.27744121,1.99280333 6.03663873,2.01345538 5.80197134,2.05273009 C5.68717427,2.32538488 5.60653316,2.6163042 5.56612412,2.92017582 C3.92905655,3.13511232 2.66428308,4.55019548 2.66428308,6.26521085 C2.66428308,6.36817265 2.66959229,6.4699407 2.67849998,6.57051498 C1.12974239,7.03685734 4.19158397e-15,8.4877533 4.19158397e-15,10.20635 C4.19158397e-15,12.3015779 1.67865643,14 3.74936905,14 L15.7578741,14 C18.1815906,14 20.1464138,12.0119717 20.1464138,9.55963045 C20.1464138,7.10728918 18.1816496,5.11926089 15.757933,5.11926089 Z" id="Path" fill="#222222" opacity="0.2"></path>
                    </g>
                    <g id="Group" transform="translate(0.000000, 3.000000)">
                        <path d="M17.4893941,2.86421527 C17.2668305,2.86421527 17.04821,2.87934237 16.8342835,2.90745169 C16.0427307,1.73487546 14.6121524,0.951765684 12.9786005,0.951765684 C12.3693045,0.951765684 11.788486,1.06132429 11.2583015,1.25882329 C10.4369566,0.483672171 9.28020165,0 7.99745664,0 C5.94174746,0 4.20849265,1.24064819 3.66485161,2.93663345 C1.57816127,3.29381369 0,4.94633676 0,6.93210763 C0,9.17876459 2.01947062,11 4.51066844,11 L17.4893316,11 C19.9805294,11 22,9.17870814 22,6.93210763 C22,4.68550713 19.9805294,2.86421527 17.4893941,2.86421527 Z" id="Path" fill="#77BC1F"></path>
                        <path d="M7.99745664,0 C5.94174746,0 4.20849265,1.24064819 3.66485161,2.93663345 C1.57816127,3.29381369 0,4.94633676 0,6.93210763 C0,9.17876459 2.01947062,11 4.51066844,11 L10.7010162,11 L10.7010162,0.813984873 C9.94764213,0.303614495 9.01238677,0 7.99745664,0 Z" id="Path" fill="#218649" opacity="0.5"></path>
                        <g transform="translate(15.602485, 5.259716)">
                            <path d="M3.98161045,1.79532743 C3.98161045,0.803824879 3.09010424,0 1.9909304,0 C0.891255861,0 0,0.803824879 0,1.79532743 C0,2.78688642 0.891193272,3.5907113 1.9909304,3.5907113 C3.09010424,3.5907113 3.98161045,2.78688642 3.98161045,1.79532743 Z" id="Path" fill="#FFFFFF"></path>
                            <ellipse id="Oval" fill="#FF9500" cx="1.99086781" cy="1.79532743" rx="1" ry="1"></ellipse>
                            <path d="M1.99099299,0 C0.891318449,0 6.25881921e-05,0.803824879 6.25881921e-05,1.79532743 C6.25881921e-05,2.78688642 0.891255861,3.5907113 1.99099299,3.5907113 L1.99099299,0 Z" id="Path" fill="#222222" opacity="0.2"></path>
                        </g>
                        <g transform="translate(2.378351, 5.374581)">
                            <path d="M3.98161045,1.79532743 C3.98161045,0.803824879 3.09010424,0 1.9909304,0 C0.891255861,0 0,0.803824879 0,1.79532743 C0,2.78688642 0.891193272,3.5907113 1.9909304,3.5907113 C3.09010424,3.5907113 3.98161045,2.78688642 3.98161045,1.79532743 Z" id="Path" fill="#FFFFFF"></path>
                            <ellipse id="Oval" fill="#FF9500" cx="1.99086781" cy="1.79532743" rx="1" ry="1"></ellipse>
                            <path d="M1.99099299,0 C0.891318449,0 6.25881926e-05,0.803824879 6.25881926e-05,1.79532743 C6.25881926e-05,2.78688642 0.891255861,3.5907113 1.99099299,3.5907113 L1.99099299,0 Z" id="Path" fill="#222222" opacity="0.2"></path>
                        </g>
                        <g transform="translate(9.009257, 2.941318)">
                            <path d="M3.98161045,1.79532743 C3.98161045,0.803824879 3.09010424,0 1.9909304,0 C0.891255861,0 0,0.803824879 0,1.79532743 C0,2.78688642 0.891193272,3.5907113 1.9909304,3.5907113 C3.09004165,3.59076775 3.98161045,2.78694287 3.98161045,1.79532743 Z" id="Path" fill="#FFFFFF"></path>
                            <ellipse id="Oval" fill="#FF9500" cx="1.99080523" cy="1.79532743" rx="1" ry="1"></ellipse>
                            <path d="M1.9909304,0 C0.891255861,0 0,0.803824879 0,1.79532743 C0,2.78688642 0.891193272,3.5907113 1.9909304,3.5907113 L1.9909304,0 Z" id="Path" fill="#222222" opacity="0.2"></path>
                        </g>
                    </g>
                </g>
                <g id="bush-svgrepo-com" transform="translate(49.000000, 86.000000)" fill-rule="nonzero">
                    <g id="Group" transform="translate(1.000000, 0.000000)">
                        <path d="M21.5803744,7.2350812 C21.6002544,7.07559485 21.6116398,6.91342255 21.6116398,6.7485046 C21.6116398,5.07264456 20.5551646,3.64693694 19.0795562,3.11457965 C18.6047352,1.83683858 17.3863289,0.92743218 15.9576186,0.92743218 C15.5183694,0.92743218 15.0994132,1.01415885 14.7153208,1.17030266 C14.3312874,1.01415885 13.9123312,0.92743218 13.473082,0.92743218 C12.7935022,0.92743218 12.1617644,1.13353485 11.6346771,1.48670876 C11.0353255,0.589717463 10.0207342,8.48217529e-16 8.87004986,8.48217529e-16 C7.18048004,8.48217529e-16 5.78545377,1.27153351 5.56612412,2.92017582 C3.92905655,3.13511232 2.66428308,4.55019548 2.66428308,6.26521085 C2.66428308,6.36817265 2.66959229,6.4699407 2.67849998,6.57051498 C1.12974239,7.03685734 8.38316795e-16,8.4877533 8.38316795e-16,10.20635 C8.38316795e-16,12.3015779 1.67865643,14 3.74936905,14 L3.74942804,14 L19.250572,14 C21.3212846,14 23,12.3015779 23,10.20635 C23,9.00226388 22.4449509,7.9300883 21.5803744,7.2350812 Z" id="Path" fill="#00953A"></path>
                        <path d="M11.6347361,1.48670876 C11.0353845,0.589717463 10.0207932,0 8.87010885,0 C7.18053903,0 5.78551276,1.27153351 5.56618311,2.92017582 C3.92911554,3.13511232 2.66434207,4.55019548 2.66434207,6.26521085 C2.66434207,6.36817265 2.66965128,6.4699407 2.67855897,6.57051498 C1.12980138,7.03685734 5.89913001e-05,8.4877533 5.89913001e-05,10.20635 C5.89913001e-05,12.3015779 1.67871543,14 3.74942804,14 L11.6770329,14 L11.6770329,1.45949103 C11.662934,1.4686233 11.6486581,1.47739743 11.6347361,1.48670876 Z" id="Path" fill="#222222" opacity="0.2"></path>
                        <g transform="translate(15.494773, 3.579669)">
                            <path d="M3.75279054,1.89849629 C3.75279054,0.850016841 2.91251847,0 1.87651326,0 C0.840036113,0 0,0.850016841 0,1.89849629 C0,2.94703542 0.839977122,3.79705227 1.87651326,3.79705227 C2.91251847,3.79705227 3.75279054,2.94703542 3.75279054,1.89849629 Z" id="Path" fill="#FFFFFF"></path>
                            <ellipse id="Oval" fill="#FF9500" cx="1.87639527" cy="1.89849629" rx="1" ry="1"></ellipse>
                            <path d="M1.87651326,0 C0.840036113,0 0,0.850016841 0,1.89849629 C0,2.94703542 0.839977122,3.79705227 1.87651326,3.79705227 L1.87651326,0 Z" id="Path" fill="#222222" opacity="0.2"></path>
                        </g>
                        <path d="M15.757933,5.11926089 C15.541376,5.11926089 15.3287123,5.13573478 15.1205321,5.1664741 C14.3504596,3.88652458 12.9586189,3.03167301 11.3692753,3.03167301 C10.7764717,3.03167301 10.211394,3.15128777 9.69557411,3.36688083 C8.89641897,2.52074371 7.77104194,1.99280333 6.52308099,1.99280333 C6.27744121,1.99280333 6.03663873,2.01345538 5.80197134,2.05273009 C5.68717427,2.32538488 5.60653316,2.6163042 5.56612412,2.92017582 C3.92905655,3.13511232 2.66428308,4.55019548 2.66428308,6.26521085 C2.66428308,6.36817265 2.66959229,6.4699407 2.67849998,6.57051498 C1.12974239,7.03685734 4.19158397e-15,8.4877533 4.19158397e-15,10.20635 C4.19158397e-15,12.3015779 1.67865643,14 3.74936905,14 L15.7578741,14 C18.1815906,14 20.1464138,12.0119717 20.1464138,9.55963045 C20.1464138,7.10728918 18.1816496,5.11926089 15.757933,5.11926089 Z" id="Path" fill="#222222" opacity="0.2"></path>
                    </g>
                    <g id="Group" transform="translate(0.000000, 3.000000)">
                        <path d="M17.4893941,2.86421527 C17.2668305,2.86421527 17.04821,2.87934237 16.8342835,2.90745169 C16.0427307,1.73487546 14.6121524,0.951765684 12.9786005,0.951765684 C12.3693045,0.951765684 11.788486,1.06132429 11.2583015,1.25882329 C10.4369566,0.483672171 9.28020165,0 7.99745664,0 C5.94174746,0 4.20849265,1.24064819 3.66485161,2.93663345 C1.57816127,3.29381369 0,4.94633676 0,6.93210763 C0,9.17876459 2.01947062,11 4.51066844,11 L17.4893316,11 C19.9805294,11 22,9.17870814 22,6.93210763 C22,4.68550713 19.9805294,2.86421527 17.4893941,2.86421527 Z" id="Path" fill="#77BC1F"></path>
                        <path d="M7.99745664,0 C5.94174746,0 4.20849265,1.24064819 3.66485161,2.93663345 C1.57816127,3.29381369 0,4.94633676 0,6.93210763 C0,9.17876459 2.01947062,11 4.51066844,11 L10.7010162,11 L10.7010162,0.813984873 C9.94764213,0.303614495 9.01238677,0 7.99745664,0 Z" id="Path" fill="#218649" opacity="0.5"></path>
                        <g transform="translate(15.602485, 5.259716)">
                            <path d="M3.98161045,1.79532743 C3.98161045,0.803824879 3.09010424,0 1.9909304,0 C0.891255861,0 0,0.803824879 0,1.79532743 C0,2.78688642 0.891193272,3.5907113 1.9909304,3.5907113 C3.09010424,3.5907113 3.98161045,2.78688642 3.98161045,1.79532743 Z" id="Path" fill="#FFFFFF"></path>
                            <ellipse id="Oval" fill="#FF9500" cx="1.99086781" cy="1.79532743" rx="1" ry="1"></ellipse>
                            <path d="M1.99099299,0 C0.891318449,0 6.25881921e-05,0.803824879 6.25881921e-05,1.79532743 C6.25881921e-05,2.78688642 0.891255861,3.5907113 1.99099299,3.5907113 L1.99099299,0 Z" id="Path" fill="#222222" opacity="0.2"></path>
                        </g>
                        <g transform="translate(2.378351, 5.374581)">
                            <path d="M3.98161045,1.79532743 C3.98161045,0.803824879 3.09010424,0 1.9909304,0 C0.891255861,0 0,0.803824879 0,1.79532743 C0,2.78688642 0.891193272,3.5907113 1.9909304,3.5907113 C3.09010424,3.5907113 3.98161045,2.78688642 3.98161045,1.79532743 Z" id="Path" fill="#FFFFFF"></path>
                            <ellipse id="Oval" fill="#FF9500" cx="1.99086781" cy="1.79532743" rx="1" ry="1"></ellipse>
                            <path d="M1.99099299,0 C0.891318449,0 6.25881926e-05,0.803824879 6.25881926e-05,1.79532743 C6.25881926e-05,2.78688642 0.891255861,3.5907113 1.99099299,3.5907113 L1.99099299,0 Z" id="Path" fill="#222222" opacity="0.2"></path>
                        </g>
                        <g transform="translate(9.009257, 2.941318)">
                            <path d="M3.98161045,1.79532743 C3.98161045,0.803824879 3.09010424,0 1.9909304,0 C0.891255861,0 0,0.803824879 0,1.79532743 C0,2.78688642 0.891193272,3.5907113 1.9909304,3.5907113 C3.09004165,3.59076775 3.98161045,2.78694287 3.98161045,1.79532743 Z" id="Path" fill="#FFFFFF"></path>
                            <ellipse id="Oval" fill="#FF9500" cx="1.99080523" cy="1.79532743" rx="1" ry="1"></ellipse>
                            <path d="M1.9909304,0 C0.891255861,0 0,0.803824879 0,1.79532743 C0,2.78688642 0.891193272,3.5907113 1.9909304,3.5907113 L1.9909304,0 Z" id="Path" fill="#222222" opacity="0.2"></path>
                        </g>
                    </g>
                </g>
            </g>
        </g>
    </g>
</svg>