<?xml version="1.0" encoding="UTF-8"?>
<svg width="92px" height="103px" viewBox="0 0 92 103" version="1.1" xmlns="http://www.w3.org/2000/svg" xmlns:xlink="http://www.w3.org/1999/xlink">
    <title>Group</title>
    <defs>
        <path d="M14.5155843,13.0232376 C10.7829555,13.0232376 7.45159029,12.25322 4.57615887,9.76845995 C1.95410184,7.50311543 0.297881378,4.26587724 0.0308394839,0.84567818 C0.00911166569,0.56470255 0,0.282695187 0,0 C0,0.282695187 0.00911166569,0.56470255 0.0308394839,0.84567818 C0.297881378,4.26587724 1.95410184,7.50311543 4.57615887,9.76845995 C7.45159029,12.25322 10.7829555,13.0232376 14.5155843,13.0232376 C14.5222429,13.0232376 14.5292518,13.0232376 14.5359104,13.0232376 C14.5289014,13.0232376 14.5222429,13.0232376 14.5155843,13.0232376" id="path-1"></path>
    </defs>
    <g id="Page-1" stroke="none" stroke-width="1" fill="none" fill-rule="evenodd">
        <g id="Map/Level" transform="translate(-33.000000, -102.000000)">
            <g id="Group" transform="translate(33.000000, 102.000000)">
                <ellipse id="Oval" fill="#60A625" cx="46" cy="74.5" rx="10" ry="5.5"></ellipse>
                <g id="Group-4" transform="translate(13.000000, 0.000000)">
                    <path d="M56.6986476,35.3339596 C58.9629175,32.50476 60.2328474,28.8201082 59.964528,25.3081419 C59.6899766,21.7191953 57.9869272,18.3220059 55.2912689,15.9449789 C54.7179308,15.4394056 54.1269356,15.0035306 53.5189757,14.625911 C53.5390564,14.2794997 53.5397488,13.933435 53.5134362,13.5901445 C53.142636,8.73830479 49.0451385,5.81339999 44.4511635,5.81339999 C43.8979061,5.81339999 43.3612672,5.88379189 42.8450552,6.0120924 C42.1868936,4.95864121 41.3781269,3.99777444 40.4398744,3.17006279 C37.6950531,0.750037828 34.5153811,0 30.9534838,0 C27.0384435,0 23.6510404,2.25704865 21.5069084,5.39694348 C20.3370357,5.15039846 19.113499,5.0498386 17.838722,5.0498386 C11.5022286,5.0498386 6.60565845,11.22248 6.46855587,17.2193151 C6.31171883,17.3157138 6.15384313,17.3323582 6.00116071,17.4353454 L5.9935439,17.3614859 C5.04075022,18.0550021 4.1707028,18.8497718 3.38270919,19.7381661 C0.978567,22.4730474 -0.238737715,26.1791983 0.0389296294,29.8125299 C0.308287726,33.3314314 1.97775398,36.6814617 4.62113324,39.0116763 L4.62321055,39.0234661 C5.6182429,39.7589401 6.52187354,40.3570978 7.49128571,40.9573361 L7.54668069,40.9965198 L7.56329919,41.0051888 C7.6470841,41.056509 7.72740682,41.1085227 7.81223038,41.1605364 L7.89843882,41.1993733 C7.89186067,41.5717915 7.89843882,41.9442098 7.92648253,42.3138539 C8.19030113,45.7623635 9.82653039,49.0263978 12.4169382,51.3104935 C15.2576621,53.815821 18.5488164,54.5922124 22.2363911,54.5922124 C24.0568087,54.5922124 25.7678211,54.1206214 27.3008773,53.3064333 C29.5170227,54.5675926 31.9741364,55 34.6514451,55 C36.8416241,55 38.8635409,54.2825574 40.5904795,53.0973382 C42.48845,53.9188082 44.5494896,54.2163266 46.7621728,54.2163266 C53.6328816,54.2163266 58.8486653,47.1161072 58.3553038,40.6629385 C58.2112768,38.7796951 57.6323993,36.9560941 56.6986476,35.3339596" id="Fill-26" fill="#E89D0F"></path>
                    <polyline id="Fill-27" fill="#7DAD55" points="5.9999 17.99995 5.9999 18.00005 6.0001 17.99995 5.9999 17.99995"></polyline>
                    <g id="Group-30" transform="translate(8.000000, 41.976762)">
                        <mask id="mask-2" fill="white">
                            <use xlink:href="#path-1"></use>
                        </mask>
                        <g id="Clip-29"></g>
                        <path d="M14.5155843,13.0232376 C10.7829555,13.0232376 7.45159029,12.25322 4.57615887,9.76845995 C1.95410184,7.50311543 0.297881378,4.26587724 0.0308394839,0.84567818 C0.00911166569,0.56470255 0,0.282695187 0,-2.16715534e-13 C0,0.282695187 0.00911166569,0.56470255 0.0308394839,0.84567818 C0.297881378,4.26587724 1.95410184,7.50311543 4.57615887,9.76845995 C7.45159029,12.25322 10.7829555,13.0232376 14.5155843,13.0232376 C14.5222429,13.0232376 14.5292518,13.0232376 14.5359104,13.0232376 C14.5289014,13.0232376 14.5222429,13.0232376 14.5155843,13.0232376" id="Fill-28" mask="url(#mask-2)"></path>
                    </g>
                    <path d="M22.5095402,55 C18.7766421,55 15.4450367,54.2178091 12.5693979,51.6937676 C9.94715179,49.3926103 8.29081188,46.1041947 8.02375072,42.6299258 C8.00202134,42.3445082 7.99290902,42.0580426 7.99290902,41.7708783 C7.99290902,41.6831919 7.99396044,41.5951561 7.99536233,41.5071204 L7.90809432,41.4679933 C7.8222282,41.4155911 7.74091824,41.3631889 7.65610354,41.3114853 L7.63928079,41.3027516 L7.58320496,41.2632752 C6.60187789,40.6585533 5.68714087,40.0559275 4.67987872,39.3149597 L4.67777588,39.3030819 C2.00190723,36.9554613 0.31192182,33.5804073 0.0392530829,30.0352207 C0.0129675363,29.6921606 0,29.3484019 0,29.0046432 C0,25.6830395 1.21859794,22.382746 3.42413054,19.8856043 C4.22180926,18.9905739 5.10255031,18.1898676 6.06705463,17.491171 L6.07476506,17.5655822 C6.22932407,17.4618258 6.3891402,17.445057 6.5479049,17.3479382 C6.68669259,11.3063086 11.6434457,5.08755939 18.0578201,5.08755939 C19.3482652,5.08755939 20.5868401,5.1888704 21.7710916,5.43725704 C23.9415768,2.27390813 27.370614,0 31.3337735,0 C34.9394495,0 38.1582023,0.755640387 40.9367598,3.19374222 C40.9437693,3.20003049 40.9507788,3.20631876 40.9577883,3.21225768 C40.9591902,3.21365507 40.9609425,3.21505247 40.9623444,3.21644986 C40.9676015,3.22099139 40.9725082,3.22553291 40.9774148,3.23007444 C40.9805691,3.23251988 40.9837233,3.23531467 40.9868776,3.23810945 C40.9896814,3.24055489 40.9924852,3.24300033 40.995289,3.24544577 C41.7540651,3.92003735 42.4224189,4.68441144 43,5.51027084 C42.8058374,5.72931223 42.6176329,5.95394319 42.435036,6.18276633 C41.9927379,6.14643411 41.5483369,6.12128103 41.0979778,6.12128103 C35.4150427,6.12128103 30.3209037,9.07921314 27.3029725,13.5106964 C18.455608,13.7706116 11.1580393,21.1949618 11.1580393,30.0673607 C11.1580393,34.5879278 13.052351,38.7336441 16.0807965,41.7478213 C17.398929,47.4362598 21.7153662,52.0860858 27.2304244,53.9009502 C25.8064487,54.5856729 24.2443863,54.9874235 22.5883969,55 C22.5880464,55 22.5880464,55 22.5876959,55 C22.5813874,55 22.5757798,55 22.5694713,55 C22.5677189,55 22.5659665,55 22.5642142,55 C22.559658,55 22.5547514,55 22.5498447,55 C22.5466905,55 22.5431857,55 22.539681,55 C22.5365267,55 22.533022,55 22.5298677,55 C22.5232087,55 22.5161992,55 22.5095402,55" id="Fill-31" fill="#8D600F"></path>
                    <polyline id="Fill-32" fill="#4B793A" points="5.9999 18.00005 5.9999 17.99995 6.0001 17.99995 5.9999 18.00005"></polyline>
                    <line x1="33" y1="75" x2="33" y2="40" id="Fill-33" fill="#7DAD55"></line>
                    <polyline id="Fill-34" fill="#4A3428" points="29 75 32.3333333 40 33.6666667 40 37 75 29 75"></polyline>
                    <line x1="34" y1="52" x2="39" y2="47" id="Fill-35" fill="#7DAD55"></line>
                    <polyline id="Fill-36" fill="#4A3428" points="32 50.5060472 38.5847906 46 39 46.4155412 34.4940785 53 32 50.5060472"></polyline>
                    <line x1="33" y1="59" x2="28" y2="54" id="Fill-37" fill="#7DAD55"></line>
                    <polyline id="Fill-38" fill="#4A3428" points="32.5059215 61 28 54.4155412 28.4155622 54 35 58.5060472 32.5059215 61"></polyline>
                </g>
                <g id="bush-svgrepo-com" transform="translate(0.000000, 66.000000)" fill-rule="nonzero">
                    <g id="Group" transform="translate(1.000000, 0.000000)">
                        <path d="M21.5803744,7.2350812 C21.6002544,7.07559485 21.6116398,6.91342255 21.6116398,6.7485046 C21.6116398,5.07264456 20.5551646,3.64693694 19.0795562,3.11457965 C18.6047352,1.83683858 17.3863289,0.92743218 15.9576186,0.92743218 C15.5183694,0.92743218 15.0994132,1.01415885 14.7153208,1.17030266 C14.3312874,1.01415885 13.9123312,0.92743218 13.473082,0.92743218 C12.7935022,0.92743218 12.1617644,1.13353485 11.6346771,1.48670876 C11.0353255,0.589717463 10.0207342,8.48217529e-16 8.87004986,8.48217529e-16 C7.18048004,8.48217529e-16 5.78545377,1.27153351 5.56612412,2.92017582 C3.92905655,3.13511232 2.66428308,4.55019548 2.66428308,6.26521085 C2.66428308,6.36817265 2.66959229,6.4699407 2.67849998,6.57051498 C1.12974239,7.03685734 8.38316795e-16,8.4877533 8.38316795e-16,10.20635 C8.38316795e-16,12.3015779 1.67865643,14 3.74936905,14 L3.74942804,14 L19.250572,14 C21.3212846,14 23,12.3015779 23,10.20635 C23,9.00226388 22.4449509,7.9300883 21.5803744,7.2350812 Z" id="Path" fill="#00953A"></path>
                        <path d="M11.6347361,1.48670876 C11.0353845,0.589717463 10.0207932,0 8.87010885,0 C7.18053903,0 5.78551276,1.27153351 5.56618311,2.92017582 C3.92911554,3.13511232 2.66434207,4.55019548 2.66434207,6.26521085 C2.66434207,6.36817265 2.66965128,6.4699407 2.67855897,6.57051498 C1.12980138,7.03685734 5.89913001e-05,8.4877533 5.89913001e-05,10.20635 C5.89913001e-05,12.3015779 1.67871543,14 3.74942804,14 L11.6770329,14 L11.6770329,1.45949103 C11.662934,1.4686233 11.6486581,1.47739743 11.6347361,1.48670876 Z" id="Path" fill="#222222" opacity="0.2"></path>
                        <g transform="translate(15.494773, 3.579669)">
                            <path d="M3.75279054,1.89849629 C3.75279054,0.850016841 2.91251847,0 1.87651326,0 C0.840036113,0 0,0.850016841 0,1.89849629 C0,2.94703542 0.839977122,3.79705227 1.87651326,3.79705227 C2.91251847,3.79705227 3.75279054,2.94703542 3.75279054,1.89849629 Z" id="Path" fill="#FFFFFF"></path>
                            <ellipse id="Oval" fill="#FF9500" cx="1.87639527" cy="1.89849629" rx="1" ry="1"></ellipse>
                            <path d="M1.87651326,0 C0.840036113,0 0,0.850016841 0,1.89849629 C0,2.94703542 0.839977122,3.79705227 1.87651326,3.79705227 L1.87651326,0 Z" id="Path" fill="#222222" opacity="0.2"></path>
                        </g>
                        <path d="M15.757933,5.11926089 C15.541376,5.11926089 15.3287123,5.13573478 15.1205321,5.1664741 C14.3504596,3.88652458 12.9586189,3.03167301 11.3692753,3.03167301 C10.7764717,3.03167301 10.211394,3.15128777 9.69557411,3.36688083 C8.89641897,2.52074371 7.77104194,1.99280333 6.52308099,1.99280333 C6.27744121,1.99280333 6.03663873,2.01345538 5.80197134,2.05273009 C5.68717427,2.32538488 5.60653316,2.6163042 5.56612412,2.92017582 C3.92905655,3.13511232 2.66428308,4.55019548 2.66428308,6.26521085 C2.66428308,6.36817265 2.66959229,6.4699407 2.67849998,6.57051498 C1.12974239,7.03685734 4.19158397e-15,8.4877533 4.19158397e-15,10.20635 C4.19158397e-15,12.3015779 1.67865643,14 3.74936905,14 L15.7578741,14 C18.1815906,14 20.1464138,12.0119717 20.1464138,9.55963045 C20.1464138,7.10728918 18.1816496,5.11926089 15.757933,5.11926089 Z" id="Path" fill="#222222" opacity="0.2"></path>
                    </g>
                    <g id="Group" transform="translate(0.000000, 3.000000)">
                        <path d="M17.4893941,2.86421527 C17.2668305,2.86421527 17.04821,2.87934237 16.8342835,2.90745169 C16.0427307,1.73487546 14.6121524,0.951765684 12.9786005,0.951765684 C12.3693045,0.951765684 11.788486,1.06132429 11.2583015,1.25882329 C10.4369566,0.483672171 9.28020165,0 7.99745664,0 C5.94174746,0 4.20849265,1.24064819 3.66485161,2.93663345 C1.57816127,3.29381369 0,4.94633676 0,6.93210763 C0,9.17876459 2.01947062,11 4.51066844,11 L17.4893316,11 C19.9805294,11 22,9.17870814 22,6.93210763 C22,4.68550713 19.9805294,2.86421527 17.4893941,2.86421527 Z" id="Path" fill="#77BC1F"></path>
                        <path d="M7.99745664,0 C5.94174746,0 4.20849265,1.24064819 3.66485161,2.93663345 C1.57816127,3.29381369 0,4.94633676 0,6.93210763 C0,9.17876459 2.01947062,11 4.51066844,11 L10.7010162,11 L10.7010162,0.813984873 C9.94764213,0.303614495 9.01238677,0 7.99745664,0 Z" id="Path" fill="#218649" opacity="0.5"></path>
                        <g transform="translate(15.602485, 5.259716)">
                            <path d="M3.98161045,1.79532743 C3.98161045,0.803824879 3.09010424,0 1.9909304,0 C0.891255861,0 0,0.803824879 0,1.79532743 C0,2.78688642 0.891193272,3.5907113 1.9909304,3.5907113 C3.09010424,3.5907113 3.98161045,2.78688642 3.98161045,1.79532743 Z" id="Path" fill="#FFFFFF"></path>
                            <ellipse id="Oval" fill="#FF9500" cx="1.99086781" cy="1.79532743" rx="1" ry="1"></ellipse>
                            <path d="M1.99099299,0 C0.891318449,0 6.25881921e-05,0.803824879 6.25881921e-05,1.79532743 C6.25881921e-05,2.78688642 0.891255861,3.5907113 1.99099299,3.5907113 L1.99099299,0 Z" id="Path" fill="#222222" opacity="0.2"></path>
                        </g>
                        <g transform="translate(2.378351, 5.374581)">
                            <path d="M3.98161045,1.79532743 C3.98161045,0.803824879 3.09010424,0 1.9909304,0 C0.891255861,0 0,0.803824879 0,1.79532743 C0,2.78688642 0.891193272,3.5907113 1.9909304,3.5907113 C3.09010424,3.5907113 3.98161045,2.78688642 3.98161045,1.79532743 Z" id="Path" fill="#FFFFFF"></path>
                            <ellipse id="Oval" fill="#FF9500" cx="1.99086781" cy="1.79532743" rx="1" ry="1"></ellipse>
                            <path d="M1.99099299,0 C0.891318449,0 6.25881926e-05,0.803824879 6.25881926e-05,1.79532743 C6.25881926e-05,2.78688642 0.891255861,3.5907113 1.99099299,3.5907113 L1.99099299,0 Z" id="Path" fill="#222222" opacity="0.2"></path>
                        </g>
                        <g transform="translate(9.009257, 2.941318)">
                            <path d="M3.98161045,1.79532743 C3.98161045,0.803824879 3.09010424,0 1.9909304,0 C0.891255861,0 0,0.803824879 0,1.79532743 C0,2.78688642 0.891193272,3.5907113 1.9909304,3.5907113 C3.09004165,3.59076775 3.98161045,2.78694287 3.98161045,1.79532743 Z" id="Path" fill="#FFFFFF"></path>
                            <ellipse id="Oval" fill="#FF9500" cx="1.99080523" cy="1.79532743" rx="1" ry="1"></ellipse>
                            <path d="M1.9909304,0 C0.891255861,0 0,0.803824879 0,1.79532743 C0,2.78688642 0.891193272,3.5907113 1.9909304,3.5907113 L1.9909304,0 Z" id="Path" fill="#222222" opacity="0.2"></path>
                        </g>
                    </g>
                </g>
                <g id="bush-svgrepo-com" transform="translate(31.000000, 89.000000)" fill-rule="nonzero">
                    <g id="Group" transform="translate(1.000000, 0.000000)">
                        <path d="M21.5803744,7.2350812 C21.6002544,7.07559485 21.6116398,6.91342255 21.6116398,6.7485046 C21.6116398,5.07264456 20.5551646,3.64693694 19.0795562,3.11457965 C18.6047352,1.83683858 17.3863289,0.92743218 15.9576186,0.92743218 C15.5183694,0.92743218 15.0994132,1.01415885 14.7153208,1.17030266 C14.3312874,1.01415885 13.9123312,0.92743218 13.473082,0.92743218 C12.7935022,0.92743218 12.1617644,1.13353485 11.6346771,1.48670876 C11.0353255,0.589717463 10.0207342,8.48217529e-16 8.87004986,8.48217529e-16 C7.18048004,8.48217529e-16 5.78545377,1.27153351 5.56612412,2.92017582 C3.92905655,3.13511232 2.66428308,4.55019548 2.66428308,6.26521085 C2.66428308,6.36817265 2.66959229,6.4699407 2.67849998,6.57051498 C1.12974239,7.03685734 8.38316795e-16,8.4877533 8.38316795e-16,10.20635 C8.38316795e-16,12.3015779 1.67865643,14 3.74936905,14 L3.74942804,14 L19.250572,14 C21.3212846,14 23,12.3015779 23,10.20635 C23,9.00226388 22.4449509,7.9300883 21.5803744,7.2350812 Z" id="Path" fill="#00953A"></path>
                        <path d="M11.6347361,1.48670876 C11.0353845,0.589717463 10.0207932,0 8.87010885,0 C7.18053903,0 5.78551276,1.27153351 5.56618311,2.92017582 C3.92911554,3.13511232 2.66434207,4.55019548 2.66434207,6.26521085 C2.66434207,6.36817265 2.66965128,6.4699407 2.67855897,6.57051498 C1.12980138,7.03685734 5.89913001e-05,8.4877533 5.89913001e-05,10.20635 C5.89913001e-05,12.3015779 1.67871543,14 3.74942804,14 L11.6770329,14 L11.6770329,1.45949103 C11.662934,1.4686233 11.6486581,1.47739743 11.6347361,1.48670876 Z" id="Path" fill="#222222" opacity="0.2"></path>
                        <g transform="translate(15.494773, 3.579669)">
                            <path d="M3.75279054,1.89849629 C3.75279054,0.850016841 2.91251847,0 1.87651326,0 C0.840036113,0 0,0.850016841 0,1.89849629 C0,2.94703542 0.839977122,3.79705227 1.87651326,3.79705227 C2.91251847,3.79705227 3.75279054,2.94703542 3.75279054,1.89849629 Z" id="Path" fill="#FFFFFF"></path>
                            <ellipse id="Oval" fill="#FF9500" cx="1.87639527" cy="1.89849629" rx="1" ry="1"></ellipse>
                            <path d="M1.87651326,0 C0.840036113,0 0,0.850016841 0,1.89849629 C0,2.94703542 0.839977122,3.79705227 1.87651326,3.79705227 L1.87651326,0 Z" id="Path" fill="#222222" opacity="0.2"></path>
                        </g>
                        <path d="M15.757933,5.11926089 C15.541376,5.11926089 15.3287123,5.13573478 15.1205321,5.1664741 C14.3504596,3.88652458 12.9586189,3.03167301 11.3692753,3.03167301 C10.7764717,3.03167301 10.211394,3.15128777 9.69557411,3.36688083 C8.89641897,2.52074371 7.77104194,1.99280333 6.52308099,1.99280333 C6.27744121,1.99280333 6.03663873,2.01345538 5.80197134,2.05273009 C5.68717427,2.32538488 5.60653316,2.6163042 5.56612412,2.92017582 C3.92905655,3.13511232 2.66428308,4.55019548 2.66428308,6.26521085 C2.66428308,6.36817265 2.66959229,6.4699407 2.67849998,6.57051498 C1.12974239,7.03685734 4.19158397e-15,8.4877533 4.19158397e-15,10.20635 C4.19158397e-15,12.3015779 1.67865643,14 3.74936905,14 L15.7578741,14 C18.1815906,14 20.1464138,12.0119717 20.1464138,9.55963045 C20.1464138,7.10728918 18.1816496,5.11926089 15.757933,5.11926089 Z" id="Path" fill="#222222" opacity="0.2"></path>
                    </g>
                    <g id="Group" transform="translate(0.000000, 3.000000)">
                        <path d="M17.4893941,2.86421527 C17.2668305,2.86421527 17.04821,2.87934237 16.8342835,2.90745169 C16.0427307,1.73487546 14.6121524,0.951765684 12.9786005,0.951765684 C12.3693045,0.951765684 11.788486,1.06132429 11.2583015,1.25882329 C10.4369566,0.483672171 9.28020165,0 7.99745664,0 C5.94174746,0 4.20849265,1.24064819 3.66485161,2.93663345 C1.57816127,3.29381369 0,4.94633676 0,6.93210763 C0,9.17876459 2.01947062,11 4.51066844,11 L17.4893316,11 C19.9805294,11 22,9.17870814 22,6.93210763 C22,4.68550713 19.9805294,2.86421527 17.4893941,2.86421527 Z" id="Path" fill="#77BC1F"></path>
                        <path d="M7.99745664,0 C5.94174746,0 4.20849265,1.24064819 3.66485161,2.93663345 C1.57816127,3.29381369 0,4.94633676 0,6.93210763 C0,9.17876459 2.01947062,11 4.51066844,11 L10.7010162,11 L10.7010162,0.813984873 C9.94764213,0.303614495 9.01238677,0 7.99745664,0 Z" id="Path" fill="#218649" opacity="0.5"></path>
                        <g transform="translate(15.602485, 5.259716)">
                            <path d="M3.98161045,1.79532743 C3.98161045,0.803824879 3.09010424,0 1.9909304,0 C0.891255861,0 0,0.803824879 0,1.79532743 C0,2.78688642 0.891193272,3.5907113 1.9909304,3.5907113 C3.09010424,3.5907113 3.98161045,2.78688642 3.98161045,1.79532743 Z" id="Path" fill="#FFFFFF"></path>
                            <ellipse id="Oval" fill="#FF9500" cx="1.99086781" cy="1.79532743" rx="1" ry="1"></ellipse>
                            <path d="M1.99099299,0 C0.891318449,0 6.25881921e-05,0.803824879 6.25881921e-05,1.79532743 C6.25881921e-05,2.78688642 0.891255861,3.5907113 1.99099299,3.5907113 L1.99099299,0 Z" id="Path" fill="#222222" opacity="0.2"></path>
                        </g>
                        <g transform="translate(2.378351, 5.374581)">
                            <path d="M3.98161045,1.79532743 C3.98161045,0.803824879 3.09010424,0 1.9909304,0 C0.891255861,0 0,0.803824879 0,1.79532743 C0,2.78688642 0.891193272,3.5907113 1.9909304,3.5907113 C3.09010424,3.5907113 3.98161045,2.78688642 3.98161045,1.79532743 Z" id="Path" fill="#FFFFFF"></path>
                            <ellipse id="Oval" fill="#FF9500" cx="1.99086781" cy="1.79532743" rx="1" ry="1"></ellipse>
                            <path d="M1.99099299,0 C0.891318449,0 6.25881926e-05,0.803824879 6.25881926e-05,1.79532743 C6.25881926e-05,2.78688642 0.891255861,3.5907113 1.99099299,3.5907113 L1.99099299,0 Z" id="Path" fill="#222222" opacity="0.2"></path>
                        </g>
                        <g transform="translate(9.009257, 2.941318)">
                            <path d="M3.98161045,1.79532743 C3.98161045,0.803824879 3.09010424,0 1.9909304,0 C0.891255861,0 0,0.803824879 0,1.79532743 C0,2.78688642 0.891193272,3.5907113 1.9909304,3.5907113 C3.09004165,3.59076775 3.98161045,2.78694287 3.98161045,1.79532743 Z" id="Path" fill="#FFFFFF"></path>
                            <ellipse id="Oval" fill="#FF9500" cx="1.99080523" cy="1.79532743" rx="1" ry="1"></ellipse>
                            <path d="M1.9909304,0 C0.891255861,0 0,0.803824879 0,1.79532743 C0,2.78688642 0.891193272,3.5907113 1.9909304,3.5907113 L1.9909304,0 Z" id="Path" fill="#222222" opacity="0.2"></path>
                        </g>
                    </g>
                </g>
                <g id="bush-svgrepo-com" transform="translate(68.000000, 68.000000)" fill-rule="nonzero">
                    <g id="Group" transform="translate(1.000000, 0.000000)">
                        <path d="M21.5803744,7.2350812 C21.6002544,7.07559485 21.6116398,6.91342255 21.6116398,6.7485046 C21.6116398,5.07264456 20.5551646,3.64693694 19.0795562,3.11457965 C18.6047352,1.83683858 17.3863289,0.92743218 15.9576186,0.92743218 C15.5183694,0.92743218 15.0994132,1.01415885 14.7153208,1.17030266 C14.3312874,1.01415885 13.9123312,0.92743218 13.473082,0.92743218 C12.7935022,0.92743218 12.1617644,1.13353485 11.6346771,1.48670876 C11.0353255,0.589717463 10.0207342,8.48217529e-16 8.87004986,8.48217529e-16 C7.18048004,8.48217529e-16 5.78545377,1.27153351 5.56612412,2.92017582 C3.92905655,3.13511232 2.66428308,4.55019548 2.66428308,6.26521085 C2.66428308,6.36817265 2.66959229,6.4699407 2.67849998,6.57051498 C1.12974239,7.03685734 8.38316795e-16,8.4877533 8.38316795e-16,10.20635 C8.38316795e-16,12.3015779 1.67865643,14 3.74936905,14 L3.74942804,14 L19.250572,14 C21.3212846,14 23,12.3015779 23,10.20635 C23,9.00226388 22.4449509,7.9300883 21.5803744,7.2350812 Z" id="Path" fill="#00953A"></path>
                        <path d="M11.6347361,1.48670876 C11.0353845,0.589717463 10.0207932,0 8.87010885,0 C7.18053903,0 5.78551276,1.27153351 5.56618311,2.92017582 C3.92911554,3.13511232 2.66434207,4.55019548 2.66434207,6.26521085 C2.66434207,6.36817265 2.66965128,6.4699407 2.67855897,6.57051498 C1.12980138,7.03685734 5.89913001e-05,8.4877533 5.89913001e-05,10.20635 C5.89913001e-05,12.3015779 1.67871543,14 3.74942804,14 L11.6770329,14 L11.6770329,1.45949103 C11.662934,1.4686233 11.6486581,1.47739743 11.6347361,1.48670876 Z" id="Path" fill="#222222" opacity="0.2"></path>
                        <g transform="translate(15.494773, 3.579669)">
                            <path d="M3.75279054,1.89849629 C3.75279054,0.850016841 2.91251847,0 1.87651326,0 C0.840036113,0 0,0.850016841 0,1.89849629 C0,2.94703542 0.839977122,3.79705227 1.87651326,3.79705227 C2.91251847,3.79705227 3.75279054,2.94703542 3.75279054,1.89849629 Z" id="Path" fill="#FFFFFF"></path>
                            <ellipse id="Oval" fill="#FF9500" cx="1.87639527" cy="1.89849629" rx="1" ry="1"></ellipse>
                            <path d="M1.87651326,0 C0.840036113,0 0,0.850016841 0,1.89849629 C0,2.94703542 0.839977122,3.79705227 1.87651326,3.79705227 L1.87651326,0 Z" id="Path" fill="#222222" opacity="0.2"></path>
                        </g>
                        <path d="M15.757933,5.11926089 C15.541376,5.11926089 15.3287123,5.13573478 15.1205321,5.1664741 C14.3504596,3.88652458 12.9586189,3.03167301 11.3692753,3.03167301 C10.7764717,3.03167301 10.211394,3.15128777 9.69557411,3.36688083 C8.89641897,2.52074371 7.77104194,1.99280333 6.52308099,1.99280333 C6.27744121,1.99280333 6.03663873,2.01345538 5.80197134,2.05273009 C5.68717427,2.32538488 5.60653316,2.6163042 5.56612412,2.92017582 C3.92905655,3.13511232 2.66428308,4.55019548 2.66428308,6.26521085 C2.66428308,6.36817265 2.66959229,6.4699407 2.67849998,6.57051498 C1.12974239,7.03685734 4.19158397e-15,8.4877533 4.19158397e-15,10.20635 C4.19158397e-15,12.3015779 1.67865643,14 3.74936905,14 L15.7578741,14 C18.1815906,14 20.1464138,12.0119717 20.1464138,9.55963045 C20.1464138,7.10728918 18.1816496,5.11926089 15.757933,5.11926089 Z" id="Path" fill="#222222" opacity="0.2"></path>
                    </g>
                    <g id="Group" transform="translate(0.000000, 3.000000)">
                        <path d="M17.4893941,2.86421527 C17.2668305,2.86421527 17.04821,2.87934237 16.8342835,2.90745169 C16.0427307,1.73487546 14.6121524,0.951765684 12.9786005,0.951765684 C12.3693045,0.951765684 11.788486,1.06132429 11.2583015,1.25882329 C10.4369566,0.483672171 9.28020165,0 7.99745664,0 C5.94174746,0 4.20849265,1.24064819 3.66485161,2.93663345 C1.57816127,3.29381369 0,4.94633676 0,6.93210763 C0,9.17876459 2.01947062,11 4.51066844,11 L17.4893316,11 C19.9805294,11 22,9.17870814 22,6.93210763 C22,4.68550713 19.9805294,2.86421527 17.4893941,2.86421527 Z" id="Path" fill="#77BC1F"></path>
                        <path d="M7.99745664,0 C5.94174746,0 4.20849265,1.24064819 3.66485161,2.93663345 C1.57816127,3.29381369 0,4.94633676 0,6.93210763 C0,9.17876459 2.01947062,11 4.51066844,11 L10.7010162,11 L10.7010162,0.813984873 C9.94764213,0.303614495 9.01238677,0 7.99745664,0 Z" id="Path" fill="#218649" opacity="0.5"></path>
                        <g transform="translate(15.602485, 5.259716)">
                            <path d="M3.98161045,1.79532743 C3.98161045,0.803824879 3.09010424,0 1.9909304,0 C0.891255861,0 0,0.803824879 0,1.79532743 C0,2.78688642 0.891193272,3.5907113 1.9909304,3.5907113 C3.09010424,3.5907113 3.98161045,2.78688642 3.98161045,1.79532743 Z" id="Path" fill="#FFFFFF"></path>
                            <ellipse id="Oval" fill="#FF9500" cx="1.99086781" cy="1.79532743" rx="1" ry="1"></ellipse>
                            <path d="M1.99099299,0 C0.891318449,0 6.25881921e-05,0.803824879 6.25881921e-05,1.79532743 C6.25881921e-05,2.78688642 0.891255861,3.5907113 1.99099299,3.5907113 L1.99099299,0 Z" id="Path" fill="#222222" opacity="0.2"></path>
                        </g>
                        <g transform="translate(2.378351, 5.374581)">
                            <path d="M3.98161045,1.79532743 C3.98161045,0.803824879 3.09010424,0 1.9909304,0 C0.891255861,0 0,0.803824879 0,1.79532743 C0,2.78688642 0.891193272,3.5907113 1.9909304,3.5907113 C3.09010424,3.5907113 3.98161045,2.78688642 3.98161045,1.79532743 Z" id="Path" fill="#FFFFFF"></path>
                            <ellipse id="Oval" fill="#FF9500" cx="1.99086781" cy="1.79532743" rx="1" ry="1"></ellipse>
                            <path d="M1.99099299,0 C0.891318449,0 6.25881926e-05,0.803824879 6.25881926e-05,1.79532743 C6.25881926e-05,2.78688642 0.891255861,3.5907113 1.99099299,3.5907113 L1.99099299,0 Z" id="Path" fill="#222222" opacity="0.2"></path>
                        </g>
                        <g transform="translate(9.009257, 2.941318)">
                            <path d="M3.98161045,1.79532743 C3.98161045,0.803824879 3.09010424,0 1.9909304,0 C0.891255861,0 0,0.803824879 0,1.79532743 C0,2.78688642 0.891193272,3.5907113 1.9909304,3.5907113 C3.09004165,3.59076775 3.98161045,2.78694287 3.98161045,1.79532743 Z" id="Path" fill="#FFFFFF"></path>
                            <ellipse id="Oval" fill="#FF9500" cx="1.99080523" cy="1.79532743" rx="1" ry="1"></ellipse>
                            <path d="M1.9909304,0 C0.891255861,0 0,0.803824879 0,1.79532743 C0,2.78688642 0.891193272,3.5907113 1.9909304,3.5907113 L1.9909304,0 Z" id="Path" fill="#222222" opacity="0.2"></path>
                        </g>
                    </g>
                </g>
            </g>
        </g>
    </g>
</svg>