<?xml version="1.0" encoding="UTF-8"?>
<svg width="93px" height="97px" viewBox="0 0 93 97" version="1.1" xmlns="http://www.w3.org/2000/svg" xmlns:xlink="http://www.w3.org/1999/xlink">
    <title>Group</title>
    <defs>
        <path d="M0,0.32975 C0.333113456,0.27675 0.666226913,0.22325 1,0.17025 C0.666886544,0.22375 0.333113456,0.27675 0,0.32975" id="path-1"></path>
    </defs>
    <g id="Page-1" stroke="none" stroke-width="1" fill="none" fill-rule="evenodd">
        <g id="Map/Level" transform="translate(-291.000000, -335.000000)">
            <g id="Group" transform="translate(291.000000, 335.000000)">
                <ellipse id="Oval" fill="#60A625" cx="46" cy="74.5" rx="10" ry="5.5"></ellipse>
                <g id="Tree-1" transform="translate(12.000000, 0.000000)">
                    <path d="M57.3720091,28.0131173 C56.4552942,27.1925885 55.4924289,26.551517 54.4858606,26.0572097 C54.7089209,24.8656838 54.7868871,23.6567453 54.6973833,22.4669963 C54.4141876,18.7047881 52.6548782,15.144425 49.8708199,12.6526328 C47.2468896,10.3047618 44.264944,9.35097258 40.9634418,9.12816116 C40.1848285,6.94091345 38.8737374,4.95586622 37.1430972,3.40684708 C34.2370201,0.806314387 30.8704878,0 27.0987409,0 C19.8622173,0 14.3248678,7.38973455 14.5318454,14.3182104 C11.4610952,16.4073784 9.28188699,19.9567253 8.6731911,23.6581667 C6.65760705,24.4936207 4.91612845,25.7430704 3.45539816,27.4150445 C0.999287511,30.2501156 -0.244326095,34.0517689 0.0399184541,37.8185968 C0.314723148,41.466734 2.02019044,44.9194227 4.72033885,47.335523 C5.71641846,48.0156842 6.71284769,48.69549 7.70927692,49.3752958 C9.99861679,50.5124514 12.414171,50.9900568 14.9562892,50.8070458 C16.1303276,50.5558055 17.3047156,50.3049205 18.4791036,50.0540356 C19.0937431,49.8315795 19.6821608,49.5689676 20.2478529,49.2725965 C20.4275598,49.4488556 20.6104133,49.6215611 20.7978119,49.7896469 C21.9931774,50.605556 23.1881932,51.4211098 24.3835587,52.2366636 C27.1302071,53.6008949 30.0278932,54.1737371 33.0773163,53.9544792 L37.3035747,53.0507959 C38.9702337,52.4473927 40.4851558,51.615137 41.8525364,50.5611359 C44.1478199,51.7974372 46.6787501,52.229201 49.4250489,52.229201 C56.8570125,52.229201 62.4988997,44.4357762 61.9650234,37.3516522 C61.6954631,33.7720997 60.0218116,30.3837313 57.3720091,28.0131173 Z" id="Fill-15" fill="#E89D0F"></path>
                    <g id="Group-18" transform="translate(15.000000, 49.950000)">
                        <mask id="mask-2" fill="white">
                            <use xlink:href="#path-1"></use>
                        </mask>
                        <g id="Clip-17"></g>
                        <path d="M0,0.32975 C0.333113456,0.27675 0.666226913,0.22325 1,0.17025 C0.666886544,0.22375 0.333113456,0.27675 0,0.32975" id="Fill-16" mask="url(#mask-2)"></path>
                    </g>
                    <path d="M13.796174,50 C11.6538097,50 9.60404883,49.5181018 7.64758503,48.5546547 C6.65912167,47.8861476 5.67065831,47.2176405 4.68254178,46.5487839 C2.00397948,44.1728404 0.312146399,40.777537 0.0395386084,37.1900335 C0.0128327562,36.8426754 0,36.4953173 0,36.1483086 C0,32.7931926 1.21979855,29.4859519 3.42771355,26.9593933 C4.87676616,25.3152083 6.60432265,24.086525 8.60379327,23.2649567 C9.207623,19.6250349 11.3694097,16.1346799 14.415611,14.0802348 C14.4117959,13.9537322 14.4100617,13.8272295 14.4100617,13.7007269 C14.4149174,6.99958065 19.8365522,0 26.8820416,0 C30.6236355,0 33.9632544,0.792913056 36.8460991,3.35022365 C37.2553576,3.71330724 37.6392976,4.10259994 38,4.51146212 C23.7543354,8.19646352 12.9707204,21.4121471 12.9707204,36.7846659 C12.9707204,41.3768521 13.934212,45.7764887 15.6638495,49.787182 C15.4883539,49.8242242 15.3132051,49.8616159 15.1380563,49.8986581 C15.0374759,49.9199748 14.9368954,49.9412916 14.8366617,49.9626083 C14.4870578,49.9874196 14.1405754,50 13.796174,50" id="Fill-19" fill="#8D600F"></path>
                    <line x1="33" y1="74" x2="33" y2="39" id="Fill-20" fill="#7DAD55"></line>
                    <polyline id="Fill-21" fill="#4A3428" points="29 74 32.75 39 34.25 39 38 74 29 74"></polyline>
                    <line x1="33" y1="52" x2="39" y2="46" id="Fill-22" fill="#7DAD55"></line>
                    <polyline id="Fill-23" fill="#4A3428" points="33 49.5060472 39.5847906 45 40 45.4155412 35.4947841 52 33 49.5060472"></polyline>
                    <line x1="34" y1="59" x2="28" y2="53" id="Fill-24" fill="#7DAD55"></line>
                    <polyline id="Fill-25" fill="#4A3428" points="32.5060472 60 28 53.4155412 28.415894 53 35 57.5060472 32.5060472 60"></polyline>
                </g>
                <g id="bush-svgrepo-com" transform="translate(0.000000, 66.000000)" fill-rule="nonzero">
                    <g id="Group" transform="translate(1.000000, 0.000000)">
                        <path d="M21.5803744,7.2350812 C21.6002544,7.07559485 21.6116398,6.91342255 21.6116398,6.7485046 C21.6116398,5.07264456 20.5551646,3.64693694 19.0795562,3.11457965 C18.6047352,1.83683858 17.3863289,0.92743218 15.9576186,0.92743218 C15.5183694,0.92743218 15.0994132,1.01415885 14.7153208,1.17030266 C14.3312874,1.01415885 13.9123312,0.92743218 13.473082,0.92743218 C12.7935022,0.92743218 12.1617644,1.13353485 11.6346771,1.48670876 C11.0353255,0.589717463 10.0207342,8.48217529e-16 8.87004986,8.48217529e-16 C7.18048004,8.48217529e-16 5.78545377,1.27153351 5.56612412,2.92017582 C3.92905655,3.13511232 2.66428308,4.55019548 2.66428308,6.26521085 C2.66428308,6.36817265 2.66959229,6.4699407 2.67849998,6.57051498 C1.12974239,7.03685734 8.38316795e-16,8.4877533 8.38316795e-16,10.20635 C8.38316795e-16,12.3015779 1.67865643,14 3.74936905,14 L3.74942804,14 L19.250572,14 C21.3212846,14 23,12.3015779 23,10.20635 C23,9.00226388 22.4449509,7.9300883 21.5803744,7.2350812 Z" id="Path" fill="#00953A"></path>
                        <path d="M11.6347361,1.48670876 C11.0353845,0.589717463 10.0207932,0 8.87010885,0 C7.18053903,0 5.78551276,1.27153351 5.56618311,2.92017582 C3.92911554,3.13511232 2.66434207,4.55019548 2.66434207,6.26521085 C2.66434207,6.36817265 2.66965128,6.4699407 2.67855897,6.57051498 C1.12980138,7.03685734 5.89913001e-05,8.4877533 5.89913001e-05,10.20635 C5.89913001e-05,12.3015779 1.67871543,14 3.74942804,14 L11.6770329,14 L11.6770329,1.45949103 C11.662934,1.4686233 11.6486581,1.47739743 11.6347361,1.48670876 Z" id="Path" fill="#222222" opacity="0.2"></path>
                        <g transform="translate(15.494773, 3.579669)">
                            <path d="M3.75279054,1.89849629 C3.75279054,0.850016841 2.91251847,0 1.87651326,0 C0.840036113,0 0,0.850016841 0,1.89849629 C0,2.94703542 0.839977122,3.79705227 1.87651326,3.79705227 C2.91251847,3.79705227 3.75279054,2.94703542 3.75279054,1.89849629 Z" id="Path" fill="#FFFFFF"></path>
                            <ellipse id="Oval" fill="#FF9500" cx="1.87639527" cy="1.89849629" rx="1" ry="1"></ellipse>
                            <path d="M1.87651326,0 C0.840036113,0 0,0.850016841 0,1.89849629 C0,2.94703542 0.839977122,3.79705227 1.87651326,3.79705227 L1.87651326,0 Z" id="Path" fill="#222222" opacity="0.2"></path>
                        </g>
                        <path d="M15.757933,5.11926089 C15.541376,5.11926089 15.3287123,5.13573478 15.1205321,5.1664741 C14.3504596,3.88652458 12.9586189,3.03167301 11.3692753,3.03167301 C10.7764717,3.03167301 10.211394,3.15128777 9.69557411,3.36688083 C8.89641897,2.52074371 7.77104194,1.99280333 6.52308099,1.99280333 C6.27744121,1.99280333 6.03663873,2.01345538 5.80197134,2.05273009 C5.68717427,2.32538488 5.60653316,2.6163042 5.56612412,2.92017582 C3.92905655,3.13511232 2.66428308,4.55019548 2.66428308,6.26521085 C2.66428308,6.36817265 2.66959229,6.4699407 2.67849998,6.57051498 C1.12974239,7.03685734 4.19158397e-15,8.4877533 4.19158397e-15,10.20635 C4.19158397e-15,12.3015779 1.67865643,14 3.74936905,14 L15.7578741,14 C18.1815906,14 20.1464138,12.0119717 20.1464138,9.55963045 C20.1464138,7.10728918 18.1816496,5.11926089 15.757933,5.11926089 Z" id="Path" fill="#222222" opacity="0.2"></path>
                    </g>
                    <g id="Group" transform="translate(0.000000, 3.000000)">
                        <path d="M17.4893941,2.86421527 C17.2668305,2.86421527 17.04821,2.87934237 16.8342835,2.90745169 C16.0427307,1.73487546 14.6121524,0.951765684 12.9786005,0.951765684 C12.3693045,0.951765684 11.788486,1.06132429 11.2583015,1.25882329 C10.4369566,0.483672171 9.28020165,0 7.99745664,0 C5.94174746,0 4.20849265,1.24064819 3.66485161,2.93663345 C1.57816127,3.29381369 0,4.94633676 0,6.93210763 C0,9.17876459 2.01947062,11 4.51066844,11 L17.4893316,11 C19.9805294,11 22,9.17870814 22,6.93210763 C22,4.68550713 19.9805294,2.86421527 17.4893941,2.86421527 Z" id="Path" fill="#77BC1F"></path>
                        <path d="M7.99745664,0 C5.94174746,0 4.20849265,1.24064819 3.66485161,2.93663345 C1.57816127,3.29381369 0,4.94633676 0,6.93210763 C0,9.17876459 2.01947062,11 4.51066844,11 L10.7010162,11 L10.7010162,0.813984873 C9.94764213,0.303614495 9.01238677,0 7.99745664,0 Z" id="Path" fill="#218649" opacity="0.5"></path>
                        <g transform="translate(15.602485, 5.259716)">
                            <path d="M3.98161045,1.79532743 C3.98161045,0.803824879 3.09010424,0 1.9909304,0 C0.891255861,0 0,0.803824879 0,1.79532743 C0,2.78688642 0.891193272,3.5907113 1.9909304,3.5907113 C3.09010424,3.5907113 3.98161045,2.78688642 3.98161045,1.79532743 Z" id="Path" fill="#FFFFFF"></path>
                            <ellipse id="Oval" fill="#FF9500" cx="1.99086781" cy="1.79532743" rx="1" ry="1"></ellipse>
                            <path d="M1.99099299,0 C0.891318449,0 6.25881921e-05,0.803824879 6.25881921e-05,1.79532743 C6.25881921e-05,2.78688642 0.891255861,3.5907113 1.99099299,3.5907113 L1.99099299,0 Z" id="Path" fill="#222222" opacity="0.2"></path>
                        </g>
                        <g transform="translate(2.378351, 5.374581)">
                            <path d="M3.98161045,1.79532743 C3.98161045,0.803824879 3.09010424,0 1.9909304,0 C0.891255861,0 0,0.803824879 0,1.79532743 C0,2.78688642 0.891193272,3.5907113 1.9909304,3.5907113 C3.09010424,3.5907113 3.98161045,2.78688642 3.98161045,1.79532743 Z" id="Path" fill="#FFFFFF"></path>
                            <ellipse id="Oval" fill="#FF9500" cx="1.99086781" cy="1.79532743" rx="1" ry="1"></ellipse>
                            <path d="M1.99099299,0 C0.891318449,0 6.25881926e-05,0.803824879 6.25881926e-05,1.79532743 C6.25881926e-05,2.78688642 0.891255861,3.5907113 1.99099299,3.5907113 L1.99099299,0 Z" id="Path" fill="#222222" opacity="0.2"></path>
                        </g>
                        <g transform="translate(9.009257, 2.941318)">
                            <path d="M3.98161045,1.79532743 C3.98161045,0.803824879 3.09010424,0 1.9909304,0 C0.891255861,0 0,0.803824879 0,1.79532743 C0,2.78688642 0.891193272,3.5907113 1.9909304,3.5907113 C3.09004165,3.59076775 3.98161045,2.78694287 3.98161045,1.79532743 Z" id="Path" fill="#FFFFFF"></path>
                            <ellipse id="Oval" fill="#FF9500" cx="1.99080523" cy="1.79532743" rx="1" ry="1"></ellipse>
                            <path d="M1.9909304,0 C0.891255861,0 0,0.803824879 0,1.79532743 C0,2.78688642 0.891193272,3.5907113 1.9909304,3.5907113 L1.9909304,0 Z" id="Path" fill="#222222" opacity="0.2"></path>
                        </g>
                    </g>
                </g>
                <g id="bush-svgrepo-com" transform="translate(57.000000, 83.000000)" fill-rule="nonzero">
                    <g id="Group" transform="translate(1.000000, 0.000000)">
                        <path d="M21.5803744,7.2350812 C21.6002544,7.07559485 21.6116398,6.91342255 21.6116398,6.7485046 C21.6116398,5.07264456 20.5551646,3.64693694 19.0795562,3.11457965 C18.6047352,1.83683858 17.3863289,0.92743218 15.9576186,0.92743218 C15.5183694,0.92743218 15.0994132,1.01415885 14.7153208,1.17030266 C14.3312874,1.01415885 13.9123312,0.92743218 13.473082,0.92743218 C12.7935022,0.92743218 12.1617644,1.13353485 11.6346771,1.48670876 C11.0353255,0.589717463 10.0207342,8.48217529e-16 8.87004986,8.48217529e-16 C7.18048004,8.48217529e-16 5.78545377,1.27153351 5.56612412,2.92017582 C3.92905655,3.13511232 2.66428308,4.55019548 2.66428308,6.26521085 C2.66428308,6.36817265 2.66959229,6.4699407 2.67849998,6.57051498 C1.12974239,7.03685734 8.38316795e-16,8.4877533 8.38316795e-16,10.20635 C8.38316795e-16,12.3015779 1.67865643,14 3.74936905,14 L3.74942804,14 L19.250572,14 C21.3212846,14 23,12.3015779 23,10.20635 C23,9.00226388 22.4449509,7.9300883 21.5803744,7.2350812 Z" id="Path" fill="#00953A"></path>
                        <path d="M11.6347361,1.48670876 C11.0353845,0.589717463 10.0207932,0 8.87010885,0 C7.18053903,0 5.78551276,1.27153351 5.56618311,2.92017582 C3.92911554,3.13511232 2.66434207,4.55019548 2.66434207,6.26521085 C2.66434207,6.36817265 2.66965128,6.4699407 2.67855897,6.57051498 C1.12980138,7.03685734 5.89913001e-05,8.4877533 5.89913001e-05,10.20635 C5.89913001e-05,12.3015779 1.67871543,14 3.74942804,14 L11.6770329,14 L11.6770329,1.45949103 C11.662934,1.4686233 11.6486581,1.47739743 11.6347361,1.48670876 Z" id="Path" fill="#222222" opacity="0.2"></path>
                        <g transform="translate(15.494773, 3.579669)">
                            <path d="M3.75279054,1.89849629 C3.75279054,0.850016841 2.91251847,0 1.87651326,0 C0.840036113,0 0,0.850016841 0,1.89849629 C0,2.94703542 0.839977122,3.79705227 1.87651326,3.79705227 C2.91251847,3.79705227 3.75279054,2.94703542 3.75279054,1.89849629 Z" id="Path" fill="#FFFFFF"></path>
                            <ellipse id="Oval" fill="#FF9500" cx="1.87639527" cy="1.89849629" rx="1" ry="1"></ellipse>
                            <path d="M1.87651326,0 C0.840036113,0 0,0.850016841 0,1.89849629 C0,2.94703542 0.839977122,3.79705227 1.87651326,3.79705227 L1.87651326,0 Z" id="Path" fill="#222222" opacity="0.2"></path>
                        </g>
                        <path d="M15.757933,5.11926089 C15.541376,5.11926089 15.3287123,5.13573478 15.1205321,5.1664741 C14.3504596,3.88652458 12.9586189,3.03167301 11.3692753,3.03167301 C10.7764717,3.03167301 10.211394,3.15128777 9.69557411,3.36688083 C8.89641897,2.52074371 7.77104194,1.99280333 6.52308099,1.99280333 C6.27744121,1.99280333 6.03663873,2.01345538 5.80197134,2.05273009 C5.68717427,2.32538488 5.60653316,2.6163042 5.56612412,2.92017582 C3.92905655,3.13511232 2.66428308,4.55019548 2.66428308,6.26521085 C2.66428308,6.36817265 2.66959229,6.4699407 2.67849998,6.57051498 C1.12974239,7.03685734 4.19158397e-15,8.4877533 4.19158397e-15,10.20635 C4.19158397e-15,12.3015779 1.67865643,14 3.74936905,14 L15.7578741,14 C18.1815906,14 20.1464138,12.0119717 20.1464138,9.55963045 C20.1464138,7.10728918 18.1816496,5.11926089 15.757933,5.11926089 Z" id="Path" fill="#222222" opacity="0.2"></path>
                    </g>
                    <g id="Group" transform="translate(0.000000, 3.000000)">
                        <path d="M17.4893941,2.86421527 C17.2668305,2.86421527 17.04821,2.87934237 16.8342835,2.90745169 C16.0427307,1.73487546 14.6121524,0.951765684 12.9786005,0.951765684 C12.3693045,0.951765684 11.788486,1.06132429 11.2583015,1.25882329 C10.4369566,0.483672171 9.28020165,0 7.99745664,0 C5.94174746,0 4.20849265,1.24064819 3.66485161,2.93663345 C1.57816127,3.29381369 0,4.94633676 0,6.93210763 C0,9.17876459 2.01947062,11 4.51066844,11 L17.4893316,11 C19.9805294,11 22,9.17870814 22,6.93210763 C22,4.68550713 19.9805294,2.86421527 17.4893941,2.86421527 Z" id="Path" fill="#77BC1F"></path>
                        <path d="M7.99745664,0 C5.94174746,0 4.20849265,1.24064819 3.66485161,2.93663345 C1.57816127,3.29381369 0,4.94633676 0,6.93210763 C0,9.17876459 2.01947062,11 4.51066844,11 L10.7010162,11 L10.7010162,0.813984873 C9.94764213,0.303614495 9.01238677,0 7.99745664,0 Z" id="Path" fill="#218649" opacity="0.5"></path>
                        <g transform="translate(15.602485, 5.259716)">
                            <path d="M3.98161045,1.79532743 C3.98161045,0.803824879 3.09010424,0 1.9909304,0 C0.891255861,0 0,0.803824879 0,1.79532743 C0,2.78688642 0.891193272,3.5907113 1.9909304,3.5907113 C3.09010424,3.5907113 3.98161045,2.78688642 3.98161045,1.79532743 Z" id="Path" fill="#FFFFFF"></path>
                            <ellipse id="Oval" fill="#FF9500" cx="1.99086781" cy="1.79532743" rx="1" ry="1"></ellipse>
                            <path d="M1.99099299,0 C0.891318449,0 6.25881921e-05,0.803824879 6.25881921e-05,1.79532743 C6.25881921e-05,2.78688642 0.891255861,3.5907113 1.99099299,3.5907113 L1.99099299,0 Z" id="Path" fill="#222222" opacity="0.2"></path>
                        </g>
                        <g transform="translate(2.378351, 5.374581)">
                            <path d="M3.98161045,1.79532743 C3.98161045,0.803824879 3.09010424,0 1.9909304,0 C0.891255861,0 0,0.803824879 0,1.79532743 C0,2.78688642 0.891193272,3.5907113 1.9909304,3.5907113 C3.09010424,3.5907113 3.98161045,2.78688642 3.98161045,1.79532743 Z" id="Path" fill="#FFFFFF"></path>
                            <ellipse id="Oval" fill="#FF9500" cx="1.99086781" cy="1.79532743" rx="1" ry="1"></ellipse>
                            <path d="M1.99099299,0 C0.891318449,0 6.25881926e-05,0.803824879 6.25881926e-05,1.79532743 C6.25881926e-05,2.78688642 0.891255861,3.5907113 1.99099299,3.5907113 L1.99099299,0 Z" id="Path" fill="#222222" opacity="0.2"></path>
                        </g>
                        <g transform="translate(9.009257, 2.941318)">
                            <path d="M3.98161045,1.79532743 C3.98161045,0.803824879 3.09010424,0 1.9909304,0 C0.891255861,0 0,0.803824879 0,1.79532743 C0,2.78688642 0.891193272,3.5907113 1.9909304,3.5907113 C3.09004165,3.59076775 3.98161045,2.78694287 3.98161045,1.79532743 Z" id="Path" fill="#FFFFFF"></path>
                            <ellipse id="Oval" fill="#FF9500" cx="1.99080523" cy="1.79532743" rx="1" ry="1"></ellipse>
                            <path d="M1.9909304,0 C0.891255861,0 0,0.803824879 0,1.79532743 C0,2.78688642 0.891193272,3.5907113 1.9909304,3.5907113 L1.9909304,0 Z" id="Path" fill="#222222" opacity="0.2"></path>
                        </g>
                    </g>
                </g>
                <g id="bush-svgrepo-com" transform="translate(69.000000, 55.000000)" fill-rule="nonzero">
                    <g id="Group" transform="translate(1.000000, 0.000000)">
                        <path d="M21.5803744,7.2350812 C21.6002544,7.07559485 21.6116398,6.91342255 21.6116398,6.7485046 C21.6116398,5.07264456 20.5551646,3.64693694 19.0795562,3.11457965 C18.6047352,1.83683858 17.3863289,0.92743218 15.9576186,0.92743218 C15.5183694,0.92743218 15.0994132,1.01415885 14.7153208,1.17030266 C14.3312874,1.01415885 13.9123312,0.92743218 13.473082,0.92743218 C12.7935022,0.92743218 12.1617644,1.13353485 11.6346771,1.48670876 C11.0353255,0.589717463 10.0207342,8.48217529e-16 8.87004986,8.48217529e-16 C7.18048004,8.48217529e-16 5.78545377,1.27153351 5.56612412,2.92017582 C3.92905655,3.13511232 2.66428308,4.55019548 2.66428308,6.26521085 C2.66428308,6.36817265 2.66959229,6.4699407 2.67849998,6.57051498 C1.12974239,7.03685734 8.38316795e-16,8.4877533 8.38316795e-16,10.20635 C8.38316795e-16,12.3015779 1.67865643,14 3.74936905,14 L3.74942804,14 L19.250572,14 C21.3212846,14 23,12.3015779 23,10.20635 C23,9.00226388 22.4449509,7.9300883 21.5803744,7.2350812 Z" id="Path" fill="#00953A"></path>
                        <path d="M11.6347361,1.48670876 C11.0353845,0.589717463 10.0207932,0 8.87010885,0 C7.18053903,0 5.78551276,1.27153351 5.56618311,2.92017582 C3.92911554,3.13511232 2.66434207,4.55019548 2.66434207,6.26521085 C2.66434207,6.36817265 2.66965128,6.4699407 2.67855897,6.57051498 C1.12980138,7.03685734 5.89913001e-05,8.4877533 5.89913001e-05,10.20635 C5.89913001e-05,12.3015779 1.67871543,14 3.74942804,14 L11.6770329,14 L11.6770329,1.45949103 C11.662934,1.4686233 11.6486581,1.47739743 11.6347361,1.48670876 Z" id="Path" fill="#222222" opacity="0.2"></path>
                        <g transform="translate(15.494773, 3.579669)">
                            <path d="M3.75279054,1.89849629 C3.75279054,0.850016841 2.91251847,0 1.87651326,0 C0.840036113,0 0,0.850016841 0,1.89849629 C0,2.94703542 0.839977122,3.79705227 1.87651326,3.79705227 C2.91251847,3.79705227 3.75279054,2.94703542 3.75279054,1.89849629 Z" id="Path" fill="#FFFFFF"></path>
                            <ellipse id="Oval" fill="#FF9500" cx="1.87639527" cy="1.89849629" rx="1" ry="1"></ellipse>
                            <path d="M1.87651326,0 C0.840036113,0 0,0.850016841 0,1.89849629 C0,2.94703542 0.839977122,3.79705227 1.87651326,3.79705227 L1.87651326,0 Z" id="Path" fill="#222222" opacity="0.2"></path>
                        </g>
                        <path d="M15.757933,5.11926089 C15.541376,5.11926089 15.3287123,5.13573478 15.1205321,5.1664741 C14.3504596,3.88652458 12.9586189,3.03167301 11.3692753,3.03167301 C10.7764717,3.03167301 10.211394,3.15128777 9.69557411,3.36688083 C8.89641897,2.52074371 7.77104194,1.99280333 6.52308099,1.99280333 C6.27744121,1.99280333 6.03663873,2.01345538 5.80197134,2.05273009 C5.68717427,2.32538488 5.60653316,2.6163042 5.56612412,2.92017582 C3.92905655,3.13511232 2.66428308,4.55019548 2.66428308,6.26521085 C2.66428308,6.36817265 2.66959229,6.4699407 2.67849998,6.57051498 C1.12974239,7.03685734 4.19158397e-15,8.4877533 4.19158397e-15,10.20635 C4.19158397e-15,12.3015779 1.67865643,14 3.74936905,14 L15.7578741,14 C18.1815906,14 20.1464138,12.0119717 20.1464138,9.55963045 C20.1464138,7.10728918 18.1816496,5.11926089 15.757933,5.11926089 Z" id="Path" fill="#222222" opacity="0.2"></path>
                    </g>
                    <g id="Group" transform="translate(0.000000, 3.000000)">
                        <path d="M17.4893941,2.86421527 C17.2668305,2.86421527 17.04821,2.87934237 16.8342835,2.90745169 C16.0427307,1.73487546 14.6121524,0.951765684 12.9786005,0.951765684 C12.3693045,0.951765684 11.788486,1.06132429 11.2583015,1.25882329 C10.4369566,0.483672171 9.28020165,0 7.99745664,0 C5.94174746,0 4.20849265,1.24064819 3.66485161,2.93663345 C1.57816127,3.29381369 0,4.94633676 0,6.93210763 C0,9.17876459 2.01947062,11 4.51066844,11 L17.4893316,11 C19.9805294,11 22,9.17870814 22,6.93210763 C22,4.68550713 19.9805294,2.86421527 17.4893941,2.86421527 Z" id="Path" fill="#77BC1F"></path>
                        <path d="M7.99745664,0 C5.94174746,0 4.20849265,1.24064819 3.66485161,2.93663345 C1.57816127,3.29381369 0,4.94633676 0,6.93210763 C0,9.17876459 2.01947062,11 4.51066844,11 L10.7010162,11 L10.7010162,0.813984873 C9.94764213,0.303614495 9.01238677,0 7.99745664,0 Z" id="Path" fill="#218649" opacity="0.5"></path>
                        <g transform="translate(15.602485, 5.259716)">
                            <path d="M3.98161045,1.79532743 C3.98161045,0.803824879 3.09010424,0 1.9909304,0 C0.891255861,0 0,0.803824879 0,1.79532743 C0,2.78688642 0.891193272,3.5907113 1.9909304,3.5907113 C3.09010424,3.5907113 3.98161045,2.78688642 3.98161045,1.79532743 Z" id="Path" fill="#FFFFFF"></path>
                            <ellipse id="Oval" fill="#FF9500" cx="1.99086781" cy="1.79532743" rx="1" ry="1"></ellipse>
                            <path d="M1.99099299,0 C0.891318449,0 6.25881921e-05,0.803824879 6.25881921e-05,1.79532743 C6.25881921e-05,2.78688642 0.891255861,3.5907113 1.99099299,3.5907113 L1.99099299,0 Z" id="Path" fill="#222222" opacity="0.2"></path>
                        </g>
                        <g transform="translate(2.378351, 5.374581)">
                            <path d="M3.98161045,1.79532743 C3.98161045,0.803824879 3.09010424,0 1.9909304,0 C0.891255861,0 0,0.803824879 0,1.79532743 C0,2.78688642 0.891193272,3.5907113 1.9909304,3.5907113 C3.09010424,3.5907113 3.98161045,2.78688642 3.98161045,1.79532743 Z" id="Path" fill="#FFFFFF"></path>
                            <ellipse id="Oval" fill="#FF9500" cx="1.99086781" cy="1.79532743" rx="1" ry="1"></ellipse>
                            <path d="M1.99099299,0 C0.891318449,0 6.25881926e-05,0.803824879 6.25881926e-05,1.79532743 C6.25881926e-05,2.78688642 0.891255861,3.5907113 1.99099299,3.5907113 L1.99099299,0 Z" id="Path" fill="#222222" opacity="0.2"></path>
                        </g>
                        <g transform="translate(9.009257, 2.941318)">
                            <path d="M3.98161045,1.79532743 C3.98161045,0.803824879 3.09010424,0 1.9909304,0 C0.891255861,0 0,0.803824879 0,1.79532743 C0,2.78688642 0.891193272,3.5907113 1.9909304,3.5907113 C3.09004165,3.59076775 3.98161045,2.78694287 3.98161045,1.79532743 Z" id="Path" fill="#FFFFFF"></path>
                            <ellipse id="Oval" fill="#FF9500" cx="1.99080523" cy="1.79532743" rx="1" ry="1"></ellipse>
                            <path d="M1.9909304,0 C0.891255861,0 0,0.803824879 0,1.79532743 C0,2.78688642 0.891193272,3.5907113 1.9909304,3.5907113 L1.9909304,0 Z" id="Path" fill="#222222" opacity="0.2"></path>
                        </g>
                    </g>
                </g>
            </g>
        </g>
    </g>
</svg>