<?xml version="1.0" encoding="UTF-8"?>
<svg width="31px" height="29px" viewBox="0 0 31 29" version="1.1" xmlns="http://www.w3.org/2000/svg" xmlns:xlink="http://www.w3.org/1999/xlink">
    <title>cat-footprint-svgrepo-com</title>
    <g id="Page-1" stroke="none" stroke-width="1" fill="none" fill-rule="evenodd">
        <g id="Map/Level" transform="translate(-181.000000, -421.000000)" stroke="#FFFFFF" stroke-width="2">
            <g id="Level-Lock" transform="translate(158.000000, 397.000000)">
                <g id="cat-footprint-svgrepo-com" transform="translate(24.000000, 25.000000)">
                    <ellipse id="Oval" cx="10.5" cy="5" rx="3.5" ry="5"></ellipse>
                    <ellipse id="Oval" cx="19.5" cy="5" rx="3.5" ry="5"></ellipse>
                    <ellipse id="Oval" cx="3.5" cy="15" rx="3.5" ry="5"></ellipse>
                    <ellipse id="Oval" cx="25.5" cy="15" rx="3.5" ry="5"></ellipse>
                    <path d="M18.5714286,19 C17.2604286,17.712 17.2142857,15 14.5,15 C11.7857143,15 11.7857143,17.6666667 10.4285714,19 C9.07142857,20.3333333 5,20.4253333 5,23.6666667 C5,25.508 6.51864286,27 8.39285714,27 C9.96307143,27 13.3925714,25.6666667 14.5,25.6666667 C15.6074286,25.6666667 19.0369286,27 20.6071429,27 C22.4813571,27 24,25.508 24,23.6666667 C24,20.6093333 19.8824286,20.288 18.5714286,19 Z" id="Path"></path>
                </g>
            </g>
        </g>
    </g>
</svg>