<?xml version="1.0" encoding="UTF-8"?>
<svg width="358px" height="673px" viewBox="0 0 358 673" version="1.1" xmlns="http://www.w3.org/2000/svg" xmlns:xlink="http://www.w3.org/1999/xlink">
    <title>Path</title>
    <g id="Page-1" stroke="none" stroke-width="1" fill="none" fill-rule="evenodd" stroke-linecap="square">
        <g id="Map/Level" transform="translate(-17.000000, -103.000000)" stroke="#C1F197" stroke-width="20">
            <g id="Path" transform="translate(27.720955, 113.500000)">
                <path d="M153.06228,590.56228 C150.398712,529.228946 123.232046,498.56228 71.5622795,498.56228 C19.8925135,498.56228 -6.88932467,546.655294 -8.7832349,642.841324" id="Line" transform="translate(72.139522, 570.701802) rotate(-90.000000) translate(-72.139522, -570.701802) "></path>
                <path d="M201.139522,217.639522 C198.475955,156.306189 171.309288,125.639522 119.639522,125.639522 C67.9697563,125.639522 40.8030896,205.399204 38.1395223,364.918567" id="Line" transform="translate(119.639522, 245.279045) rotate(-90.000000) translate(-119.639522, -245.279045) "></path>
                <path d="M300.639522,526.139522 C297.975955,368.992219 270.809288,290.418567 219.139522,290.418567 C167.469756,290.418567 140.30309,321.085234 137.639522,382.418567" id="Line" transform="translate(219.139522, 408.279045) rotate(90.000000) translate(-219.139522, -408.279045) "></path>
                <path d="M301.029045,199.75 C298.365477,42.6026964 271.198811,-35.9709554 219.529045,-35.9709554 C167.859279,-35.9709554 140.43293,8.60269641 137.25,97.75" id="Line" transform="translate(219.139522, 81.889522) rotate(90.000000) translate(-219.139522, -81.889522) "></path>
            </g>
        </g>
    </g>
</svg>