<?xml version="1.0" encoding="UTF-8"?>
<svg width="39px" height="42px" viewBox="0 0 39 42" version="1.1" xmlns="http://www.w3.org/2000/svg" xmlns:xlink="http://www.w3.org/1999/xlink">
    <title>ball-of-wool-svgrepo-com</title>
    <g id="Page-1" stroke="none" stroke-width="1" fill="none" fill-rule="evenodd">
        <g id="Map/Level" transform="translate(-94.000000, -583.000000)" fill="#FFFFFF" fill-rule="nonzero">
            <g id="Wool-Level-2" transform="translate(74.000000, 566.000000)">
                <g id="ball-of-wool-svgrepo-com" transform="translate(20.000000, 17.000000)">
                    <path d="M35.356582,25.188171 C34.1617772,24.5374953 32.9768198,24.2156028 32.3308214,24.0749184 C33.2102726,21.9842577 33.6984742,19.6817091 33.6984742,17.264398 C33.6983941,7.74469772 26.1398369,0 16.849197,0 C14.5065023,0 12.2742893,0.493010701 10.2452668,1.38215263 C10.2011541,1.39618006 10.1592831,1.41504735 10.1201341,1.43834437 C8.4367275,2.19270816 6.89550621,3.22031965 5.55131082,4.46736602 C5.49614997,4.50485452 5.44731381,4.55079229 5.40712404,4.60378479 C2.08394319,7.75921734 0,12.2668609 0,17.264316 C0,18.6198904 0.153793886,19.9392067 0.443448379,21.2055305 C0.448492114,21.2340775 0.454816798,21.2622144 0.4634632,21.2892849 C0.807157711,22.7581451 1.33386775,24.1548173 2.01861481,25.451903 C2.04383348,25.5359035 2.08562443,25.6112907 2.13950433,25.6751934 C4.00184342,29.0812329 6.95779233,31.7776979 10.5171481,33.2620621 C10.5533349,33.2817497 10.5912029,33.2976639 10.630512,33.3096405 C11.7948943,33.7850964 13.0226835,34.1315984 14.2971472,34.3307715 C14.3168418,34.334627 14.3366965,34.3375801 14.3567914,34.3393028 C15.1702738,34.4634168 16.00241,34.5284679 16.849117,34.5284679 C21.7663583,34.5284679 26.19804,32.3585646 29.281043,28.9045366 C31.0151271,29.2734332 33.1896974,30.1253328 33.1896974,30.9336734 C33.1896974,30.9760838 33.1468657,31.3697541 31.6607252,32.1284656 C30.5479011,32.6966994 28.992029,33.2881482 27.3447291,33.9142964 C22.4599919,35.7712487 16.9234921,37.8758547 16.9234921,41.3776253 C16.9234921,41.7214202 17.1953734,42 17.5309019,42 L23.7290917,42 C23.9294801,42 24.1168188,41.8987728 24.2301828,41.7293773 C24.2445134,41.7080491 25.7033537,39.5837554 29.8787656,38.2920837 C32.5581097,37.4633992 34.5753635,36.5713862 36.0457323,35.565349 C38.0059839,34.2241302 39,32.6512538 39,30.8902787 C39,28.4582019 37.740107,26.4863232 35.356582,25.188171 Z M16.849197,1.24474948 C24.3202495,1.24474948 30.582887,6.64235533 32.1209059,13.8312881 C30.5618314,11.3214452 28.7198274,9.15055752 26.6208331,7.355047 C24.3611598,5.42213333 21.8027852,3.91865577 19.0167221,2.88628644 C17.0283697,2.14955947 15.2194302,1.75974469 13.7766018,1.5560599 C14.7705378,1.35229308 15.7977785,1.24474948 16.849197,1.24474948 Z M10.5761518,2.59236675 C11.2191079,2.57161272 14.5374852,2.55012041 18.6037763,4.05687924 C22.751808,5.59374371 28.5155161,9.08247119 32.4800519,16.9735955 C32.4817331,17.070311 32.4836546,17.1670264 32.4836546,17.2641519 C32.4836546,17.8184403 32.4559541,18.3662482 32.4020742,18.9060991 C31.9345279,18.0706879 31.4386407,17.2681715 30.9157735,16.4985498 C30.9024837,16.475827 30.8875927,16.4541706 30.8716609,16.4334166 C29.503928,14.4315963 27.9500574,12.657414 26.222378,11.1260457 C26.2190155,11.1230925 26.2159733,11.1198112 26.2126108,11.1170222 C26.21157,11.1161198 26.2103691,11.1154636 26.2093283,11.1145612 C25.8394544,10.7870905 25.4618949,10.470366 25.0762493,10.1653721 C23.3764305,8.82120012 21.5233783,7.69506853 19.5402298,6.79608279 C19.5246182,6.78820774 19.5086064,6.78115301 19.4924344,6.77475454 C18.7051314,6.41972121 17.8971731,6.10061778 17.0701607,5.81818253 C17.0502259,5.81022545 17.0299709,5.80333479 17.0093156,5.79751053 C16.7061311,5.69472477 16.4011052,5.59513825 16.0927969,5.5021963 C12.6081365,4.45177999 9.57220834,4.25793901 7.7188359,4.26835704 C8.60621301,3.61202116 9.5632417,3.04887333 10.5761518,2.59236675 Z M11.1865238,17.2931912 C11.1874845,17.3141093 11.1894059,17.3346992 11.1923681,17.3549611 C9.98795621,17.9956289 8.8630432,18.4913466 7.86606492,18.8718098 C7.68200863,18.942029 7.5011547,19.0082286 7.32198202,19.0724594 C7.93227395,15.5416497 9.68637288,12.4715301 12.5444894,9.93773401 C12.6365575,9.85611244 12.7283055,9.77695182 12.8198933,9.69893964 C11.9434843,11.4799305 11.042337,14.1224187 11.1865238,17.2931912 Z M6.02782368,19.5018135 C5.19592765,19.7551275 4.43952753,19.9428161 3.78079973,20.0815317 C4.00624668,16.2443335 5.3739795,12.7391996 7.85237478,9.65218156 C9.83800517,7.17908894 11.8316415,5.91875343 11.8515762,5.90628461 C11.8841604,5.88594074 11.9138624,5.86264373 11.9413227,5.83737795 C12.9494292,5.99176167 14.0444801,6.21554423 15.1933309,6.53522189 C14.2916231,7.04447487 13.061272,7.83887015 11.7833657,8.96656035 C9.52977692,10.9553376 6.71689395,14.3914828 6.02782368,19.5018135 Z M15.2705881,8.03582833 C15.3131796,7.98414834 15.3457637,7.92721832 15.3692211,7.86774532 C16.060533,7.45274679 16.6005329,7.18934291 16.8744157,7.06383436 C17.3117796,7.21747979 17.7601116,7.38802376 18.2172501,7.57776315 C17.427145,8.5646869 16.182063,10.6586289 15.6901788,14.4425885 C14.5614229,15.3163085 13.4510006,16.0565628 12.3869327,16.6847618 C12.3682789,11.6455526 15.2302382,8.0853755 15.2705881,8.03582833 Z M19.3884374,8.09825448 C19.9858398,8.38151005 20.59381,8.69790643 21.2073043,9.05113507 C19.8682327,10.6865196 18.4868097,12.0831099 17.1134727,13.2747028 C17.7332917,10.1942472 18.8807014,8.65401946 19.3884374,8.09825448 Z M1.21489965,17.264316 C1.21489965,12.6620078 3.11951004,8.50742875 6.16280364,5.58283349 C6.67494288,5.53730588 8.13298258,5.44436393 10.1485551,5.62155247 C9.3304293,6.27345863 8.14443106,7.3364258 6.94482273,8.82357904 C5.05326201,11.1685381 2.78950566,15.0388772 2.5530906,20.3066268 C2.12549396,20.3726623 1.77867713,20.4126118 1.52336807,20.4368112 C1.32145856,19.4110864 1.21489965,18.3502521 1.21489965,17.264316 Z M1.81350292,21.6605605 C2.95450785,21.5416145 5.29151844,21.1760811 8.23681947,20.0584808 C10.5368427,19.1856632 13.4853461,17.7303383 16.5475337,15.3371446 C16.604776,15.3053983 16.6570548,15.2648746 16.7016478,15.2163118 C18.5571818,13.7487642 20.4505039,11.9341402 22.2645672,9.69434587 C23.1652342,10.2725875 24.071105,10.9337633 24.966488,11.6900138 C20.2903853,17.3654611 14.552136,20.568308 10.5105832,22.2659547 C6.91119783,23.7778815 3.99744016,24.391725 2.94329955,24.5813823 C2.47791493,23.6562285 2.09763332,22.6790665 1.81350292,21.6605605 Z M5.12635613,27.8511671 C4.55673432,27.1897453 4.0396314,26.4799247 3.58137205,25.7285961 C4.91884247,25.4650281 7.62212428,24.8207509 10.9340968,23.4334303 C15.1110299,21.6836114 21.0423822,18.3778147 25.8855686,12.5045069 C25.9613847,12.5748901 26.0371208,12.6460936 26.1126167,12.7179534 C26.1110155,12.7313246 26.1090941,12.7446137 26.1081334,12.758231 C26.1065322,12.7853835 25.9694707,14.8671848 25.00964,17.7025295 C25.0037156,17.7078616 24.9973909,17.7126194 24.9916266,17.7181976 C20.1626107,22.3750569 15.0352938,24.8794036 11.5842583,26.160165 C7.83636293,27.5513411 5.19824937,27.8412413 5.17190987,27.8440303 C5.15661854,27.8455889 5.14148734,27.848378 5.12635613,27.8511671 Z M15.9040171,25.630076 C18.3763279,24.3929554 21.17456,22.6757852 23.9564601,20.3145018 C23.921314,20.3889046 23.8857677,20.4636355 23.8495009,20.5384485 C22.8445967,22.6119645 21.5999951,24.4515261 20.1231414,26.0531136 C18.2218935,26.4529362 16.7692178,26.0353947 15.9040171,25.630076 Z M18.6970454,27.4593015 C18.0422405,28.0476331 17.3499679,28.5967535 16.6199873,29.1060065 C15.0437001,29.533884 13.4821437,29.332332 11.9777497,28.5040576 C11.5229329,28.2536148 11.14097,27.980121 10.8423489,27.7385375 C11.2012547,27.6181149 11.5727298,27.4877665 11.956614,27.3457696 C12.7421557,27.0552132 13.6118397,26.7032151 14.5435697,26.2798493 C15.1447349,26.6826251 16.5694699,27.460532 18.6115421,27.460532 C18.639803,27.460532 18.6686244,27.4596296 18.6970454,27.4593015 Z M6.16984885,28.9525251 C6.89326455,28.8266064 8.03290847,28.5904371 9.47197412,28.1690401 C10.1182127,28.8092157 11.8462123,30.2790602 14.2844178,30.5330305 C13.1983335,31.1107799 12.0445992,31.615111 10.8251362,32.0462698 C9.09377406,31.3027342 7.52004869,30.2486265 6.16984885,28.9525251 Z M14.3962606,33.0861861 C13.7900517,32.98783 13.1953713,32.8541183 12.6143011,32.6862814 C14.240145,32.0085352 15.753986,31.188464 17.1457366,30.2309896 C17.1778404,30.2126145 17.2079427,30.1916964 17.2357233,30.1681533 C18.2357438,29.4731805 19.1738785,28.7087268 20.0433223,27.8734797 C20.2881436,27.6382948 20.5275209,27.3975316 20.7617744,27.1514364 C20.8545631,27.0939322 20.9292584,27.0124747 20.980096,26.9170718 C22.5588651,25.2115501 23.8876891,23.2581285 24.9374265,21.0920806 C26.4399791,17.9916093 27.0038367,15.2337846 27.2090286,13.8234951 C28.0867186,14.7615279 28.9397503,15.8075965 29.7517115,16.9737596 C29.5952757,17.8234443 28.9532803,20.7713366 27.1175209,23.9233238 C24.250758,28.8451456 19.9707086,31.9269957 14.3962606,33.0861861 Z M18.2744925,33.2166165 C20.0696618,32.499249 21.7178423,31.5482552 23.1989391,30.3682287 C25.1668764,28.8001922 26.8446788,26.8320869 28.1855117,24.5183819 C29.5913528,22.0927037 30.3242155,19.8188661 30.6844022,18.3979125 C31.1682005,19.1834483 31.6336651,20.0172189 32.0765531,20.9026694 C30.5690368,27.5287824 25.0365399,32.5874331 18.2744925,33.2166165 Z M29.5277056,37.100901 C25.7916591,38.256564 24.0044956,40.0708598 23.4355944,40.7555786 L18.2390262,40.7555786 C18.5347652,39.8424835 19.4857895,38.9297984 21.1220411,37.9830702 C23.0128013,36.888931 25.5388318,35.9288316 27.7675222,35.0816079 C32.0064212,33.4701766 34.4047572,32.4830888 34.4047572,30.9339195 C34.4047572,29.8823548 33.4752689,28.9985449 31.6423115,28.3067713 C31.1127194,28.106942 30.58697,27.9521482 30.157532,27.8400108 C30.774629,27.0265841 31.3221545,26.1552431 31.7913819,25.2355033 C32.1953611,25.3091678 33.5175402,25.5900445 34.8140202,26.302408 C36.7857203,27.385637 37.7852605,28.9293101 37.7852605,30.8907708 C37.7852605,33.3506564 35.0842203,35.3821722 29.5277056,37.100901 Z" id="Shape"></path>
                </g>
            </g>
        </g>
    </g>
</svg>