<?xml version="1.0" encoding="UTF-8"?>
<svg width="48px" height="48px" viewBox="0 0 48 48" version="1.1" xmlns="http://www.w3.org/2000/svg" xmlns:xlink="http://www.w3.org/1999/xlink">
    <title>fish-svgrepo-com</title>
    <g id="Page-1" stroke="none" stroke-width="1" fill="none" fill-rule="evenodd">
        <g id="Map/Level" transform="translate(-256.000000, -560.000000)" fill-rule="nonzero">
            <g id="Fish-Level-2" transform="translate(245.000000, 546.000000)">
                <g id="fish-svgrepo-com" transform="translate(11.871795, 14.666667)">
                    <circle id="Oval" fill="#FFFFFF" cx="15.1666667" cy="22.9444444" r="1.94444444"></circle>
                    <path d="M43.7462286,12.4769171 C43.3430935,12.2462879 42.8464105,12.2462879 42.4432753,12.4769171 C38.0523229,15.0590767 34.7428217,19.9780908 33.452898,22.0954617 L32.5017421,23.7222222 C32.5017421,23.7222222 31.1987889,25.8137715 31.1987889,25.8137715 C28.9055912,29.0285603 24.5537273,34.0250391 19.7458299,34.0250391 C13.6870973,34.0250391 8.34498898,26.0848983 6.92476995,23.7738654 C8.34498898,21.4628326 13.6740677,13.5226917 19.7458299,13.5226917 C24.3582843,13.5226917 28.5668233,18.1447574 30.9251687,21.3595462 L31.2899956,20.7398279 C31.2899956,20.7398279 31.7590588,20.0813772 32.5017421,19.1259781 C29.7264517,15.5109546 25.1139972,10.8888889 19.6676527,10.8888889 C11.0811908,10.8888889 4.46218832,22.5989828 4.18856813,23.1025039 L3.88888889,23.7222222 L4.24068626,24.3419405 C4.51430645,24.8454617 11.1333089,36.5555556 19.7197708,36.5555556 C26.3127142,36.5555556 31.7329997,29.6611894 34.0522565,26.2269171 C34.0001383,26.3043818 35.5376232,23.7222222 35.5376232,23.7222222 L35.5376232,23.7222222 L35.6288299,23.5802034 C36.3332161,22.3244638 37.1532208,21.1359192 38.078382,20.029734 C38.078382,20.029734 38.078382,20.029734 38.078382,20.029734 C39.1839804,18.6161111 40.4326297,17.3182747 41.8048283,16.1564945 L41.8048283,31.3137715 C40.0189375,29.8003336 38.437953,28.0645138 37.1011671,26.1494523 L36.8926945,26.485133 L36.8926945,26.485133 L35.5897413,28.5379499 C37.4152621,31.082232 39.7204369,33.2524112 42.3781277,34.928795 C42.5754376,35.0448328 42.8001722,35.1071851 43.0296043,35.1095462 C43.2569295,35.1041989 43.4799155,35.0467509 43.6810809,34.9417058 C44.0858228,34.7101623 44.334413,34.281557 44.3325576,33.8184664 L44.3325576,13.6001565 C44.3482138,13.1500356 44.1260136,12.7243633 43.7462286,12.4769171 Z" id="Path" fill="#FFF6F6"></path>
                    <rect id="Rectangle" fill-opacity="0" fill="#000000" x="0" y="0" width="46.6666667" height="46.6666667"></rect>
                </g>
            </g>
        </g>
    </g>
</svg>