<?xml version="1.0" encoding="UTF-8"?>
<svg width="178px" height="216px" viewBox="0 0 178 216" version="1.1" xmlns="http://www.w3.org/2000/svg" xmlns:xlink="http://www.w3.org/1999/xlink">
    <title>kocheng</title>
    <g id="Page-1" stroke="none" stroke-width="1" fill="none" fill-rule="evenodd">
        <g id="iPhone-14" transform="translate(-116.000000, -581.000000)">
            <g id="kocheng" transform="translate(116.000000, 581.000000)">
                <path d="M86.0002662,216 C39.6084479,216 2,209.957491 2,202.502965 C2,198.797032 11.2994353,195.439383 26.3538599,193 C24.3752567,194.311308 23.8724283,195.318393 23.7187651,196.116368 C23.4958775,197.285706 23.7910324,198.35923 24.5699981,199.221547 C25.9476415,200.744063 28.4648265,201.15459 29.83182,201.263691 C30.7385847,202.121112 32.657092,203.458297 35.7828439,203.458297 C36.0886488,203.458297 36.406625,203.445708 36.7367726,203.418433 C37.5104133,203.679995 39.0995337,204.104509 41.2683142,204.104509 C42.6680181,204.104509 44.3088667,203.92827 46.1277212,203.416335 L52.4438853,202.438623 L66.4234286,204.094019 C66.4972173,204.102411 66.5717668,204.107307 66.6463162,204.107307 L89.4942012,204.107307 C89.5687506,204.107307 89.6425394,204.102411 89.7170888,204.094019 L103.692829,202.438623 L110.008232,203.416335 C111.827086,203.92827 113.467935,204.104509 114.8684,204.104509 C117.038702,204.104509 118.629343,203.679995 119.402984,203.418433 C119.733892,203.445708 120.051869,203.458297 120.358434,203.458297 C123.484186,203.458297 125.39889,202.121112 126.304894,201.263691 C127.673409,201.153891 130.192115,200.743364 131.568237,199.220148 C131.767543,198.999848 131.934899,198.765561 132.070305,198.519385 C135.053804,198.550157 138.693035,198.570438 142.497339,198.578831 C143.280869,198.580229 144.417367,198.582327 145.778275,198.582327 C151.503369,198.582327 161.18719,198.551555 165.118532,198.361328 C165.374131,198.349439 165.628207,198.334053 165.87848,198.315869 C168.553893,199.634172 170,201.041293 170,202.502965 C170,209.957491 132.392085,216 86.0002662,216" id="Fill-3" fill="#D7C26A"></path>
                <path d="M167.266383,195.780222 C163.349072,195.974691 152.707231,196.020656 143.514155,195.992369 C135.239258,195.967619 128.127137,195.879224 128.127137,195.780222 C128.164767,195.663541 124.601181,194.42248 121.376266,193.071809 C118.651835,191.933285 116.168237,190.720509 116.288653,190.045174 C116.552065,188.574286 115.039328,185.678476 117.108993,184.57531 C119.182421,183.472144 122.595487,182.050757 122.595487,182.050757 L124.416792,180.816767 L125.620961,180 C125.620961,180 129.248519,182.160367 136.838545,184.062621 C140.165061,184.893531 144.251709,185.678476 149.132355,186.205308 C165.140272,187.94138 176.56106,185.575938 177.79157,188.942008 C179.02208,192.308078 174.713414,195.408964 167.266383,195.780222" id="Fill-4" fill="#FFFFFF"></path>
                <path d="M137,195 C134.964732,194.987925 133.063834,194.971323 131.408308,194.95321 C130.806564,193.627256 129.04953,191.858311 123.699558,189.414691 C122.387989,188.816238 121.096138,188.283441 120,187.854034 C121.926457,186.320546 123.693715,184.70178 125.298123,183 C127.006959,183.748632 129.328493,184.634614 132.288286,185.483617 C132.337944,188.318156 133.32162,191.897554 137,195" id="Fill-5" fill="#CEC0DC"></path>
                <path d="M125.977852,194.754447 C126.220556,194.892674 126.465571,195.070694 126.649718,195.296885 L126.651259,195.296187 C126.448621,195.019732 126.196671,194.853579 125.977852,194.754447 M123.502179,195.735303 C123.334813,196.135325 123.405389,196.503932 123.593928,196.805519 C123.389258,196.470422 123.352962,196.092042 123.502179,195.735303 M145.751666,198 C144.373262,198 143.222153,197.997906 142.42855,197.996509 C137.938143,197.986736 133.675031,197.960207 130.424341,197.921811 C125.291347,197.861074 124.516236,197.851301 124.039303,197.436618 C123.658682,197.28373 122.886653,196.998898 122.189361,196.741292 C112.893418,193.309341 110.962575,192.157445 111.313147,190.25577 C111.353212,190.04075 111.257672,189.459915 111.188328,189.036157 C110.941771,187.531013 110.52879,185.010805 113.025172,183.726965 C115.197949,182.609277 118.652819,181.220719 118.799212,181.162775 C119.691437,180.803244 120.73622,181.169757 121.13148,181.978876 C121.52597,182.787996 121.123005,183.733946 120.230009,184.092081 C120.196107,184.105345 116.789008,185.475054 114.770328,186.513156 C114.41051,186.698158 114.513756,187.515655 114.685574,188.565625 C114.769558,189.078742 114.855852,189.603727 114.856623,190.115448 C116.304371,191.108871 121.672363,193.09083 123.523847,193.774986 C124.228073,194.034686 124.823661,194.254594 125.240495,194.417255 C125.367625,194.466124 125.541756,194.533841 125.730525,194.625295 C129.124527,194.78656 157.677285,194.936656 165.154104,194.580615 C170.284786,194.335575 173.167183,192.822054 174.077901,191.600347 C174.483178,191.055116 174.569472,190.530829 174.349883,189.950692 C174.348342,189.946504 174.114114,189.552765 172.149368,189.311216 C170.25859,189.078742 167.480209,189.073157 164.26342,189.066176 C159.417818,189.055704 153.386435,189.043138 146.475925,188.320585 C129.874212,186.585063 121.989804,182.142934 121.662347,181.954442 C120.837924,181.481117 120.593679,180.491185 121.116841,179.744198 C121.638462,178.99791 122.729473,178.775908 123.553125,179.247836 C123.6556,179.30578 131.207157,183.499378 146.881972,185.137863 C153.594467,185.84017 159.514129,185.852038 164.271125,185.86251 C171.926697,185.878567 176.547316,185.88834 177.693032,188.909099 C178.270899,190.431696 178.027424,192.024105 177.008839,193.392417 C175.128847,195.916814 170.875751,197.515506 165.340563,197.779395 C161.358679,197.969283 151.550361,198 145.751666,198" id="Fill-6" fill="#3B0372"></path>
                <path d="M110.427693,93.9736186 C120.421253,120.30846 136.157494,137.500787 136.366803,154.739234 C136.538056,168.837936 130.468091,180.630609 116.505269,189.521235 C116.505269,189.521235 130.068501,193.661442 130.658372,196.801188 C131.282494,200.100582 125.421838,200.153798 125.421838,200.153798 C125.421838,200.153798 123.583724,202.818148 119.112119,202.264701 C119.112119,202.264701 115.599532,203.868277 110.362998,202.339203 L103.672717,201.289074 L89.4320843,203 L66.5717213,203 L52.3272834,201.289074 L45.6370023,202.339203 C45.248829,202.452731 44.868267,202.54852 44.4991218,202.630118 C39.8981265,203.637675 36.8916862,202.264701 36.8916862,202.264701 C32.420082,202.818148 30.5781616,200.153798 30.5781616,200.153798 C30.5781616,200.153798 24.7213115,200.100582 25.3416276,196.801188 C25.9353044,193.661442 39.4947307,189.521235 39.4947307,189.521235 C33.8662178,185.934474 29.5201991,181.879412 26.3463115,177.387979 C21.6539813,170.746618 19.530445,163.154463 19.6331967,154.739234 C19.7321429,146.700066 23.2066745,138.675088 27.8990047,129.731246 C33.2687354,119.485385 40.2406323,108.033295 45.5761124,93.9736186 C42.6876464,92.5013083 39.9704333,90.8125861 37.4511124,88.8790702 C33.6074356,85.9415451 30.2166276,82.4399301 27.3433841,78.2961748 L19.2107728,81.2585341 L20.4666276,70.2676491 L13,70.2676491 C18.7617096,55.1542953 24.2303864,40.303474 23.8688525,30.8310199 C9.34279859,-2.49988542 19.7663934,-7.31054398 43.4944379,9.22899952 C59.6302693,1.53041321 75.2675644,-1.02047966 90.4025176,1.58362924 C97.8957845,2.87138632 105.263466,5.41873146 112.509368,9.22899952 C136.237412,-7.31054398 146.661007,-2.49988542 132.134953,30.8310199 C131.845726,38.3593149 135.24034,49.2792451 139.536885,61.0328933 C140.648126,64.069755 141.816452,67.1633804 143,70.2676491 L135.533372,70.2676491 L136.793033,81.2585341 L128.660422,78.2961748 C123.89959,85.1610433 117.719262,90.2626871 110.427693,93.9736186" id="Fill-7" fill="#FFFFFF"></path>
                <path d="M87,200 L68,200 L69.0487856,183 C71.7523219,184.834489 74.4558581,185.751394 77.1587285,185.751394 C79.8615989,185.751394 82.5638033,184.834489 85.2660078,183 L87,200" id="Fill-8" fill="#CEC0DC"></path>
                <path d="M45,153.99643 C45,167.254797 37.5270857,178 28.3088291,178 C27.9661721,178 27.6249399,177.985721 27.2865572,177.953592 C22.8947062,171.270861 20.9071532,163.631415 21.0033251,155.163766 C21.0959351,147.07452 24.3479707,138.999554 28.7391094,130 C37.7586106,130.328425 45,140.945114 45,153.99643" id="Fill-9" fill="#FF6F03"></path>
                <path d="M115.189517,200 C114.083925,200 112.749485,199.853863 111.239242,199.414748 C111.162707,199.392968 111.085414,199.376106 111.007363,199.363459 L110.683036,199.312873 C109.123537,196.471624 107.548125,193.543255 107.597381,193.400631 C107.69968,193.116084 110.958108,182.106597 110.958108,182.106597 C133.93457,167.042498 116.949826,122.530304 108.042194,103.074354 C105.899967,98.3951462 100.951704,95.4021393 95.5366514,95.4021393 C95.1812555,95.4021393 94.824344,95.4147858 94.4651592,95.4407814 C89.1380087,95.8293103 83.8101005,96.0232234 78.4844656,96.0232234 C73.1330664,96.0232234 67.7831828,95.8279051 62.4340569,95.4351608 C62.0733565,95.4091652 61.7141717,95.3958161 61.3565024,95.3958161 C55.942208,95.3958161 50.9939445,98.3874178 48.85096,103.067328 C45.5372147,110.306049 41.1034797,121.013425 38.02616,132.385446 C35.8862065,130.484254 33.4188947,129.18588 30.7598661,128.670886 C31.8449984,126.636203 32.9869636,124.555853 34.1577243,122.421403 C38.6566278,114.226466 43.7549306,104.938309 47.8567606,94.1887772 C48.1416836,93.4426332 47.7999276,92.6156921 47.051247,92.2362969 C39.6909892,88.5111978 33.957672,83.6099734 29.5254525,77.2522929 C29.1965786,76.7815618 28.6403726,76.5152826 28.0637067,76.5152826 C27.8530455,76.5152826 27.6385955,76.5511143 27.432481,76.6262908 L22,78.5942279 L22.8721977,71.0014052 C41.3967382,80.0893262 59.9334031,84.6322328 78.4670368,84.6322328 C97.0180994,84.6322328 115.564615,80.0872184 134.124771,71 L135,78.5935253 L129.569035,76.6262908 C129.362162,76.5511143 129.14847,76.5152826 128.937051,76.5152826 C128.360385,76.5152826 127.803421,76.7815618 127.476063,77.2522929 C123.043086,83.6099734 117.310526,88.5111978 109.950269,92.2362969 C109.20083,92.6156921 108.859074,93.4426332 109.143997,94.1887772 C113.245069,104.936201 118.342614,114.223656 122.84076,122.417188 C129.231825,134.061108 134.750692,144.116487 134.869663,153.838841 C135.041678,167.89403 128.821112,178.718035 115.854085,186.929834 C115.306972,187.276208 115.019776,187.88043 115.112982,188.488868 C115.206188,189.096603 115.663884,189.602463 116.293594,189.793566 C122.704361,191.739723 128.744577,194.536006 129.212881,195.750071 C129.27426,196.073259 129.180297,196.178647 129.118917,196.248203 C128.599084,196.831347 126.793309,197.162264 125.694537,197.177721 C125.109535,197.182639 124.582125,197.437677 124.266133,197.894356 C124.216878,197.959697 123.145385,199.340976 120.600023,199.340976 C120.306764,199.340976 119.993046,199.322709 119.658868,199.281257 C119.586879,199.272826 119.514133,199.26861 119.441387,199.26861 C119.179197,199.26861 118.914734,199.324114 118.679066,199.425286 C118.5995,199.459713 117.316589,200 115.189517,200" id="Fill-10" fill="#CEC0DC"></path>
                <path d="M42.393247,200 C40.5204996,200 39.3932407,199.478304 39.3310609,199.44898 C39.1197835,199.343276 38.888448,199.289402 38.6557754,199.289402 C38.5882468,199.289402 38.5207182,199.293494 38.4538583,199.302359 C38.1576687,199.342594 37.8795312,199.361007 37.619446,199.361007 C35.3749572,199.361007 34.4295574,198.020964 34.3994704,197.977319 C34.121333,197.537457 33.6419471,197.268084 33.1284626,197.260583 C32.1556502,197.24558 30.5637146,196.924379 30.1043867,196.357673 C30.0495615,196.29016 29.9666552,196.187866 30.0141258,195.902809 C30.4320005,194.699156 35.762745,191.98429 41.419766,190.093226 C41.9753723,189.907734 42.3785378,189.416044 42.4607756,188.826152 C42.5430133,188.23626 42.2896141,187.65046 41.8075538,187.314255 C37.1855249,184.092695 33.5343026,180.45787 30.8344975,176.370226 C33.6613365,176.24952 36.3016362,175.032229 38.5608342,173 C40.177508,176.858507 42.6005129,180.155764 46.0337718,182.631946 C46.0337718,182.631946 48.90875,193.318196 48.9990109,193.594388 C49.0424699,193.733507 47.6464339,196.587492 46.267113,199.350778 L46.0832481,199.382148 C46.0137138,199.394423 45.9461852,199.41079 45.8793252,199.431931 C44.5448005,199.858153 43.3680652,200 42.393247,200" id="Fill-11" fill="#CEC0DC"></path>
                <path d="M28.0376264,178 C23.2119752,171.65278 20.894334,164.268385 21.0036949,155.712594 C21.1090054,147.601101 25.0638199,139.262793 30.2321353,130 C33.0747088,130.526124 35.7123318,131.852559 38,133.794838 C33.9471658,148.110716 32.093701,163.454437 37.3989201,174.452792 C34.6616571,176.59174 31.462648,177.872955 28.0376264,178" id="Fill-12" fill="#CE541F"></path>
                <path d="M113.30025,15 C105.99295,11.2965143 98.5628378,8.82058105 91.0060761,7.56882094 C87.1497865,6.92942326 83.2612588,6.6097589 79.3412606,6.6097589 C67.7424565,6.6097589 55.8619529,9.4074255 43.7005173,15 C34.9678329,9.13238311 28.0212921,6.02877669 23.4335049,6.02877669 C21.5406685,6.02877669 20.0500406,6.55672289 19,7.63709877 C19.2248991,5.21827064 20.1007005,4.14596396 20.7800031,3.67484698 C21.2489905,3.35007903 22.0795051,3.00027587 23.481862,3.00027587 C26.507637,3.00027587 32.1945896,4.62894336 42.6458712,11.6501106 C42.9559709,11.8587373 43.326709,11.9652921 43.6997497,11.9652921 C43.9737735,11.9652921 44.2493324,11.9078422 44.5026317,11.7912871 C56.3401512,6.3474755 67.9765664,3.62588005 79.33512,3.62588005 C90.6721816,3.62588005 101.732917,6.33775108 112.435195,11.7610104 C112.704613,11.897704 113.002432,11.9652231 113.299483,11.9652231 C113.672523,11.9652231 114.044029,11.8590822 114.354896,11.6501106 C124.806946,4.62804678 130.493131,3 133.518906,3 C134.921262,3 135.751777,3.35001006 136.219997,3.67484698 C136.8993,4.14603293 137.775101,5.2177189 138,7.63737464 C136.950727,6.55727463 135.458564,6.02877669 133.566495,6.02877669 C128.978708,6.02877669 122.033702,9.13176241 113.30025,15" id="Fill-13" fill="#FFFFFF"></path>
                <path d="M140,61.52157 C134.049227,64.3781962 127.228077,66 119.977489,66 C96.791713,66 78,49.4090529 78,28.9483624 C78,18.6265839 82.7813234,9.28977867 90.4958565,2.57037474 C98.0455164,3.84734292 105.468646,6.37334628 112.769079,10.1516917 C136.675696,-6.24935305 147.177737,-1.47885769 132.542362,31.5727293 C132.250959,39.0379519 135.671119,49.8663945 140,61.52157" id="Fill-14" fill="#FF6F03"></path>
                <path d="M38.5436228,200.052989 C38.8075157,200.052989 39.069892,200.108432 39.309519,200.217213 C39.4164411,200.262831 42.3185051,201.480482 46.7364368,200.199668 C46.8122681,200.177912 46.8888578,200.161068 46.9677223,200.148436 L53.6332939,199.109748 C53.8023977,199.083781 53.9745348,199.080974 54.1443969,199.100625 L68.2255116,200.778666 L90.7784996,200.778666 L104.855823,199.101327 C105.024927,199.080272 105.197822,199.083781 105.366168,199.109748 L112.031739,200.148436 C112.109845,200.161068 112.187193,200.177912 112.263783,200.199668 C116.683231,201.481885 119.58757,200.262831 119.7089,200.210195 C120.009951,200.080359 120.358016,200.027021 120.689399,200.066323 C123.916779,200.462147 125.244585,198.753928 125.299942,198.680939 C125.616159,198.224759 126.143945,197.97 126.729362,197.965087 C127.828916,197.949647 129.635976,197.619092 130.156179,197.036585 C130.217602,196.967105 130.311633,196.861833 130.25021,196.538997 C129.781572,195.32626 123.737059,192.533033 117.321731,190.589004 C116.691573,190.39811 116.233552,189.892803 116.140279,189.285732 C116.047007,188.67796 116.334407,188.074398 116.881909,187.728403 C129.858162,179.525582 136.083154,168.713409 135.911017,154.673586 C135.791961,144.961861 130.269168,134.917475 123.873555,123.286283 C119.372209,115.101709 114.271038,105.824407 110.167047,95.0887327 C109.881922,94.3434044 110.223921,93.5173674 110.973892,93.1383869 C118.339387,89.4173601 124.076025,84.5214939 128.512156,78.1707638 C128.960319,77.5286024 129.836929,77.2668252 130.606617,77.545446 L136.041446,79.5105299 L135.090522,71.2754247 C135.038198,70.8206481 135.196686,70.3672752 135.526552,70.0275964 C135.856418,69.6879176 136.32733,69.4942164 136.820992,69.4942164 L141.797801,69.4942164 C135.984573,54.2577979 131.349005,40.9745324 131.696313,32.0390151 C131.703138,31.8509285 131.746361,31.6656491 131.822951,31.490897 C141.157026,10.2286188 138.220838,5.11589153 136.52525,3.90469802 C135.065498,2.86109809 130.035607,1.56259871 114.923945,12.0203543 C114.371135,12.4025631 113.62723,12.4467775 113.027404,12.1332062 C91.859854,1.08494295 69.2803251,1.09554037 45.9144255,12.1640159 C45.3229413,12.4442509 44.6116437,12.3885268 44.0800663,12.0203543 C28.9684041,1.56294962 23.9400303,2.861449 22.4780028,3.90469802 C20.7824149,5.11589153 17.8469851,10.2286188 27.1810603,31.490897 C27.2576499,31.6656491 27.3008737,31.8516303 27.3076985,32.0397169 C27.6512143,40.9899723 23.0164051,54.2669215 17.202419,69.4942164 L22.1792275,69.4942164 C22.6728893,69.4942164 23.1430433,69.6879176 23.4729095,70.0275964 C23.8027757,70.3672752 23.9612631,70.8206481 23.9089395,71.2747228 L22.9610482,79.5112317 L28.3973944,77.545446 C29.1663238,77.2668252 30.0421753,77.5286024 30.491855,78.1707638 C34.9272279,84.5214939 40.6646244,89.4173601 48.0301189,93.1383869 C48.7793322,93.5173674 49.1213313,94.3434044 48.8362056,95.0887327 C44.7314572,105.826513 39.6295271,115.104516 35.1274226,123.290494 C28.7325687,134.920282 23.2097749,144.963264 23.0884448,154.674288 C22.9170661,168.711304 29.1412995,179.523476 42.1183104,187.729105 C42.6650541,188.0751 42.9524548,188.67796 42.8591823,189.285031 C42.7659098,189.892101 42.308647,190.39811 41.6784889,190.589004 C35.2624023,192.535139 29.2163725,195.329067 28.7424268,196.567772 C28.6885866,196.861131 28.7826174,196.966403 28.8447991,197.035883 C29.3657601,197.619092 31.1713035,197.949647 32.2746489,197.965087 C32.8570333,197.972807 33.4007438,198.250024 33.716202,198.702695 C33.7541177,198.752524 35.084957,200.464954 38.3146123,200.066323 C38.3904436,200.057199 38.4670332,200.052989 38.5436228,200.052989 M90.8899717,204 L68.1140396,204 C68.039725,204 67.9654103,203.995087 67.8918539,203.986666 L53.9563353,202.325468 L47.6600621,203.306606 C43.0373858,204.615492 39.5681037,203.74103 38.2986877,203.308712 C34.6170779,203.616809 32.408112,202.091061 31.4154803,201.146417 C30.0527917,201.036934 27.5435339,200.624968 26.170229,199.097116 C25.3937164,198.231777 25.099491,197.15449 25.3216767,195.981054 C25.5696451,194.681993 26.7344139,192.832007 33.60473,190.021235 C34.9659019,189.464695 36.3073577,188.969213 37.4455855,188.56988 C25.436182,180.010536 19.4379259,168.608839 19.6085463,154.637092 C19.7389761,144.173722 25.4331487,133.819133 32.0266806,121.830016 C36.2990162,114.059513 41.1196122,105.294536 45.0620817,95.2873465 C38.2964127,91.6484322 32.6879295,86.8564347 28.3594787,81.0173282 L21.5612024,83.4750867 C20.9955008,83.6807187 20.3547263,83.5965008 19.8716809,83.2554184 C19.3886355,82.9136342 19.133084,82.3641125 19.1975406,81.8047654 L20.2440126,72.7148486 L14.7401766,72.7148486 C14.1744751,72.7148486 13.6444143,72.4600895 13.3183397,72.0326838 C12.992265,71.605278 12.9111256,71.0578618 13.1007038,70.5651872 C19.1073014,54.9224173 24.0628771,41.2461351 23.8391747,32.4341373 C16.3167094,15.2202829 15.1762066,5.05251757 20.3524514,1.35514199 C24.8560725,-1.86282329 33.2460479,0.656765203 45.2948838,8.84512954 C69.0604143,-2.12481109 92.0805231,-2.13323288 113.747043,8.81930272 C125.774646,0.651992856 134.15173,-1.85945458 138.65156,1.35514199 C143.827805,5.05251757 142.687302,15.2206338 135.164837,32.4348391 C134.938101,41.2313969 139.893677,54.9146974 145.899516,70.5651872 C146.089094,71.0585636 146.007196,71.605278 145.681122,72.0333856 C145.355047,72.4600895 144.825745,72.7148486 144.260043,72.7148486 L138.756965,72.7148486 L139.805712,81.8040636 C139.870169,82.3634107 139.614617,82.9136342 139.13233,83.2554184 C138.650043,83.5965008 138.00851,83.6807187 137.442809,83.4750867 L130.644533,81.0173282 C126.315323,86.8564347 120.70684,91.6484322 113.94193,95.2873465 C117.883641,105.292431 122.70272,114.056705 126.975056,121.825805 C133.568588,133.817028 139.26276,144.172318 139.390915,154.637092 C139.562294,168.610944 133.564796,180.01194 121.555393,188.56988 C122.69362,188.969213 124.035076,189.464695 125.397006,190.021235 C132.268839,192.832709 133.432091,194.683397 133.677785,195.981054 C133.900729,197.152384 133.608778,198.230373 132.831507,199.095712 C131.459719,200.624267 128.948945,201.036232 127.584739,201.146417 C126.592866,202.091061 124.38845,203.616809 120.704565,203.308712 C119.435149,203.74103 115.962834,204.615492 111.339399,203.306606 L105.043884,202.325468 L91.1121574,203.986666 C91.0378427,203.995087 90.9642863,204 90.8899717,204" id="Fill-15" fill="#3B0372"></path>
                <path d="M30.7350485,198.326291 L34.8716982,196.095022 C35.6743431,195.665563 36.4072262,196.795593 35.7387387,197.41379 L32.2529444,200.635134 C30.6859852,201.946704 28.9963678,199.380345 30.7350485,198.326291" id="Fill-16" fill="#3B0372"></path>
                <path d="M36.5668569,198.816769 L40.568328,196.163707 C41.3549494,195.645901 42.4210853,196.464369 41.8274414,197.118587 L38.7709544,200.487809 C37.3430938,201.909689 34.8854429,200.048648 36.5668569,198.816769" id="Fill-17" fill="#3B0372"></path>
                <path d="M124.74725,200.635728 L121.261732,197.414121 C120.588698,196.787875 121.335321,195.666551 122.128703,196.095245 L126.264259,198.326696 C128.000503,199.387235 126.322517,201.944205 124.74725,200.635728" id="Fill-18" fill="#3B0372"></path>
                <path d="M117.229507,200.487709 L114.172516,197.118439 C113.576346,196.455861 114.655335,195.648517 115.432346,196.163546 L119.433344,198.816646 C121.113694,200.047149 118.658929,201.910304 117.229507,200.487709" id="Fill-19" fill="#3B0372"></path>
                <path d="M43,164 C43.6615,174.969587 46.0105,185.512835 49.657,195.729127 C49.657,195.729127 43.69675,200.907129 44.227,203.692736 C44.75725,206.478343 48.80125,205.299429 48.80125,205.299429 C48.80125,205.299429 48.85675,208.83473 51.925,208.888743 C54.15475,208.927632 55.324,207.892031 55.7965,207.322379 C55.93225,207.158901 56.1865,207.15602 56.3275,207.315897 C56.93725,208.002937 58.6135,209.402222 61.855,208.889463 C66.09475,208.218987 67.21075,199.728936 67.21075,199.728936 C67.21075,199.728936 69.4975,176.53451 70,166.570997" id="Fill-20" fill="#FFFFFF"></path>
                <path d="M44.7551221,163.770491 C46.1006016,174.305968 48.3267078,184.653847 51.5961039,194.727817 C51.8050424,195.354097 51.6143335,196.021034 51.1621009,196.438316 C49.6069817,197.934112 47.8471309,199.814377 46.8970919,201.711048 C46.6692228,202.232472 46.5240877,202.603389 46.5977069,202.893703 C46.6075228,202.920809 46.6145342,202.948628 46.6201433,202.977873 C46.6229478,202.997846 46.6250512,203.029944 46.6432807,203.043497 C46.6685216,203.064896 46.6615103,203.120534 46.6895557,203.122674 C46.7505545,203.216829 46.8269783,203.229669 46.9952509,203.297433 C47.5743891,203.43724 48.2706169,203.343084 48.8462494,203.191864 C49.8734133,202.905116 50.894267,203.74182 50.8907613,204.8132 C50.9321284,205.397395 51.2013645,206.264771 51.6641141,206.534399 C51.9046037,206.761943 53.1238788,206.717718 53.7570044,206.393165 C54.1075723,206.227679 54.4111641,205.990863 54.6474469,205.685569 C55.2917907,204.865985 56.6176385,204.773969 57.3678538,205.502964 C57.616757,205.759753 57.8397181,206.028668 58.153827,206.218406 C58.9033411,206.729131 60.0216527,206.887484 61.0481155,206.726277 C62.687371,206.525126 63.4894703,204.34884 64.0419653,202.82808 C64.4395093,201.626878 64.7339863,200.334374 64.9085692,199.059703 C64.9821884,198.250818 65.1062895,196.715078 65.1778053,195.89264 C65.5984868,190.954447 66.0836727,186.021247 66.6053178,181.092328 C67.1199514,176.161981 67.6955839,171.233061 68.2466766,166.318407 C68.3020664,165.828369 68.7367706,165.475997 69.2184509,165.532348 C69.6643732,165.583706 69.9932059,165.966749 69.9967116,166.41185 C70.0422854,173.900812 69.6082823,181.327004 69.0599942,188.775308 C68.8412398,191.846789 68.5453605,194.981039 68.2473778,198.05038 C68.0959325,200.038354 67.6864692,201.978536 67.0484356,203.876634 C66.2470374,206.220546 64.7907783,209.144373 62.0682681,209.799184 C59.7068427,210.349141 56.8300826,209.800611 55.1410465,207.767699 C55.6269336,208.396118 56.6660168,208.306956 57.0600551,207.75272 C55.4460406,209.764233 52.3533306,210.527466 50.0879609,209.315565 C48.4395906,208.29269 47.8282002,206.545812 47.7265355,204.751856 L49.7619327,206.263344 C47.5954231,206.937415 44.6064813,206.649954 43.6837866,204.179074 C42.5107864,201.028418 45.7696655,197.540369 47.6557208,195.445399 C48.1065511,194.971053 48.5426576,194.528092 49.0453719,194.058739 L48.6113689,195.768525 C46.876759,190.639167 45.3286511,185.420647 44.4010485,180.068739 C43.4615265,174.72111 42.9384792,169.291452 43.0057883,163.873207 C43.035236,162.799686 44.5917574,162.659166 44.7551221,163.770491" id="Fill-21" fill="#3B0372"></path>
                <path d="M112,164 C111.3385,174.969587 108.98875,185.512835 105.343,195.729127 C105.343,195.729127 111.3025,200.907129 110.773,203.692736 C110.24275,206.478343 106.19875,205.299429 106.19875,205.299429 C106.19875,205.299429 106.1425,208.83473 103.07425,208.888743 C100.84525,208.927632 99.676,207.892031 99.2035,207.322379 C99.06775,207.158901 98.8135,207.15602 98.6725,207.315897 C98.06275,208.002937 96.3865,209.402222 93.145,208.889463 C88.90525,208.218987 87.78925,199.728936 87.78925,199.728936 C87.78925,199.728936 85.5025,176.53451 85,166.570997" id="Fill-22" fill="#FFFFFF"></path>
                <path d="M112.993338,163.872271 C113.136353,174.737573 110.967303,185.555797 107.388442,195.768411 L106.954492,194.058581 C107.456444,194.527946 107.893198,194.970918 108.343272,195.445276 C110.607664,197.908373 114.727036,202.547812 111.213372,205.69427 C109.748177,206.829877 107.897404,206.702192 106.237317,206.2635 L108.272466,204.751973 L108.264053,204.948136 C108.132957,206.884089 107.211777,208.911347 105.232712,209.632514 C103.045435,210.319442 100.408785,209.598988 98.9407862,207.752914 C99.3494985,208.32571 100.39827,208.371363 100.849045,207.78002 C99.1574108,209.804424 96.2901153,210.347262 93.9331843,209.799431 C91.2103052,209.144603 89.7556259,206.221414 88.9536245,203.876729 C88.3156687,201.979295 87.9055543,200.038349 87.7541275,198.050324 C87.1995967,192.495695 86.7649456,186.912533 86.4473698,181.339357 C86.1725581,176.376071 85.9622431,171.409218 86.0057082,166.410979 C86.0099145,165.917361 86.4060079,165.521468 86.8911346,165.525748 C87.3391057,165.529315 87.7064561,165.875275 87.7555296,166.317534 C88.5890783,173.691845 89.4401533,181.092548 90.1461109,188.488259 C90.4847182,191.855846 90.7721488,195.294766 91.0588783,198.6702 C91.0721983,198.87207 91.1184676,199.275809 91.1528191,199.474826 C91.5306852,201.664721 92.6502624,206.840576 95.3184596,206.767104 C96.6932192,206.882662 97.8134974,206.491763 98.6330252,205.5031 C99.3831489,204.773373 100.708835,204.866818 101.3531,205.68571 C101.589354,205.991011 101.892208,206.227834 102.243434,206.393324 C102.876482,206.717885 104.095609,206.762111 104.336069,206.534562 C104.843629,206.227121 105.094605,205.289104 105.121946,204.658528 C105.194154,203.644186 106.190347,202.928012 107.15359,203.191941 C107.793649,203.341025 108.677673,203.519355 109.259545,203.174108 C109.267256,203.163408 109.287587,203.163408 109.293195,203.152708 C109.295999,203.139155 109.301608,203.129882 109.31002,203.122748 C109.338062,203.120608 109.331052,203.064969 109.355589,203.04357 C109.360496,203.035723 109.368208,203.031443 109.373115,203.021457 L109.379424,202.977944 C109.393445,202.902332 109.429199,202.844553 109.422188,202.776788 C109.435508,202.594178 109.312825,202.144072 109.101808,201.711087 C108.151885,199.813653 106.39295,197.934766 104.838021,196.438219 C104.357801,195.994534 104.208478,195.315452 104.404071,194.727676 C106.085189,189.71731 107.355492,184.584254 108.533257,179.431938 C109.700505,174.277481 110.567003,169.05312 111.243517,163.769552 C111.386531,162.711698 112.954781,162.743084 112.993338,163.872271" id="Fill-23" fill="#3B0372"></path>
                <path d="M86.5751451,57.9829993 C85.5709614,59.4945088 83.3760461,61.3469293 78.5654902,61.9917853 C78.5456447,61.9917853 78.5257992,61.9958926 78.5019846,62 C78.4781699,61.9958926 78.4543553,61.9958926 78.4345098,61.9917853 C73.6239539,61.3469293 71.4290386,59.4945088 70.4248549,57.9829993 C69.6072192,56.7425758 70.0080988,55.0790939 71.2980581,54.389057 C73.854162,53.0254126 77.6803797,52.9925537 78.4345098,53.0007684 C78.4345098,53.0007684 78.482139,53.0007684 78.5654902,53.0007684 C79.3196203,52.9925537 83.1498071,53.0254126 85.7019419,54.389057 C86.9919012,55.0790939 87.3927808,56.7425758 86.5751451,57.9829993" id="Fill-24" fill="#3B0372"></path>
                <path d="M79,56 C77.3432193,56 76,55.5523724 76,55 C76,54.4476276 77.3432193,54 79,54 C80.6567807,54 82,54.4476276 82,55 C82,55.5523724 80.6567807,56 79,56" id="Fill-25" fill="#B19AC7"></path>
                <path d="M77.7175831,65.3866152 C77.1018531,63.1071575 76.8681038,60.7095689 77.0719218,58.3485077 C77.3106597,56.5407959 79.6923374,56.5602253 79.9225235,58.3485077 C80.0565018,59.5212665 79.9952139,60.6948026 79.9004314,61.8675614 C79.7785681,63.0581954 79.6210724,64.2309542 79.2768622,65.3866152 C79.1336195,65.8560296 78.6689714,66.1101662 78.2378179,65.9539538 C77.9841144,65.862247 77.7973999,65.6430834 77.7175831,65.3866152" id="Fill-26" fill="#3B0372"></path>
                <path d="M65,47 C65,54.1795281 58.9556638,60 51.5,60 C44.0443362,60 38,54.1795281 38,47 C38,39.8204719 44.0443362,34 51.5,34 C58.9556638,34 65,39.8204719 65,47" id="Fill-27" fill="#FFFFFF"></path>
                <path d="M52,35.5576071 C44.6816388,35.5576071 38.7281142,41.1390364 38.7281142,48 C38.7281142,54.8609636 44.6816388,60.4423929 52,60.4423929 C59.3183612,60.4423929 65.2718858,54.8609636 65.2718858,48 C65.2718858,41.1390364 59.3183612,35.5576071 52,35.5576071 Z M52,63 C43.1780582,63 36,56.2713012 36,48 C36,39.7286988 43.1780582,33 52,33 C60.8219418,33 68,39.7286988 68,48 C68,56.2713012 60.8219418,63 52,63 L52,63 Z" id="Fill-28" fill="#3B0372"></path>
                <path d="M62,47.5 C62,48.8807977 60.6569767,50 59,50 C57.3430233,50 56,48.8807977 56,47.5 C56,46.1192023 57.3430233,45 59,45 C60.6569767,45 62,46.1192023 62,47.5" id="Fill-29" fill="#3B0372"></path>
                <path d="M91,47 C91,54.1795281 97.0443362,60 104.5,60 C111.956383,60 118,54.1795281 118,47 C118,39.8204719 111.956383,34 104.5,34 C97.0443362,34 91,39.8204719 91,47" id="Fill-30" fill="#FFFFFF"></path>
                <path d="M103.99961,35.5576071 C96.6818503,35.5576071 90.7281806,41.1390364 90.7281806,48 C90.7281806,54.8609636 96.6818503,60.4423929 103.99961,60.4423929 C111.31815,60.4423929 117.271819,54.8609636 117.271819,48 C117.271819,41.1390364 111.31815,35.5576071 103.99961,35.5576071 Z M103.99961,63 C95.1774535,63 88,56.2713012 88,48 C88,39.7286988 95.1774535,33 103.99961,33 C112.822546,33 120,39.7286988 120,48 C120,56.2713012 112.822546,63 103.99961,63 L103.99961,63 Z" id="Fill-31" fill="#3B0372"></path>
                <path d="M94,47.5 C94,48.8807977 95.3430233,50 97,50 C98.6569767,50 100,48.8807977 100,47.5 C100,46.1192023 98.6569767,45 97,45 C95.3430233,45 94,46.1192023 94,47.5" id="Fill-32" fill="#3B0372"></path>
                <path d="M31.2166349,62.9632493 C26.2892298,61.2938944 21.3217223,59.8897391 16.1589009,59.0386954 C10.9901384,58.1288669 5.79389832,57.8102266 0.522280427,57.5350068 C-0.128270714,57.5022743 -0.195182424,56.6358664 0.457967951,56.5343291 C11.1215854,54.9885558 22.5894059,56.7888405 31.7401949,62.0367206 C32.3060852,62.3740652 31.8634728,63.1810203 31.2166349,62.9632493" id="Fill-33" fill="#3B0372"></path>
                <path d="M31.4296262,74.1459418 C25.4749719,74.8432496 19.7237255,76.612991 14.292885,78.7546299 C12.8476176,79.3357197 11.2662352,80.0052643 9.83626169,80.6296131 C8.83757431,81.0654304 7.86106299,81.5419241 6.82414103,81.9512696 C6.23762249,82.1849969 5.70386767,81.5219088 6.18944691,81.150657 C11.9238701,76.7227524 19.3314387,73.7159353 27.0999418,73.0709256 C28.5666205,72.9856991 30.0027115,72.9437315 31.4976838,73.143239 C31.8226778,73.1871436 32.0444384,73.4454057 31.9924393,73.7204549 C31.9465578,73.9632213 31.70568,74.1304461 31.4296262,74.1459418" id="Fill-34" fill="#3B0372"></path>
                <path d="M127.262286,62.0375316 C136.412407,56.7888521 147.878647,54.9885224 158.542153,56.5343343 C159.185231,56.6372103 159.139191,57.5009677 158.477549,57.5350371 C153.206687,57.8102637 148.010084,58.1289121 142.842442,59.0387634 C137.679255,59.8898283 132.712853,61.2940188 127.785065,62.9640835 C127.152384,63.1785198 126.684556,62.3768887 127.262286,62.0375316" id="Fill-35" fill="#3B0372"></path>
                <path d="M127.494821,73.1240696 C136.292284,72.24424 146.449146,76.1614224 152.813154,81.1473389 C153.293572,81.5115625 152.762664,82.1901958 152.178972,81.9495365 C151.140871,81.5393807 150.16397,81.0619437 149.164119,80.6252636 C144.297975,78.4755036 139.255881,76.5489356 133.963634,75.2828867 C131.888197,74.7879826 129.685007,74.3642411 127.562141,74.1287573 C126.859109,74.0951168 126.791789,73.2217565 127.494821,73.1240696" id="Fill-36" fill="#3B0372"></path>
            </g>
        </g>
    </g>
</svg>