<?xml version="1.0" encoding="UTF-8"?>
<svg width="304px" height="282px" viewBox="0 0 304 282" version="1.1" xmlns="http://www.w3.org/2000/svg" xmlns:xlink="http://www.w3.org/1999/xlink">
    <title>kocheng</title>
    <g id="Page-1" stroke="none" stroke-width="1" fill="none" fill-rule="evenodd">
        <g id="iPhone-14" transform="translate(-43.000000, -540.000000)">
            <g id="Group-3" transform="translate(36.992318, 528.447910)">
                <g id="kocheng" transform="translate(6.007682, 11.552090)">
                    <path d="M159.000266,257 C112.608448,257 75,250.957491 75,243.502965 C75,239.797032 84.2994353,236.439383 99.3538599,234 C97.3752567,235.311308 96.8724283,236.318393 96.7187651,237.116368 C96.4958775,238.285706 96.7910324,239.35923 97.5699981,240.221547 C98.9476415,241.744063 101.464827,242.15459 102.83182,242.263691 C103.738585,243.121112 105.657092,244.458297 108.782844,244.458297 C109.088649,244.458297 109.406625,244.445708 109.736773,244.418433 C110.510413,244.679995 112.099534,245.104509 114.268314,245.104509 C115.668018,245.104509 117.308867,244.92827 119.127721,244.416335 L125.443885,243.438623 L139.423429,245.094019 C139.497217,245.102411 139.571767,245.107307 139.646316,245.107307 L162.494201,245.107307 C162.568751,245.107307 162.642539,245.102411 162.717089,245.094019 L176.692829,243.438623 L183.008232,244.416335 C184.827086,244.92827 186.467935,245.104509 187.8684,245.104509 C190.038702,245.104509 191.629343,244.679995 192.402984,244.418433 C192.733892,244.445708 193.051869,244.458297 193.358434,244.458297 C196.484186,244.458297 198.39889,243.121112 199.304894,242.263691 C200.673409,242.153891 203.192115,241.743364 204.568237,240.220148 C204.767543,239.999848 204.934899,239.765561 205.070305,239.519385 C208.053804,239.550157 211.693035,239.570438 215.497339,239.578831 C216.280869,239.580229 217.417367,239.582327 218.778275,239.582327 C224.503369,239.582327 234.18719,239.551555 238.118532,239.361328 C238.374131,239.349439 238.628207,239.334053 238.87848,239.315869 C241.553893,240.634172 243,242.041293 243,243.502965 C243,250.957491 205.392085,257 159.000266,257" id="Fill-3" fill="#D7C26A"></path>
                    <path d="M240.266383,236.780222 C236.349072,236.974691 225.707231,237.020656 216.514155,236.992369 C208.239258,236.967619 201.127137,236.879224 201.127137,236.780222 C201.164767,236.663541 197.601181,235.42248 194.376266,234.071809 C191.651835,232.933285 189.168237,231.720509 189.288653,231.045174 C189.552065,229.574286 188.039328,226.678476 190.108993,225.57531 C192.182421,224.472144 195.595487,223.050757 195.595487,223.050757 L197.416792,221.816767 L198.620961,221 C198.620961,221 202.248519,223.160367 209.838545,225.062621 C213.165061,225.893531 217.251709,226.678476 222.132355,227.205308 C238.140272,228.94138 249.56106,226.575938 250.79157,229.942008 C252.02208,233.308078 247.713414,236.408964 240.266383,236.780222" id="Fill-4" fill="#FFFFFF"></path>
                    <path d="M210,236 C207.964732,235.987925 206.063834,235.971323 204.408308,235.95321 C203.806564,234.627256 202.04953,232.858311 196.699558,230.414691 C195.387989,229.816238 194.096138,229.283441 193,228.854034 C194.926457,227.320546 196.693715,225.70178 198.298123,224 C200.006959,224.748632 202.328493,225.634614 205.288286,226.483617 C205.337944,229.318156 206.32162,232.897554 210,236" id="Fill-5" fill="#CEC0DC"></path>
                    <path d="M198.977852,235.754447 C199.220556,235.892674 199.465571,236.070694 199.649718,236.296885 L199.651259,236.296187 C199.448621,236.019732 199.196671,235.853579 198.977852,235.754447 M196.502179,236.735303 C196.334813,237.135325 196.405389,237.503932 196.593928,237.805519 C196.389258,237.470422 196.352962,237.092042 196.502179,236.735303 M218.751666,239 C217.373262,239 216.222153,238.997906 215.42855,238.996509 C210.938143,238.986736 206.675031,238.960207 203.424341,238.921811 C198.291347,238.861074 197.516236,238.851301 197.039303,238.436618 C196.658682,238.28373 195.886653,237.998898 195.189361,237.741292 C185.893418,234.309341 183.962575,233.157445 184.313147,231.25577 C184.353212,231.04075 184.257672,230.459915 184.188328,230.036157 C183.941771,228.531013 183.52879,226.010805 186.025172,224.726965 C188.197949,223.609277 191.652819,222.220719 191.799212,222.162775 C192.691437,221.803244 193.73622,222.169757 194.13148,222.978876 C194.52597,223.787996 194.123005,224.733946 193.230009,225.092081 C193.196107,225.105345 189.789008,226.475054 187.770328,227.513156 C187.41051,227.698158 187.513756,228.515655 187.685574,229.565625 C187.769558,230.078742 187.855852,230.603727 187.856623,231.115448 C189.304371,232.108871 194.672363,234.09083 196.523847,234.774986 C197.228073,235.034686 197.823661,235.254594 198.240495,235.417255 C198.367625,235.466124 198.541756,235.533841 198.730525,235.625295 C202.124527,235.78656 230.677285,235.936656 238.154104,235.580615 C243.284786,235.335575 246.167183,233.822054 247.077901,232.600347 C247.483178,232.055116 247.569472,231.530829 247.349883,230.950692 C247.348342,230.946504 247.114114,230.552765 245.149368,230.311216 C243.25859,230.078742 240.480209,230.073157 237.26342,230.066176 C232.417818,230.055704 226.386435,230.043138 219.475925,229.320585 C202.874212,227.585063 194.989804,223.142934 194.662347,222.954442 C193.837924,222.481117 193.593679,221.491185 194.116841,220.744198 C194.638462,219.99791 195.729473,219.775908 196.553125,220.247836 C196.6556,220.30578 204.207157,224.499378 219.881972,226.137863 C226.594467,226.84017 232.514129,226.852038 237.271125,226.86251 C244.926697,226.878567 249.547316,226.88834 250.693032,229.909099 C251.270899,231.431696 251.027424,233.024105 250.008839,234.392417 C248.128847,236.916814 243.875751,238.515506 238.340563,238.779395 C234.358679,238.969283 224.550361,239 218.751666,239" id="Fill-6" fill="#3B0372"></path>
                    <path d="M209.366803,195.739234 C209.538056,209.837936 203.468091,221.630609 189.505269,230.521235 C189.505269,230.521235 203.068501,234.661442 203.658372,237.801188 C204.282494,241.100582 198.421838,241.153798 198.421838,241.153798 C198.421838,241.153798 196.583724,243.818148 192.112119,243.264701 C192.112119,243.264701 188.599532,244.868277 183.362998,243.339203 L176.672717,242.289074 L162.432084,244 L139.571721,244 L125.327283,242.289074 L118.637002,243.339203 C118.248829,243.452731 117.868267,243.54852 117.499122,243.630118 C112.898126,244.637675 109.891686,243.264701 109.891686,243.264701 C105.420082,243.818148 103.578162,241.153798 103.578162,241.153798 C103.578162,241.153798 97.7213115,241.100582 98.3416276,237.801188 C98.9353044,234.661442 112.494731,230.521235 112.494731,230.521235 C106.866218,226.934474 102.520199,222.879412 99.3463115,218.387979 C94.6539813,211.746618 92.530445,204.154463 92.6331967,195.739234 C92.7321429,187.700066 96.2066745,179.675088 100.899005,170.731246 C106.268735,160.485385 113.240632,149.033295 118.576112,134.973619 C115.687646,133.501308 112.970433,131.812586 110.451112,129.87907 C106.607436,126.941545 103.216628,123.43993 100.343384,119.296175 L92.2107728,122.258534 L93.4666276,111.267649 L86,111.267649 C91.7617096,96.1542953 97.2303864,81.303474 96.8688525,71.8310199 C82.3427986,38.5001146 92.7663934,33.689456 116.494438,50.2289995 C132.630269,42.5304132 148.267564,39.9795203 163.402518,42.5836292 C170.895785,43.8713863 178.263466,46.4187315 185.509368,50.2289995 C209.237412,33.689456 219.661007,38.5001146 205.134953,71.8310199 C204.845726,79.3593149 208.24034,90.2792451 212.536885,102.032893 C213.648126,105.069755 214.816452,108.16338 216,111.267649 L208.533372,111.267649 L209.793033,122.258534 L201.660422,119.296175 C196.89959,126.161043 190.719262,131.262687 183.427693,134.973619 C193.421253,161.30846 209.157494,178.500787 209.366803,195.739234 Z" id="Fill-7" fill="#FFFFFF"></path>
                    <path d="M160,241 L141,241 L142.048786,224 C144.752322,225.834489 147.455858,226.751394 150.158728,226.751394 C152.861599,226.751394 155.563803,225.834489 158.266008,224 L160,241" id="Fill-8" fill="#CEC0DC"></path>
                    <path d="M118,194.99643 C118,208.254797 110.527086,219 101.308829,219 C100.966172,219 100.62494,218.985721 100.286557,218.953592 C95.8947062,212.270861 93.9071532,204.631415 94.0033251,196.163766 C94.0959351,188.07452 97.3479707,179.999554 101.739109,171 C110.758611,171.328425 118,181.945114 118,194.99643" id="Fill-9" fill="#FF6F03"></path>
                    <path d="M188.189517,241 C187.083925,241 185.749485,240.853863 184.239242,240.414748 C184.162707,240.392968 184.085414,240.376106 184.007363,240.363459 L183.683036,240.312873 C182.123537,237.471624 180.548125,234.543255 180.597381,234.400631 C180.69968,234.116084 183.958108,223.106597 183.958108,223.106597 C206.93457,208.042498 189.949826,163.530304 181.042194,144.074354 C178.899967,139.395146 173.951704,136.402139 168.536651,136.402139 C168.181255,136.402139 167.824344,136.414786 167.465159,136.440781 C162.138009,136.82931 156.810101,137.023223 151.484466,137.023223 C146.133066,137.023223 140.783183,136.827905 135.434057,136.435161 C135.073357,136.409165 134.714172,136.395816 134.356502,136.395816 C128.942208,136.395816 123.993945,139.387418 121.85096,144.067328 C118.537215,151.306049 114.10348,162.013425 111.02616,173.385446 C108.886207,171.484254 106.418895,170.18588 103.759866,169.670886 C104.844998,167.636203 105.986964,165.555853 107.157724,163.421403 C111.656628,155.226466 116.754931,145.938309 120.856761,135.188777 C121.141684,134.442633 120.799928,133.615692 120.051247,133.236297 C112.690989,129.511198 106.957672,124.609973 102.525452,118.252293 C102.196579,117.781562 101.640373,117.515283 101.063707,117.515283 C100.853046,117.515283 100.638596,117.551114 100.432481,117.626291 L95,119.594228 L95.8721977,112.001405 C114.396738,121.089326 132.933403,125.632233 151.467037,125.632233 C170.018099,125.632233 188.564615,121.087218 207.124771,112 L208,119.593525 L202.569035,117.626291 C202.362162,117.551114 202.14847,117.515283 201.937051,117.515283 C201.360385,117.515283 200.803421,117.781562 200.476063,118.252293 C196.043086,124.609973 190.310526,129.511198 182.950269,133.236297 C182.20083,133.615692 181.859074,134.442633 182.143997,135.188777 C186.245069,145.936201 191.342614,155.223656 195.84076,163.417188 C202.231825,175.061108 207.750692,185.116487 207.869663,194.838841 C208.041678,208.89403 201.821112,219.718035 188.854085,227.929834 C188.306972,228.276208 188.019776,228.88043 188.112982,229.488868 C188.206188,230.096603 188.663884,230.602463 189.293594,230.793566 C195.704361,232.739723 201.744577,235.536006 202.212881,236.750071 C202.27426,237.073259 202.180297,237.178647 202.118917,237.248203 C201.599084,237.831347 199.793309,238.162264 198.694537,238.177721 C198.109535,238.182639 197.582125,238.437677 197.266133,238.894356 C197.216878,238.959697 196.145385,240.340976 193.600023,240.340976 C193.306764,240.340976 192.993046,240.322709 192.658868,240.281257 C192.586879,240.272826 192.514133,240.26861 192.441387,240.26861 C192.179197,240.26861 191.914734,240.324114 191.679066,240.425286 C191.5995,240.459713 190.316589,241 188.189517,241" id="Fill-10" fill="#CEC0DC"></path>
                    <path d="M115.393247,241 C113.5205,241 112.393241,240.478304 112.331061,240.44898 C112.119783,240.343276 111.888448,240.289402 111.655775,240.289402 C111.588247,240.289402 111.520718,240.293494 111.453858,240.302359 C111.157669,240.342594 110.879531,240.361007 110.619446,240.361007 C108.374957,240.361007 107.429557,239.020964 107.39947,238.977319 C107.121333,238.537457 106.641947,238.268084 106.128463,238.260583 C105.15565,238.24558 103.563715,237.924379 103.104387,237.357673 C103.049562,237.29016 102.966655,237.187866 103.014126,236.902809 C103.432001,235.699156 108.762745,232.98429 114.419766,231.093226 C114.975372,230.907734 115.378538,230.416044 115.460776,229.826152 C115.543013,229.23626 115.289614,228.65046 114.807554,228.314255 C110.185525,225.092695 106.534303,221.45787 103.834497,217.370226 C106.661336,217.24952 109.301636,216.032229 111.560834,214 C113.177508,217.858507 115.600513,221.155764 119.033772,223.631946 C119.033772,223.631946 121.90875,234.318196 121.999011,234.594388 C122.04247,234.733507 120.646434,237.587492 119.267113,240.350778 L119.083248,240.382148 C119.013714,240.394423 118.946185,240.41079 118.879325,240.431931 C117.5448,240.858153 116.368065,241 115.393247,241" id="Fill-11" fill="#CEC0DC"></path>
                    <path d="M101.037626,219 C96.2119752,212.65278 93.894334,205.268385 94.0036949,196.712594 C94.1090054,188.601101 98.0638199,180.262793 103.232135,171 C106.074709,171.526124 108.712332,172.852559 111,174.794838 C106.947166,189.110716 105.093701,204.454437 110.39892,215.452792 C107.661657,217.59174 104.462648,218.872955 101.037626,219" id="Fill-12" fill="#CE541F"></path>
                    <path d="M186.30025,56 C178.99295,52.2965143 171.562838,49.8205811 164.006076,48.5688209 C160.149786,47.9294233 156.261259,47.6097589 152.341261,47.6097589 C140.742456,47.6097589 128.861953,50.4074255 116.700517,56 C107.967833,50.1323831 101.021292,47.0287767 96.4335049,47.0287767 C94.5406685,47.0287767 93.0500406,47.5567229 92,48.6370988 C92.2248991,46.2182706 93.1007005,45.145964 93.7800031,44.674847 C94.2489905,44.350079 95.0795051,44.0002759 96.481862,44.0002759 C99.507637,44.0002759 105.19459,45.6289434 115.645871,52.6501106 C115.955971,52.8587373 116.326709,52.9652921 116.69975,52.9652921 C116.973773,52.9652921 117.249332,52.9078422 117.502632,52.7912871 C129.340151,47.3474755 140.976566,44.6258801 152.33512,44.6258801 C163.672182,44.6258801 174.732917,47.3377511 185.435195,52.7610104 C185.704613,52.897704 186.002432,52.9652231 186.299483,52.9652231 C186.672523,52.9652231 187.044029,52.8590822 187.354896,52.6501106 C197.806946,45.6280468 203.493131,44 206.518906,44 C207.921262,44 208.751777,44.3500101 209.219997,44.674847 C209.8993,45.1460329 210.775101,46.2177189 211,48.6373746 C209.950727,47.5572746 208.458564,47.0287767 206.566495,47.0287767 C201.978708,47.0287767 195.033702,50.1317624 186.30025,56" id="Fill-13" fill="#FFFFFF"></path>
                    <path d="M213,102.52157 C207.049227,105.378196 200.228077,107 192.977489,107 C169.791713,107 151,90.4090529 151,69.9483624 C151,59.6265839 155.781323,50.2897787 163.495857,43.5703747 C171.045516,44.8473429 178.468646,47.3733463 185.769079,51.1516917 C209.675696,34.750647 220.177737,39.5211423 205.542362,72.5727293 C205.250959,80.0379519 208.671119,90.8663945 213,102.52157" id="Fill-14" fill="#FF6F03"></path>
                    <path d="M111.543623,241.052989 C111.807516,241.052989 112.069892,241.108432 112.309519,241.217213 C112.416441,241.262831 115.318505,242.480482 119.736437,241.199668 C119.812268,241.177912 119.888858,241.161068 119.967722,241.148436 L126.633294,240.109748 C126.802398,240.083781 126.974535,240.080974 127.144397,240.100625 L141.225512,241.778666 L163.7785,241.778666 L177.855823,240.101327 C178.024927,240.080272 178.197822,240.083781 178.366168,240.109748 L185.031739,241.148436 C185.109845,241.161068 185.187193,241.177912 185.263783,241.199668 C189.683231,242.481885 192.58757,241.262831 192.7089,241.210195 C193.009951,241.080359 193.358016,241.027021 193.689399,241.066323 C196.916779,241.462147 198.244585,239.753928 198.299942,239.680939 C198.616159,239.224759 199.143945,238.97 199.729362,238.965087 C200.828916,238.949647 202.635976,238.619092 203.156179,238.036585 C203.217602,237.967105 203.311633,237.861833 203.25021,237.538997 C202.781572,236.32626 196.737059,233.533033 190.321731,231.589004 C189.691573,231.39811 189.233552,230.892803 189.140279,230.285732 C189.047007,229.67796 189.334407,229.074398 189.881909,228.728403 C202.858162,220.525582 209.083154,209.713409 208.911017,195.673586 C208.791961,185.961861 203.269168,175.917475 196.873555,164.286283 C192.372209,156.101709 187.271038,146.824407 183.167047,136.088733 C182.881922,135.343404 183.223921,134.517367 183.973892,134.138387 C191.339387,130.41736 197.076025,125.521494 201.512156,119.170764 C201.960319,118.528602 202.836929,118.266825 203.606617,118.545446 L209.041446,120.51053 L208.090522,112.275425 C208.038198,111.820648 208.196686,111.367275 208.526552,111.027596 C208.856418,110.687918 209.32733,110.494216 209.820992,110.494216 L214.797801,110.494216 C208.984573,95.2577979 204.349005,81.9745324 204.696313,73.0390151 C204.703138,72.8509285 204.746361,72.6656491 204.822951,72.490897 C214.157026,51.2286188 211.220838,46.1158915 209.52525,44.904698 C208.065498,43.8610981 203.035607,42.5625987 187.923945,53.0203543 C187.371135,53.4025631 186.62723,53.4467775 186.027404,53.1332062 C164.859854,42.084943 142.280325,42.0955404 118.914426,53.1640159 C118.322941,53.4442509 117.611644,53.3885268 117.080066,53.0203543 C101.968404,42.5629496 96.9400303,43.861449 95.4780028,44.904698 C93.7824149,46.1158915 90.8469851,51.2286188 100.18106,72.490897 C100.25765,72.6656491 100.300874,72.8516303 100.307699,73.0397169 C100.651214,81.9899723 96.0164051,95.2669215 90.202419,110.494216 L95.1792275,110.494216 C95.6728893,110.494216 96.1430433,110.687918 96.4729095,111.027596 C96.8027757,111.367275 96.9612631,111.820648 96.9089395,112.274723 L95.9610482,120.511232 L101.397394,118.545446 C102.166324,118.266825 103.042175,118.528602 103.491855,119.170764 C107.927228,125.521494 113.664624,130.41736 121.030119,134.138387 C121.779332,134.517367 122.121331,135.343404 121.836206,136.088733 C117.731457,146.826513 112.629527,156.104516 108.127423,164.290494 C101.732569,175.920282 96.2097749,185.963264 96.0884448,195.674288 C95.9170661,209.711304 102.141299,220.523476 115.11831,228.729105 C115.665054,229.0751 115.952455,229.67796 115.859182,230.285031 C115.76591,230.892101 115.308647,231.39811 114.678489,231.589004 C108.262402,233.535139 102.216372,236.329067 101.742427,237.567772 C101.688587,237.861131 101.782617,237.966403 101.844799,238.035883 C102.36576,238.619092 104.171303,238.949647 105.274649,238.965087 C105.857033,238.972807 106.400744,239.250024 106.716202,239.702695 C106.754118,239.752524 108.084957,241.464954 111.314612,241.066323 C111.390444,241.057199 111.467033,241.052989 111.543623,241.052989 M163.889972,245 L141.11404,245 C141.039725,245 140.96541,244.995087 140.891854,244.986666 L126.956335,243.325468 L120.660062,244.306606 C116.037386,245.615492 112.568104,244.74103 111.298688,244.308712 C107.617078,244.616809 105.408112,243.091061 104.41548,242.146417 C103.052792,242.036934 100.543534,241.624968 99.170229,240.097116 C98.3937164,239.231777 98.099491,238.15449 98.3216767,236.981054 C98.5696451,235.681993 99.7344139,233.832007 106.60473,231.021235 C107.965902,230.464695 109.307358,229.969213 110.445586,229.56988 C98.436182,221.010536 92.4379259,209.608839 92.6085463,195.637092 C92.7389761,185.173722 98.4331487,174.819133 105.026681,162.830016 C109.299016,155.059513 114.119612,146.294536 118.062082,136.287347 C111.296413,132.648432 105.68793,127.856435 101.359479,122.017328 L94.5612024,124.475087 C93.9955008,124.680719 93.3547263,124.596501 92.8716809,124.255418 C92.3886355,123.913634 92.133084,123.364112 92.1975406,122.804765 L93.2440126,113.714849 L87.7401766,113.714849 C87.1744751,113.714849 86.6444143,113.46009 86.3183397,113.032684 C85.992265,112.605278 85.9111256,112.057862 86.1007038,111.565187 C92.1073014,95.9224173 97.0628771,82.2461351 96.8391747,73.4341373 C89.3167094,56.2202829 88.1762066,46.0525176 93.3524514,42.355142 C97.8560725,39.1371767 106.246048,41.6567652 118.294884,49.8451295 C142.060414,38.8751889 165.080523,38.8667671 186.747043,49.8193027 C198.774646,41.6519929 207.15173,39.1405454 211.65156,42.355142 C216.827805,46.0525176 215.687302,56.2206338 208.164837,73.4348391 C207.938101,82.2313969 212.893677,95.9146974 218.899516,111.565187 C219.089094,112.058564 219.007196,112.605278 218.681122,113.033386 C218.355047,113.46009 217.825745,113.714849 217.260043,113.714849 L211.756965,113.714849 L212.805712,122.804064 C212.870169,123.363411 212.614617,123.913634 212.13233,124.255418 C211.650043,124.596501 211.00851,124.680719 210.442809,124.475087 L203.644533,122.017328 C199.315323,127.856435 193.70684,132.648432 186.94193,136.287347 C190.883641,146.292431 195.70272,155.056705 199.975056,162.825805 C206.568588,174.817028 212.26276,185.172318 212.390915,195.637092 C212.562294,209.610944 206.564796,221.01194 194.555393,229.56988 C195.69362,229.969213 197.035076,230.464695 198.397006,231.021235 C205.268839,233.832709 206.432091,235.683397 206.677785,236.981054 C206.900729,238.152384 206.608778,239.230373 205.831507,240.095712 C204.459719,241.624267 201.948945,242.036232 200.584739,242.146417 C199.592866,243.091061 197.38845,244.616809 193.704565,244.308712 C192.435149,244.74103 188.962834,245.615492 184.339399,244.306606 L178.043884,243.325468 L164.112157,244.986666 C164.037843,244.995087 163.964286,245 163.889972,245" id="Fill-15" fill="#3B0372"></path>
                    <path d="M103.735049,239.326291 L107.871698,237.095022 C108.674343,236.665563 109.407226,237.795593 108.738739,238.41379 L105.252944,241.635134 C103.685985,242.946704 101.996368,240.380345 103.735049,239.326291" id="Fill-16" fill="#3B0372"></path>
                    <path d="M109.566857,239.816769 L113.568328,237.163707 C114.354949,236.645901 115.421085,237.464369 114.827441,238.118587 L111.770954,241.487809 C110.343094,242.909689 107.885443,241.048648 109.566857,239.816769" id="Fill-17" fill="#3B0372"></path>
                    <path d="M197.74725,241.635728 L194.261732,238.414121 C193.588698,237.787875 194.335321,236.666551 195.128703,237.095245 L199.264259,239.326696 C201.000503,240.387235 199.322517,242.944205 197.74725,241.635728" id="Fill-18" fill="#3B0372"></path>
                    <path d="M190.229507,241.487709 L187.172516,238.118439 C186.576346,237.455861 187.655335,236.648517 188.432346,237.163546 L192.433344,239.816646 C194.113694,241.047149 191.658929,242.910304 190.229507,241.487709" id="Fill-19" fill="#3B0372"></path>
                    <path d="M116,205 C116.6615,215.969587 119.0105,226.512835 122.657,236.729127 C122.657,236.729127 116.69675,241.907129 117.227,244.692736 C117.75725,247.478343 121.80125,246.299429 121.80125,246.299429 C121.80125,246.299429 121.85675,249.83473 124.925,249.888743 C127.15475,249.927632 128.324,248.892031 128.7965,248.322379 C128.93225,248.158901 129.1865,248.15602 129.3275,248.315897 C129.93725,249.002937 131.6135,250.402222 134.855,249.889463 C139.09475,249.218987 140.21075,240.728936 140.21075,240.728936 C140.21075,240.728936 142.4975,217.53451 143,207.570997" id="Fill-20" fill="#FFFFFF"></path>
                    <path d="M117.755122,204.770491 C119.100602,215.305968 121.326708,225.653847 124.596104,235.727817 C124.805042,236.354097 124.614333,237.021034 124.162101,237.438316 C122.606982,238.934112 120.847131,240.814377 119.897092,242.711048 C119.669223,243.232472 119.524088,243.603389 119.597707,243.893703 C119.607523,243.920809 119.614534,243.948628 119.620143,243.977873 C119.622948,243.997846 119.625051,244.029944 119.643281,244.043497 C119.668522,244.064896 119.66151,244.120534 119.689556,244.122674 C119.750555,244.216829 119.826978,244.229669 119.995251,244.297433 C120.574389,244.43724 121.270617,244.343084 121.846249,244.191864 C122.873413,243.905116 123.894267,244.74182 123.890761,245.8132 C123.932128,246.397395 124.201364,247.264771 124.664114,247.534399 C124.904604,247.761943 126.123879,247.717718 126.757004,247.393165 C127.107572,247.227679 127.411164,246.990863 127.647447,246.685569 C128.291791,245.865985 129.617638,245.773969 130.367854,246.502964 C130.616757,246.759753 130.839718,247.028668 131.153827,247.218406 C131.903341,247.729131 133.021653,247.887484 134.048116,247.726277 C135.687371,247.525126 136.48947,245.34884 137.041965,243.82808 C137.439509,242.626878 137.733986,241.334374 137.908569,240.059703 C137.982188,239.250818 138.106289,237.715078 138.177805,236.89264 C138.598487,231.954447 139.083673,227.021247 139.605318,222.092328 C140.119951,217.161981 140.695584,212.233061 141.246677,207.318407 C141.302066,206.828369 141.736771,206.475997 142.218451,206.532348 C142.664373,206.583706 142.993206,206.966749 142.996712,207.41185 C143.042285,214.900812 142.608282,222.327004 142.059994,229.775308 C141.84124,232.846789 141.54536,235.981039 141.247378,239.05038 C141.095932,241.038354 140.686469,242.978536 140.048436,244.876634 C139.247037,247.220546 137.790778,250.144373 135.068268,250.799184 C132.706843,251.349141 129.830083,250.800611 128.141046,248.767699 C128.626934,249.396118 129.666017,249.306956 130.060055,248.75272 C128.446041,250.764233 125.353331,251.527466 123.087961,250.315565 C121.439591,249.29269 120.8282,247.545812 120.726536,245.751856 L122.761933,247.263344 C120.595423,247.937415 117.606481,247.649954 116.683787,245.179074 C115.510786,242.028418 118.769666,238.540369 120.655721,236.445399 C121.106551,235.971053 121.542658,235.528092 122.045372,235.058739 L121.611369,236.768525 C119.876759,231.639167 118.328651,226.420647 117.401048,221.068739 C116.461527,215.72111 115.938479,210.291452 116.005788,204.873207 C116.035236,203.799686 117.591757,203.659166 117.755122,204.770491" id="Fill-21" fill="#3B0372"></path>
                    <path d="M185,205 C184.3385,215.969587 181.98875,226.512835 178.343,236.729127 C178.343,236.729127 184.3025,241.907129 183.773,244.692736 C183.24275,247.478343 179.19875,246.299429 179.19875,246.299429 C179.19875,246.299429 179.1425,249.83473 176.07425,249.888743 C173.84525,249.927632 172.676,248.892031 172.2035,248.322379 C172.06775,248.158901 171.8135,248.15602 171.6725,248.315897 C171.06275,249.002937 169.3865,250.402222 166.145,249.889463 C161.90525,249.218987 160.78925,240.728936 160.78925,240.728936 C160.78925,240.728936 158.5025,217.53451 158,207.570997" id="Fill-22" fill="#FFFFFF"></path>
                    <path d="M185.993338,204.872271 C186.136353,215.737573 183.967303,226.555797 180.388442,236.768411 L179.954492,235.058581 C180.456444,235.527946 180.893198,235.970918 181.343272,236.445276 C183.607664,238.908373 187.727036,243.547812 184.213372,246.69427 C182.748177,247.829877 180.897404,247.702192 179.237317,247.2635 L181.272466,245.751973 L181.264053,245.948136 C181.132957,247.884089 180.211777,249.911347 178.232712,250.632514 C176.045435,251.319442 173.408785,250.598988 171.940786,248.752914 C172.349499,249.32571 173.39827,249.371363 173.849045,248.78002 C172.157411,250.804424 169.290115,251.347262 166.933184,250.799431 C164.210305,250.144603 162.755626,247.221414 161.953624,244.876729 C161.315669,242.979295 160.905554,241.038349 160.754127,239.050324 C160.199597,233.495695 159.764946,227.912533 159.44737,222.339357 C159.172558,217.376071 158.962243,212.409218 159.005708,207.410979 C159.009914,206.917361 159.406008,206.521468 159.891135,206.525748 C160.339106,206.529315 160.706456,206.875275 160.75553,207.317534 C161.589078,214.691845 162.440153,222.092548 163.146111,229.488259 C163.484718,232.855846 163.772149,236.294766 164.058878,239.6702 C164.072198,239.87207 164.118468,240.275809 164.152819,240.474826 C164.530685,242.664721 165.650262,247.840576 168.31846,247.767104 C169.693219,247.882662 170.813497,247.491763 171.633025,246.5031 C172.383149,245.773373 173.708835,245.866818 174.3531,246.68571 C174.589354,246.991011 174.892208,247.227834 175.243434,247.393324 C175.876482,247.717885 177.095609,247.762111 177.336069,247.534562 C177.843629,247.227121 178.094605,246.289104 178.121946,245.658528 C178.194154,244.644186 179.190347,243.928012 180.15359,244.191941 C180.793649,244.341025 181.677673,244.519355 182.259545,244.174108 C182.267256,244.163408 182.287587,244.163408 182.293195,244.152708 C182.295999,244.139155 182.301608,244.129882 182.31002,244.122748 C182.338062,244.120608 182.331052,244.064969 182.355589,244.04357 C182.360496,244.035723 182.368208,244.031443 182.373115,244.021457 L182.379424,243.977944 C182.393445,243.902332 182.429199,243.844553 182.422188,243.776788 C182.435508,243.594178 182.312825,243.144072 182.101808,242.711087 C181.151885,240.813653 179.39295,238.934766 177.838021,237.438219 C177.357801,236.994534 177.208478,236.315452 177.404071,235.727676 C179.085189,230.71731 180.355492,225.584254 181.533257,220.431938 C182.700505,215.277481 183.567003,210.05312 184.243517,204.769552 C184.386531,203.711698 185.954781,203.743084 185.993338,204.872271" id="Fill-23" fill="#3B0372"></path>
                    <path d="M159.575145,98.9829993 C158.570961,100.494509 156.376046,102.346929 151.56549,102.991785 C151.545645,102.991785 151.525799,102.995893 151.501985,103 C151.47817,102.995893 151.454355,102.995893 151.43451,102.991785 C146.623954,102.346929 144.429039,100.494509 143.424855,98.9829993 C142.607219,97.7425758 143.008099,96.0790939 144.298058,95.389057 C146.854162,94.0254126 150.68038,93.9925537 151.43451,94.0007684 C151.43451,94.0007684 151.482139,94.0007684 151.56549,94.0007684 C152.31962,93.9925537 156.149807,94.0254126 158.701942,95.389057 C159.991901,96.0790939 160.392781,97.7425758 159.575145,98.9829993" id="Fill-24" fill="#3B0372"></path>
                    <path d="M152,97 C150.343219,97 149,96.5523724 149,96 C149,95.4476276 150.343219,95 152,95 C153.656781,95 155,95.4476276 155,96 C155,96.5523724 153.656781,97 152,97" id="Fill-25" fill="#B19AC7"></path>
                    <path d="M150.717583,106.386615 C150.101853,104.107157 149.868104,101.709569 150.071922,99.3485077 C150.31066,97.5407959 152.692337,97.5602253 152.922524,99.3485077 C153.056502,100.521267 152.995214,101.694803 152.900431,102.867561 C152.778568,104.058195 152.621072,105.230954 152.276862,106.386615 C152.13362,106.85603 151.668971,107.110166 151.237818,106.953954 C150.984114,106.862247 150.7974,106.643083 150.717583,106.386615" id="Fill-26" fill="#3B0372"></path>
                    <path d="M138,88 C138,95.1795281 131.955664,101 124.5,101 C117.044336,101 111,95.1795281 111,88 C111,80.8204719 117.044336,75 124.5,75 C131.955664,75 138,80.8204719 138,88" id="Fill-27" fill="#FFFFFF"></path>
                    <path d="M125,76.5576071 C117.681639,76.5576071 111.728114,82.1390364 111.728114,89 C111.728114,95.8609636 117.681639,101.442393 125,101.442393 C132.318361,101.442393 138.271886,95.8609636 138.271886,89 C138.271886,82.1390364 132.318361,76.5576071 125,76.5576071 Z M125,104 C116.178058,104 109,97.2713012 109,89 C109,80.7286988 116.178058,74 125,74 C133.821942,74 141,80.7286988 141,89 C141,97.2713012 133.821942,104 125,104 L125,104 Z" id="Fill-28" fill="#3B0372"></path>
                    <path d="M135,88.5 C135,89.8807977 133.656977,91 132,91 C130.343023,91 129,89.8807977 129,88.5 C129,87.1192023 130.343023,86 132,86 C133.656977,86 135,87.1192023 135,88.5" id="Fill-29" fill="#3B0372"></path>
                    <path d="M164,88 C164,95.1795281 170.044336,101 177.5,101 C184.956383,101 191,95.1795281 191,88 C191,80.8204719 184.956383,75 177.5,75 C170.044336,75 164,80.8204719 164,88" id="Fill-30" fill="#FFFFFF"></path>
                    <path d="M176.99961,76.5576071 C169.68185,76.5576071 163.728181,82.1390364 163.728181,89 C163.728181,95.8609636 169.68185,101.442393 176.99961,101.442393 C184.31815,101.442393 190.271819,95.8609636 190.271819,89 C190.271819,82.1390364 184.31815,76.5576071 176.99961,76.5576071 Z M176.99961,104 C168.177454,104 161,97.2713012 161,89 C161,80.7286988 168.177454,74 176.99961,74 C185.822546,74 193,80.7286988 193,89 C193,97.2713012 185.822546,104 176.99961,104 L176.99961,104 Z" id="Fill-31" fill="#3B0372"></path>
                    <path d="M167,88.5 C167,89.8807977 168.343023,91 170,91 C171.656977,91 173,89.8807977 173,88.5 C173,87.1192023 171.656977,86 170,86 C168.343023,86 167,87.1192023 167,88.5" id="Fill-32" fill="#3B0372"></path>
                    <path d="M104.216635,103.963249 C99.2892298,102.293894 94.3217223,100.889739 89.1589009,100.038695 C83.9901384,99.1288669 78.7938983,98.8102266 73.5222804,98.5350068 C72.8717293,98.5022743 72.8048176,97.6358664 73.457968,97.5343291 C84.1215854,95.9885558 95.5894059,97.7888405 104.740195,103.036721 C105.306085,103.374065 104.863473,104.18102 104.216635,103.963249" id="Fill-33" fill="#3B0372"></path>
                    <path d="M104.429626,115.145942 C98.4749719,115.84325 92.7237255,117.612991 87.292885,119.75463 C85.8476176,120.33572 84.2662352,121.005264 82.8362617,121.629613 C81.8375743,122.06543 80.861063,122.541924 79.824141,122.95127 C79.2376225,123.184997 78.7038677,122.521909 79.1894469,122.150657 C84.9238701,117.722752 92.3314387,114.715935 100.099942,114.070926 C101.56662,113.985699 103.002712,113.943732 104.497684,114.143239 C104.822678,114.187144 105.044438,114.445406 104.992439,114.720455 C104.946558,114.963221 104.70568,115.130446 104.429626,115.145942" id="Fill-34" fill="#3B0372"></path>
                    <path d="M200.262286,103.037532 C209.412407,97.7888521 220.878647,95.9885224 231.542153,97.5343343 C232.185231,97.6372103 232.139191,98.5009677 231.477549,98.5350371 C226.206687,98.8102637 221.010084,99.1289121 215.842442,100.038763 C210.679255,100.889828 205.712853,102.294019 200.785065,103.964083 C200.152384,104.17852 199.684556,103.376889 200.262286,103.037532" id="Fill-35" fill="#3B0372"></path>
                    <path d="M200.494821,114.12407 C209.292284,113.24424 219.449146,117.161422 225.813154,122.147339 C226.293572,122.511563 225.762664,123.190196 225.178972,122.949536 C224.140871,122.539381 223.16397,122.061944 222.164119,121.625264 C217.297975,119.475504 212.255881,117.548936 206.963634,116.282887 C204.888197,115.787983 202.685007,115.364241 200.562141,115.128757 C199.859109,115.095117 199.791789,114.221757 200.494821,114.12407" id="Fill-36" fill="#3B0372"></path>
                </g>
            </g>
        </g>
    </g>
</svg>